{
.formatVersion = 3;
axes = (
{
name = Weight;
tag = wght;
}
);
classes = (
{
code = "zero.lnum five.lnum seven.lnum eight.lnum a g i ordfeminine periodcentered agrave aacute acircumflex atilde adieresis aring ae amacron abreve aogonek gcircumflex gbreve gdotaccent gcommaaccent Scedilla scedilla Tcedilla tcedilla gcaron aringacute aeacute adblgrave ainvertedbreve gravecomb acutecomb circumflexcomb tildecomb macroncomb brevecomb dotaccentcomb dieresiscomb hookabovecomb ringcomb hungarumlautcomb dblgravecomb breveinvertedcomb commaturnedabovecomb strokeshortcomb tonos Decyr Kacyr Elcyr acyr becyr vecyr zhecyr zecyr icyr ishortcyr kacyr elcyr tsecyr shacyr shchacyr hardcyr softcyr yucyr gjecyr igravecyr abrevecyr adieresiscyr aiecyr adotbelow ahoi acircumflexacute acircumflexgrave acircumflexhoi acircumflextilde acircumflexdotbelow abreveacute abrevegrave abrevehoi abrevetilde abrevedotbelow zero two.lnum.ss05 five six seven eight nine periodcentered.loclCAT caroncomb.case horncomb.case pecyr.loclSRB tecyr.loclSRB gjecyr.loclMKD";
name = aalt;
},
{

glyphs = (
{
glyphname = .notdef;
layers = (
{
layerId = "47B14137-3610-4366-97F9-C15552AB4A93";
shapes = (
{
closed = 1;
nodes = (
(1097,0,l),
(1474,1410,l),
(368,1410,l),
(-10,0,l)
);
},
{
closed = 1;
nodes = (
(617,1146,l),
(1081,1146,l),
(845,264,l),
(381,264,l)
);
}
);
width = 1357;
},
{
layerId = "DCE18E71-776F-477B-AB8E-147A8D0BE437";
shapes = (
{
closed = 1;
nodes = (
(989,0,l),
(1366,1410,l),
(404,1410,l),
(26,0,l)
);
},
{
closed = 1;
nodes = (
(539,1256,l),
(1147,1256,l),
(852,155,l),
(244,155,l)
);
}
);
width = 1270;
},
{
layerId = "07F2E3F0-ED06-4523-9B4E-21C099677EF3";
shapes = (
{
closed = 1;
nodes = (
(916,0,l),
(1294,1410,l),
(427,1410,l),
(49,0,l)
);
},
{
closed = 1;
nodes = (
(485,1329,l),
(1191,1329,l),
(856,83,l),
(151,83,l)
);
}
);
width = 1213;
}
);
},
{
glyphname = exclam;
layers = (
{
layerId = "47B14137-3610-4366-97F9-C15552AB4A93";
shapes = (
{
closed = 1;
nodes = (
(532,534,l),
(839,1440,l),
(364,1440,l),
(182,534,l)
);
},
{
closed = 1;
nodes = (
(312,-30,o),
(377,-6,o),
(427,38,cs),
(477,83,o),
(506,147,o),
(506,227,cs),
(506,286,o),
(481,329,o),
(445,361,cs),
(408,393,o),
(356,410,o),
(297,410,cs),
(230,410,o),
(165,388,o),
(118,345,cs),
(70,302,o),
(37,239,o),
(37,157,cs),
(37,100,o),
(61,53,o),
(97,21,c),
(134,-10,o),
(188,-30,o),
(248,-30,cs)
);
}
);
width = 717;
},
{
layerId = "DCE18E71-776F-477B-AB8E-147A8D0BE437";
shapes = (
{
closed = 1;
nodes = (
(397,469,l),
(692,1440,l),
(445,1440,l),
(217,469,l)
);
},
{
closed = 1;
nodes = (
(241,-30,o),
(283,-15,o),
(315,15,cs),
(347,44,o),
(365,83,o),
(365,132,cs),
(365,168,o),
(351,195,o),
(329,216,cs),
(306,237,o),
(272,249,o),
(233,249,cs),
(190,249,o),
(149,235,o),
(118,207,cs),
(87,180,o),
(66,139,o),
(66,89,cs),
(66,54,o),
(81,25,o),
(104,4,cs),
(127,-17,o),
(161,-30,o),
(199,-30,cs)
);
}
);
width = 636;
},
{
layerId = "07F2E3F0-ED06-4523-9B4E-21C099677EF3";
shapes = (
{
closed = 1;
nodes = (
(306,425,l),
(594,1440,l),
(499,1440,l),
(239,425,l)
);
},
{
closed = 1;
nodes = (
(193,-30,o),
(220,-21,o),
(240,-1,cs),
(260,19,o),
(271,39,o),
(271,69,cs),
(271,89,o),
(264,107,o),
(252,120,c),
(237,133,o),
(215,142,o),
(191,142,cs),
(165,142,o),
(139,133,o),
(118,116,cs),
(97,98,o),
(85,73,o),
(85,44,cs),
(85,24,o),
(94,6,o),
(108,-8,cs),
(121,-20,o),
(143,-30,o),
(165,-30,cs)
);
}
);
width = 582;
}
);
leftKerningGroup = _b2;
rightKerningGroup = _d;
unicode = 33;
},
{
glyphname = quotedbl;
layers = (
{
layerId = "47B14137-3610-4366-97F9-C15552AB4A93";
shapes = (
{
closed = 1;
nodes = (
(452,714,l),
(676,1410,l),
(319,1410,l),
(174,714,l)
);
},
{
closed = 1;
nodes = (
(908,714,l),
(1132,1410,l),
(775,1410,l),
(630,714,l)
);
}
);
width = 970;
},
{
layerId = "DCE18E71-776F-477B-AB8E-147A8D0BE437";
shapes = (
{
closed = 1;
nodes = (
(411,905,l),
(562,1400,l),
(377,1400,l),
(264,905,l)
);
},
{
closed = 1;
nodes = (
(759,905,l),
(910,1400,l),
(725,1400,l),
(612,905,l)
);
}
);
width = 797;
},
{
layerId = "07F2E3F0-ED06-4523-9B4E-21C099677EF3";
shapes = (
{
closed = 1;
nodes = (
(386,1035,l),
(489,1400,l),
(417,1400,l),
(324,1035,l)
);
},
{
closed = 1;
nodes = (
(662,1035,l),
(765,1400,l),
(693,1400,l),
(600,1035,l)
);
}
);
width = 682;
}
);
leftKerningGroup = _tonos2;
rightKerningGroup = _tonos;
unicode = 34;
},
{
glyphname = numbersign;
layers = (
{
layerId = "47B14137-3610-4366-97F9-C15552AB4A93";
shapes = (
{
closed = 1;
nodes = (
(450,33,l),
(523,338,l),
(711,336,l),
(639,33,l),
(907,33,l),
(981,336,l),
(1143,336,l),
(1204,590,l),
(1044,590,l),
(1093,804,l),
(1253,804,l),
(1312,1056,l),
(1154,1056,l),
(1229,1367,l),
(961,1367,l),
(886,1056,l),
(696,1056,l),
(771,1367,l),
(503,1367,l),
(428,1056,l),
(266,1056,l),
(204,804,l),
(367,804,l),
(316,590,l),
(156,590,l),
(94,338,l),
(255,338,l),
(182,33,l)
);
},
{
closed = 1;
nodes = (
(633,804,l),
(825,804,l),
(776,590,l),
(584,590,l)
);
}
);
width = 1312;
},
{
layerId = "DCE18E71-776F-477B-AB8E-147A8D0BE437";
shapes = (
{
closed = 1;
nodes = (
(377,50,l),
(462,393,l),
(770,393,l),
(686,49,l),
(837,49,l),
(922,393,l),
(1094,393,l),
(1129,540,l),
(957,540,l),
(1029,858,l),
(1202,858,l),
(1235,1005,l),
(1065,1005,l),
(1150,1351,l),
(999,1351,l),
(913,1005,l),
(604,1005,l),
(690,1350,l),
(539,1350,l),
(452,1005,l),
(280,1005,l),
(245,859,l),
(418,859,l),
(343,539,l),
(170,539,l),
(137,393,l),
(310,393,l),
(225,50,l)
);
},
{
closed = 1;
nodes = (
(566,859,l),
(878,858,l),
(806,540,l),
(495,539,l)
);
}
);
width = 1261;
},
{
layerId = "07F2E3F0-ED06-4523-9B4E-21C099677EF3";
shapes = (
{
closed = 1;
nodes = (
(327,62,l),
(420,431,l),
(809,431,l),
(717,59,l),
(790,59,l),
(882,431,l),
(1060,431,l),
(1078,506,l),
(900,506,l),
(987,894,l),
(1167,894,l),
(1184,970,l),
(1005,970,l),
(1097,1341,l),
(1023,1341,l),
(931,970,l),
(543,970,l),
(635,1338,l),
(562,1338,l),
(468,970,l),
(290,970,l),
(272,897,l),
(453,897,l),
(361,504,l),
(180,504,l),
(165,431,l),
(346,431,l),
(253,62,l)
);
},
{
closed = 1;
nodes = (
(522,897,l),
(913,894,l),
(825,506,l),
(435,504,l)
);
}
);
width = 1226;
}
);
unicode = 35;
},
{
glyphname = dollar;
layers = (
{
layerId = "47B14137-3610-4366-97F9-C15552AB4A93";
shapes = (
{
closed = 1;
nodes = (
(814,-30,o),
(1079,152,o),
(1084,469,cs),
(1088,669,o),
(918,786,o),
(761,820,cs),
(654,843,ls),
(585,857,o),
(547,927,o),
(548,1002,cs),
(550,1117,o),
(668,1163,o),
(756,1163,cs),
(871,1163,o),
(986,1115,o),
(1054,1012,c),
(1254,1232,l),
(1152,1377,o),
(952,1432,o),
(789,1432,cs),
(530,1432,o),
(274,1241,o),
(268,939,c),
(266,799,o),
(328,624,o),
(527,584,cs),
(631,563,ls),
(715,546,o),
(790,498,o),
(788,393,cs),
(786,277,o),
(678,238,o),
(587,238,cs),
(465,238,o),
(309,301,o),
(234,408,c),
(39,180,l),
(157,36,o),
(371,-30,o),
(545,-30,cs)
);
},
{
closed = 1;
nodes = (
(553,-160,l),
(1007,1560,l),
(763,1560,l),
(308,-160,l)
);
}
);
width = 1200;
},
{
layerId = "DCE18E71-776F-477B-AB8E-147A8D0BE437";
shapes = (
{
closed = 1;
nodes = (
(803,-30,o),
(1032,137,o),
(1038,435,cs),
(1041,606,o),
(918,701,o),
(784,750,c),
(657,800,ls),
(569,835,o),
(477,902,o),
(479,1016,cs),
(482,1188,o),
(626,1277,o),
(770,1277,cs),
(892,1277,o),
(1011,1235,o),
(1091,1134,c),
(1211,1262,l),
(1112,1385,o),
(949,1432,o),
(803,1432,cs),
(559,1432,o),
(322,1263,o),
(317,977,cs),
(315,845,o),
(382,725,o),
(558,659,c),
(677,611,ls),
(770,574,o),
(874,512,o),
(872,388,cs),
(868,208,o),
(721,127,o),
(572,127,cs),
(440,127,o),
(296,178,o),
(207,283,c),
(87,149,l),
(198,26,o),
(391,-30,o),
(547,-30,cs)
);
},
{
closed = 1;
nodes = (
(503,-160,l),
(957,1560,l),
(814,1560,l),
(359,-160,l)
);
}
);
width = 1200;
},
{
layerId = "07F2E3F0-ED06-4523-9B4E-21C099677EF3";
shapes = (
{
closed = 1;
nodes = (
(796,-30,o),
(1002,127,o),
(1006,412,cs),
(1009,564,o),
(918,644,o),
(799,703,cs),
(659,772,l),
(557,820,o),
(430,886,o),
(432,1025,cs),
(435,1235,o),
(598,1352,o),
(778,1352,cs),
(904,1352,o),
(1026,1314,o),
(1116,1215,c),
(1182,1281,l),
(1087,1389,o),
(946,1431,o),
(812,1431,cs),
(578,1431,o),
(354,1278,o),
(349,1002,cs),
(347,876,o),
(417,792,o),
(577,709,c),
(708,644,ls),
(808,593,o),
(930,522,o),
(928,385,c),
(923,161,o),
(749,54,o),
(562,54,cs),
(424,54,o),
(287,96,o),
(188,201,c),
(119,128,l),
(223,19,o),
(404,-30,o),
(548,-30,cs)
);
},
{
closed = 1;
nodes = (
(469,-160,l),
(923,1560,l),
(848,1560,l),
(394,-160,l)
);
}
);
width = 1200;
}
);
unicode = 36;
},
{
glyphname = percent;
layers = (
{
layerId = "47B14137-3610-4366-97F9-C15552AB4A93";
shapes = (
{
closed = 1;
nodes = (
(614,756,o),
(743,1001,o),
(743,1191,cs),
(743,1338,o),
(661,1440,o),
(508,1440,cs),
(294,1440,o),
(164,1197,o),
(164,1008,cs),
(164,860,o),
(247,756,o),
(400,756,cs)
);
},
{
closed = 1;
nodes = (
(374,1082,o),
(416,1244,o),
(490,1244,cs),
(523,1244,o),
(532,1195,o),
(532,1168,cs),
(532,1113,o),
(494,955,o),
(421,955,cs),
(384,955,o),
(374,993,o),
(374,1023,cs)
);
},
{
closed = 1;
nodes = (
(1017,-40,o),
(1146,206,o),
(1146,395,cs),
(1146,543,o),
(1063,644,o),
(910,644,cs),
(697,644,o),
(567,403,o),
(567,212,cs),
(567,65,o),
(649,-40,o),
(802,-40,cs)
);
},
{
closed = 1;
nodes = (
(776,286,o),
(818,448,o),
(892,448,cs),
(926,448,o),
(934,399,o),
(934,373,cs),
(934,317,o),
(896,159,o),
(824,159,cs),
(787,159,o),
(776,197,o),
(776,228,cs)
);
},
{
closed = 1;
nodes = (
(147,-43,l),
(1293,1345,l),
(1158,1440,l),
(12,56,l)
);
}
);
width = 1200;
},
{
layerId = "DCE18E71-776F-477B-AB8E-147A8D0BE437";
shapes = (
{
closed = 1;
nodes = (
(616,749,o),
(743,1008,o),
(743,1188,cs),
(743,1324,o),
(678,1433,o),
(529,1433,cs),
(323,1433,o),
(198,1178,o),
(198,997,cs),
(198,862,o),
(262,749,o),
(411,749,cs)
);
},
{
closed = 1;
nodes = (
(320,1106,o),
(390,1320,o),
(521,1320,cs),
(594,1320,o),
(620,1242,o),
(620,1180,cs),
(620,1077,o),
(550,864,o),
(424,864,cs),
(344,864,o),
(320,933,o),
(320,1001,cs)
);
},
{
closed = 1;
nodes = (
(989,-33,o),
(1114,226,o),
(1114,406,cs),
(1114,541,o),
(1049,651,o),
(901,651,cs),
(695,651,o),
(568,395,o),
(568,214,cs),
(568,79,o),
(634,-33,o),
(782,-33,cs)
);
},
{
closed = 1;
nodes = (
(691,324,o),
(761,537,o),
(891,537,cs),
(964,537,o),
(990,460,o),
(990,397,cs),
(990,294,o),
(923,82,o),
(796,82,cs),
(716,82,o),
(691,151,o),
(691,219,cs)
);
},
{
closed = 1;
nodes = (
(121,-29,l),
(1267,1364,l),
(1186,1427,l),
(36,37,l)
);
}
);
width = 1200;
},
{
layerId = "07F2E3F0-ED06-4523-9B4E-21C099677EF3";
shapes = (
{
closed = 1;
nodes = (
(617,745,o),
(742,1012,o),
(742,1185,cs),
(742,1314,o),
(688,1429,o),
(542,1429,cs),
(342,1429,o),
(219,1165,o),
(219,990,cs),
(219,863,o),
(272,745,o),
(417,745,cs)
);
},
{
closed = 1;
nodes = (
(284,1122,o),
(374,1371,o),
(540,1371,cs),
(641,1371,o),
(679,1274,o),
(679,1187,cs),
(679,1053,o),
(588,804,o),
(426,804,cs),
(319,804,o),
(284,892,o),
(284,986,cs)
);
},
{
closed = 1;
nodes = (
(970,-29,o),
(1093,238,o),
(1093,412,cs),
(1093,539,o),
(1039,655,o),
(895,655,cs),
(693,655,o),
(569,389,o),
(569,215,cs),
(569,88,o),
(624,-29,o),
(767,-29,cs)
);
},
{
closed = 1;
nodes = (
(634,349,o),
(723,597,o),
(890,597,cs),
(989,597,o),
(1028,500,o),
(1028,413,cs),
(1028,279,o),
(939,31,o),
(777,31,cs),
(669,31,o),
(634,119,o),
(634,213,cs)
);
},
{
closed = 1;
nodes = (
(103,-19,l),
(1251,1376,l),
(1205,1419,l),
(51,25,l)
);
}
);
width = 1200;
}
);
leftKerningGroup = _percent;
unicode = 37;
},
{
glyphname = ampersand;
layers = (
{
layerId = "47B14137-3610-4366-97F9-C15552AB4A93";
shapes = (
{
closed = 1;
nodes = (
(556,-29,o),
(630,-18,o),
(703,6,cs),
(775,29,o),
(842,59,o),
(906,102,c),
(972,0,l),
(1380,0,l),
(1175,317,l),
(1244,375,o),
(1321,453,o),
(1391,538,cs),
(1459,621,o),
(1522,709,o),
(1555,777,c),
(1267,896,l),
(1226,820,o),
(1188,759,o),
(1148,704,cs),
(1108,647,o),
(1066,603,o),
(1021,558,c),
(741,955,l),
(711,1000,o),
(706,1029,o),
(706,1053,cs),
(706,1094,o),
(722,1122,o),
(749,1142,cs),
(777,1162,o),
(814,1168,o),
(856,1168,cs),
(898,1168,o),
(943,1159,o),
(989,1146,cs),
(1034,1133,o),
(1076,1113,o),
(1116,1087,c),
(1261,1330,l),
(1139,1411,o),
(1011,1443,o),
(870,1440,c),
(741,1440,o),
(619,1404,o),
(530,1334,c),
(441,1265,o),
(383,1160,o),
(383,1023,cs),
(383,958,o),
(399,894,o),
(432,826,c),
(747,344,l),
(698,305,o),
(626,284,o),
(564,284,cs),
(518,284,o),
(481,295,o),
(453,315,cs),
(426,334,o),
(412,365,o),
(412,399,cs),
(412,441,o),
(435,487,o),
(472,525,cs),
(508,563,o),
(556,595,o),
(606,607,c),
(462,837,l),
(345,796,o),
(245,735,o),
(172,650,cs),
(98,566,o),
(53,462,o),
(53,340,cs),
(53,232,o),
(96,141,o),
(172,76,cs),
(249,10,o),
(353,-29,o),
(486,-29,cs)
);
}
);
width = 1556;
},
{
layerId = "DCE18E71-776F-477B-AB8E-147A8D0BE437";
shapes = (
{
closed = 1;
nodes = (
(576,-26,o),
(658,-11,o),
(736,20,c),
(814,49,o),
(889,93,o),
(963,150,c),
(1061,0,l),
(1286,0,l),
(1107,271,l),
(1173,336,o),
(1241,413,o),
(1304,495,cs),
(1367,577,o),
(1425,666,o),
(1467,751,c),
(1313,821,l),
(1265,727,o),
(1218,649,o),
(1170,579,cs),
(1122,508,o),
(1074,452,o),
(1023,402,c),
(700,865,ls),
(641,951,o),
(624,1009,o),
(624,1066,cs),
(624,1132,o),
(651,1184,o),
(696,1223,cs),
(740,1262,o),
(800,1282,o),
(864,1282,cs),
(918,1282,o),
(965,1272,o),
(1010,1257,cs),
(1054,1242,o),
(1090,1218,o),
(1130,1190,c),
(1221,1333,l),
(1120,1406,o),
(1009,1442,o),
(867,1440,c),
(757,1440,o),
(650,1404,o),
(571,1334,c),
(491,1266,o),
(439,1170,o),
(439,1050,cs),
(439,972,o),
(464,902,o),
(522,811,c),
(875,284,l),
(769,187,o),
(655,145,o),
(537,145,cs),
(454,145,o),
(390,165,o),
(344,199,cs),
(299,234,o),
(276,284,o),
(276,345,cs),
(276,428,o),
(309,504,o),
(374,566,cs),
(438,628,o),
(528,674,o),
(641,696,c),
(554,819,l),
(425,786,o),
(307,727,o),
(221,641,cs),
(134,556,o),
(81,447,o),
(81,320,cs),
(81,213,o),
(121,128,o),
(194,68,cs),
(269,8,o),
(370,-26,o),
(497,-26,cs)
);
}
);
width = 1491;
},
{
layerId = "07F2E3F0-ED06-4523-9B4E-21C099677EF3";
shapes = (
{
closed = 1;
nodes = (
(588,-23,o),
(674,-5,o),
(757,29,cs),
(839,62,o),
(921,114,o),
(1001,183,c),
(1122,0,l),
(1222,0,l),
(1061,241,l),
(1126,311,o),
(1187,386,o),
(1247,467,cs),
(1306,548,o),
(1360,637,o),
(1410,733,c),
(1344,769,l),
(1290,666,o),
(1237,576,o),
(1185,496,c),
(1131,417,o),
(1078,350,o),
(1024,297,c),
(673,805,l),
(594,916,o),
(569,996,o),
(569,1074,cs),
(569,1156,o),
(604,1225,o),
(661,1277,cs),
(716,1328,o),
(790,1357,o),
(868,1357,cs),
(931,1357,o),
(980,1345,o),
(1023,1330,cs),
(1066,1314,o),
(1101,1289,o),
(1140,1260,c),
(1196,1335,l),
(1107,1403,o),
(1007,1441,o),
(865,1440,c),
(767,1440,o),
(672,1403,o),
(598,1334,cs),
(526,1266,o),
(477,1176,o),
(477,1066,cs),
(477,981,o),
(508,906,o),
(582,800,c),
(960,243,l),
(818,109,o),
(675,51,o),
(518,51,cs),
(412,51,o),
(328,79,o),
(272,123,c),
(215,166,o),
(183,231,o),
(183,309,cs),
(183,420,o),
(227,515,o),
(309,593,cs),
(391,671,o),
(508,727,o),
(664,753,c),
(614,807,l),
(478,779,o),
(349,721,o),
(254,635,cs),
(157,550,o),
(99,437,o),
(99,305,cs),
(99,201,o),
(137,119,o),
(209,62,cs),
(281,6,o),
(380,-23,o),
(504,-23,cs)
);
}
);
width = 1447;
}
);
rightKerningGroup = _x;
unicode = 38;
},
{
glyphname = quotesingle;
layers = (
{
layerId = "47B14137-3610-4366-97F9-C15552AB4A93";
shapes = (
{
closed = 1;
nodes = (
(452,714,l),
(676,1410,l),
(319,1410,l),
(174,714,l)
);
}
);
width = 514;
},
{
layerId = "DCE18E71-776F-477B-AB8E-147A8D0BE437";
shapes = (
{
closed = 1;
nodes = (
(414,911,l),
(566,1410,l),
(380,1410,l),
(266,911,l)
);
}
);
width = 449;
},
{
layerId = "07F2E3F0-ED06-4523-9B4E-21C099677EF3";
shapes = (
{
closed = 1;
nodes = (
(389,1042,l),
(492,1410,l),
(420,1410,l),
(326,1042,l)
);
}
);
width = 405;
}
);
leftKerningGroup = _tonos2;
rightKerningGroup = _tonos;
unicode = 39;
},
{
glyphname = parenleft;
layers = (
{
layerId = "47B14137-3610-4366-97F9-C15552AB4A93";
shapes = (
{
closed = 1;
nodes = (
(479,-125,l),
(451,-4,o),
(439,115,o),
(439,247,cs),
(439,474,o),
(486,705,o),
(572,922,cs),
(657,1140,o),
(782,1335,o),
(939,1493,c),
(637,1610,l),
(468,1419,o),
(332,1209,o),
(239,984,cs),
(146,756,o),
(96,519,o),
(96,268,cs),
(96,100,o),
(113,-62,o),
(158,-230,c)
);
}
);
width = 730;
},
{
layerId = "DCE18E71-776F-477B-AB8E-147A8D0BE437";
shapes = (
{
closed = 1;
nodes = (
(384,-171,l),
(354,-42,o),
(338,81,o),
(338,221,cs),
(338,454,o),
(385,699,o),
(474,933,cs),
(564,1167,o),
(695,1377,o),
(863,1542,c),
(714,1610,l),
(542,1427,o),
(405,1212,o),
(310,977,cs),
(215,742,o),
(165,494,o),
(165,242,cs),
(165,80,o),
(181,-76,o),
(225,-230,c)
);
}
);
width = 686;
},
{
layerId = "07F2E3F0-ED06-4523-9B4E-21C099677EF3";
shapes = (
{
closed = 1;
nodes = (
(321,-202,l),
(290,-67,o),
(271,59,o),
(271,205,cs),
(271,441,o),
(316,696,o),
(410,940,c),
(502,1183,o),
(636,1405,o),
(812,1575,c),
(765,1610,l),
(592,1433,o),
(453,1214,o),
(357,973,cs),
(260,732,o),
(210,478,o),
(210,226,cs),
(210,65,o),
(226,-85,o),
(269,-230,c)
);
}
);
width = 657;
}
);
rightKerningGroup = _parenleft;
unicode = 40;
},
{
glyphname = parenright;
layers = (
{
layerId = "47B14137-3610-4366-97F9-C15552AB4A93";
shapes = (
{
closed = 1;
nodes = (
(188,-230,l),
(359,-37,o),
(493,170,o),
(586,398,cs),
(678,627,o),
(728,864,o),
(728,1112,cs),
(728,1280,o),
(709,1442,o),
(667,1610,c),
(344,1505,l),
(375,1387,o),
(385,1266,o),
(385,1133,cs),
(385,906,o),
(338,675,o),
(253,459,cs),
(210,350,o),
(159,249,o),
(96,152,cs),
(33,55,o),
(-35,-34,o),
(-114,-111,c)
);
}
);
width = 730;
},
{
layerId = "DCE18E71-776F-477B-AB8E-147A8D0BE437";
shapes = (
{
closed = 1;
nodes = (
(80,-230,l),
(253,-45,o),
(389,168,o),
(484,405,cs),
(578,641,o),
(628,889,o),
(628,1138,cs),
(628,1301,o),
(610,1456,o),
(569,1610,c),
(408,1551,l),
(440,1425,o),
(455,1300,o),
(455,1159,cs),
(455,926,o),
(409,682,o),
(319,449,c),
(275,332,o),
(221,223,o),
(154,118,cs),
(88,14,o),
(15,-79,o),
(-70,-160,c)
);
}
);
width = 686;
},
{
layerId = "07F2E3F0-ED06-4523-9B4E-21C099677EF3";
shapes = (
{
closed = 1;
nodes = (
(7,-230,l),
(183,-51,o),
(319,166,o),
(415,408,cs),
(512,650,o),
(562,905,o),
(562,1154,cs),
(562,1314,o),
(544,1465,o),
(503,1610,c),
(450,1582,l),
(482,1450,o),
(502,1322,o),
(502,1175,cs),
(502,939,o),
(456,685,o),
(363,442,cs),
(317,320,o),
(262,205,o),
(193,96,cs),
(124,-14,o),
(49,-108,o),
(-41,-193,c)
);
}
);
width = 657;
}
);
leftKerningGroup = _parenright;
unicode = 41;
},
{
glyphname = asterisk;
layers = (
{
layerId = "47B14137-3610-4366-97F9-C15552AB4A93";
shapes = (
{
closed = 1;
nodes = (
(630,658,l),
(701,382,l),
(1050,504,l),
(921,756,l),
(1205,749,l),
(1187,1115,l),
(907,1075,l),
(1011,1338,l),
(653,1434,l),
(608,1157,l),
(387,1333,l),
(183,1026,l),
(430,891,l),
(194,735,l),
(428,457,l)
);
}
);
width = 1188;
},
{
layerId = "DCE18E71-776F-477B-AB8E-147A8D0BE437";
shapes = (
{
closed = 1;
nodes = (
(648,866,l),
(736,577,l),
(919,640,l),
(793,918,l),
(1098,917,l),
(1087,1109,l),
(787,1079,l),
(882,1364,l),
(700,1414,l),
(636,1117,l),
(392,1297,l),
(284,1136,l),
(547,984,l),
(303,806,l),
(422,662,l)
);
}
);
width = 1088;
},
{
layerId = "07F2E3F0-ED06-4523-9B4E-21C099677EF3";
shapes = (
{
closed = 1;
nodes = (
(660,1004,l),
(759,706,l),
(831,732,l),
(708,1026,l),
(1026,1028,l),
(1021,1106,l),
(708,1081,l),
(796,1380,l),
(731,1401,l),
(654,1090,l),
(395,1273,l),
(351,1209,l),
(624,1045,l),
(375,854,l),
(418,798,l)
);
}
);
width = 1022;
}
);
leftKerningGroup = _degree2;
rightKerningGroup = _degree;
unicode = 42;
},
{
glyphname = plus;
layers = (
{
layerId = "47B14137-3610-4366-97F9-C15552AB4A93";
shapes = (
{
closed = 1;
nodes = (
(677,113,l),
(792,538,l),
(1231,538,l),
(1301,802,l),
(862,802,l),
(977,1227,l),
(702,1227,l),
(586,802,l),
(146,802,l),
(76,538,l),
(516,538,l),
(401,113,l)
);
}
);
width = 1296;
},
{
layerId = "DCE18E71-776F-477B-AB8E-147A8D0BE437";
shapes = (
{
closed = 1;
nodes = (
(644,187,l),
(752,592,l),
(1177,592,l),
(1216,740,l),
(791,740,l),
(900,1145,l),
(746,1145,l),
(637,740,l),
(213,740,l),
(174,592,l),
(598,592,l),
(490,187,l)
);
}
);
width = 1296;
},
{
layerId = "07F2E3F0-ED06-4523-9B4E-21C099677EF3";
shapes = (
{
closed = 1;
nodes = (
(622,237,l),
(727,628,l),
(1141,628,l),
(1159,698,l),
(744,698,l),
(849,1090,l),
(775,1090,l),
(672,698,l),
(257,698,l),
(239,628,l),
(653,628,l),
(549,237,l)
);
}
);
width = 1296;
}
);
leftKerningGroup = _plus2;
rightKerningGroup = _plus;
unicode = 43;
},
{
glyphname = hyphen;
layers = (
{
layerId = "47B14137-3610-4366-97F9-C15552AB4A93";
shapes = (
{
closed = 1;
nodes = (
(675,395,l),
(768,739,l),
(151,739,l),
(58,395,l)
);
}
);
width = 799;
},
{
layerId = "DCE18E71-776F-477B-AB8E-147A8D0BE437";
shapes = (
{
closed = 1;
nodes = (
(649,476,l),
(694,648,l),
(164,648,l),
(119,476,l)
);
}
);
width = 775;
},
{
layerId = "07F2E3F0-ED06-4523-9B4E-21C099677EF3";
shapes = (
{
closed = 1;
nodes = (
(631,530,l),
(644,588,l),
(172,588,l),
(159,530,l)
);
}
);
width = 759;
}
);
leftKerningGroup = _hyphen2;
rightKerningGroup = _hyphen;
unicode = 45;
},
{
glyphname = slash;
layers = (
{
layerId = "47B14137-3610-4366-97F9-C15552AB4A93";
shapes = (
{
closed = 1;
nodes = (
(1201,1431,l),
(931,1610,l),
(-155,-50,l),
(115,-230,l)
);
}
);
width = 947;
},
{
layerId = "DCE18E71-776F-477B-AB8E-147A8D0BE437";
shapes = (
{
closed = 1;
nodes = (
(1171,1513,l),
(1030,1610,l),
(-150,-136,l),
(-6,-230,l)
);
}
);
width = 909;
},
{
layerId = "07F2E3F0-ED06-4523-9B4E-21C099677EF3";
shapes = (
{
closed = 1;
nodes = (
(1150,1568,l),
(1095,1610,l),
(-147,-193,l),
(-87,-230,l)
);
}
);
width = 884;
}
);
unicode = 47;
},
{
glyphname = zero;
layers = (
{
layerId = "47B14137-3610-4366-97F9-C15552AB4A93";
shapes = (
{
closed = 1;
nodes = (
(1008,-30,o),
(1244,500,o),
(1244,893,cs),
(1244,1228,o),
(1063,1440,o),
(751,1440,cs),
(295,1440,o),
(58,910,o),
(58,518,cs),
(58,185,o),
(242,-30,o),
(553,-30,cs)
);
},
{
closed = 1;
nodes = (
(459,308,o),
(419,407,o),
(419,523,cs),
(419,704,o),
(502,1102,o),
(723,1102,cs),
(842,1102,o),
(886,1007,o),
(886,890,cs),
(886,709,o),
(800,308,o),
(579,308,cs)
);
}
);
width = 1200;
},
{
layerId = "DCE18E71-776F-477B-AB8E-147A8D0BE437";
shapes = (
{
closed = 1;
nodes = (
(967,-30,o),
(1215,504,o),
(1215,900,cs),
(1215,1200,o),
(1066,1440,o),
(772,1440,cs),
(335,1440,o),
(100,883,o),
(100,507,cs),
(100,209,o),
(251,-30,o),
(543,-30,cs)
);
},
{
closed = 1;
nodes = (
(372,152,o),
(295,315,o),
(295,502,cs),
(295,775,o),
(441,1258,o),
(751,1258,cs),
(944,1258,o),
(1020,1102,o),
(1020,911,cs),
(1020,639,o),
(875,152,o),
(563,152,cs)
);
}
);
width = 1200;
},
{
layerId = "07F2E3F0-ED06-4523-9B4E-21C099677EF3";
shapes = (
{
closed = 1;
nodes = (
(938,-30,o),
(1196,506,o),
(1196,904,cs),
(1196,1181,o),
(1068,1440,o),
(787,1440,cs),
(360,1440,o),
(125,865,o),
(125,500,cs),
(125,226,o),
(257,-30,o),
(536,-30,cs)
);
},
{
closed = 1;
nodes = (
(314,47,o),
(212,254,o),
(212,489,cs),
(212,823,o),
(399,1362,o),
(769,1362,cs),
(1012,1362,o),
(1109,1164,o),
(1109,924,cs),
(1109,592,o),
(923,47,o),
(553,47,cs)
);
}
);
width = 1200;
}
);
leftKerningGroup = _plus2;
rightKerningGroup = _plus;
unicode = 48;
},
{
glyphname = one;
layers = (
{
layerId = "47B14137-3610-4366-97F9-C15552AB4A93";
shapes = (
{
closed = 1;
nodes = (
(1020,0,l),
(1107,354,l),
(785,354,l),
(1048,1410,l),
(977,1410,l),
(216,1156,l),
(300,853,l),
(593,946,l),
(443,354,l),
(81,354,l),
(-7,0,l)
);
}
);
width = 1200;
},
{
layerId = "DCE18E71-776F-477B-AB8E-147A8D0BE437";
shapes = (
{
closed = 1;
nodes = (
(962,0,l),
(1006,184,l),
(654,184,l),
(960,1410,l),
(896,1410,l),
(300,1200,l),
(347,1043,l),
(722,1176,l),
(471,184,l),
(81,184,l),
(35,0,l)
);
}
);
width = 1200;
},
{
layerId = "07F2E3F0-ED06-4523-9B4E-21C099677EF3";
shapes = (
{
closed = 1;
nodes = (
(922,0,l),
(938,70,l),
(567,70,l),
(900,1410,l),
(842,1410,l),
(355,1228,l),
(380,1170,l),
(807,1329,l),
(490,70,l),
(80,70,l),
(62,0,l)
);
}
);
width = 1200;
}
);
leftKerningGroup = _plus2;
rightKerningGroup = _plus;
unicode = 49;
},
{
glyphname = two;
layers = (
{
layerId = "47B14137-3610-4366-97F9-C15552AB4A93";
shapes = (
{
closed = 1;
nodes = (
(417,857,l),
(483,963,o),
(620,1137,o),
(754,1137,cs),
(828,1137,o),
(890,1102,o),
(890,1023,cs),
(890,1002,o),
(886,979,o),
(879,959,c),
(826,787,o),
(217,394,o),
(39,286,c),
(-37,0,l),
(976,0,l),
(1060,317,l),
(596,317,l),
(814,412,o),
(1089,589,o),
(1204,822,cs),
(1238,890,o),
(1259,964,o),
(1259,1042,cs),
(1259,1319,o),
(1024,1440,o),
(769,1440,cs),
(468,1440,o),
(265,1254,o),
(130,1012,c)
);
}
);
width = 1200;
},
{
layerId = "DCE18E71-776F-477B-AB8E-147A8D0BE437";
shapes = (
{
closed = 1;
nodes = (
(407,1012,l),
(468,1147,o),
(634,1279,o),
(782,1279,cs),
(956,1279,o),
(1050,1216,o),
(1050,1091,cs),
(1050,1038,o),
(1029,975,o),
(1004,927,c),
(885,685,o),
(290,298,o),
(38,152,c),
(-3,0,l),
(941,0,l),
(989,174,l),
(353,174,l),
(579,295,o),
(986,557,o),
(1159,836,c),
(1211,918,o),
(1243,1004,o),
(1243,1086,cs),
(1243,1332,o),
(1078,1440,o),
(791,1440,cs),
(554,1440,o),
(347,1292,o),
(241,1087,c)
);
}
);
width = 1200;
},
{
layerId = "07F2E3F0-ED06-4523-9B4E-21C099677EF3";
shapes = (
{
closed = 1;
nodes = (
(400,1117,l),
(456,1268,o),
(643,1373,o),
(801,1373,cs),
(1041,1373,o),
(1158,1292,o),
(1158,1139,cs),
(1158,1062,o),
(1124,972,o),
(1086,906,cs),
(925,615,o),
(337,236,o),
(37,63,c),
(19,0,l),
(920,0,l),
(940,79,l),
(190,79,l),
(422,219,o),
(915,536,o),
(1129,846,cs),
(1192,937,o),
(1230,1031,o),
(1230,1118,cs),
(1230,1340,o),
(1114,1440,o),
(807,1440,cs),
(610,1440,o),
(401,1317,o),
(314,1139,c)
);
}
);
width = 1200;
}
);
leftKerningGroup = _two.tnum2;
rightKerningGroup = _two.tnum;
unicode = 50;
},
{
glyphname = three;
layers = (
{
layerId = "47B14137-3610-4366-97F9-C15552AB4A93";
shapes = (
{
closed = 1;
nodes = (
(790,-32,o),
(1085,154,o),
(1085,479,cs),
(1085,646,o),
(990,769,o),
(838,816,c),
(1207,1120,l),
(1284,1410,l),
(354,1410,l),
(269,1090,l),
(750,1090,l),
(375,827,l),
(407,597,l),
(446,605,o),
(490,607,o),
(532,607,cs),
(632,607,o),
(731,573,o),
(731,471,cs),
(731,353,o),
(618,299,o),
(512,299,cs),
(389,299,o),
(249,348,o),
(193,450,c),
(12,166,l),
(91,31,o),
(347,-32,o),
(496,-32,cs)
);
}
);
width = 1200;
},
{
layerId = "DCE18E71-776F-477B-AB8E-147A8D0BE437";
shapes = (
{
closed = 1;
nodes = (
(783,-30,o),
(1053,164,o),
(1053,472,cs),
(1053,698,o),
(861,799,o),
(668,822,c),
(1208,1252,l),
(1250,1410,l),
(379,1410,l),
(333,1236,l),
(950,1236,l),
(397,806,l),
(418,686,l),
(448,691,o),
(487,692,o),
(525,692,cs),
(680,692,o),
(861,641,o),
(861,461,cs),
(861,264,o),
(699,150,o),
(508,150,cs),
(375,150,o),
(227,198,o),
(145,294,c),
(40,138,l),
(138,23,o),
(354,-30,o),
(498,-30,cs)
);
}
);
width = 1200;
},
{
layerId = "07F2E3F0-ED06-4523-9B4E-21C099677EF3";
shapes = (
{
closed = 1;
nodes = (
(777,-28,o),
(1032,170,o),
(1032,468,cs),
(1032,733,o),
(774,819,o),
(554,825,c),
(1208,1339,l),
(1227,1410,l),
(395,1410,l),
(376,1333,l),
(1082,1333,l),
(412,790,l),
(425,743,l),
(449,748,o),
(484,748,o),
(519,748,cs),
(711,748,o),
(946,687,o),
(946,455,cs),
(946,203,o),
(752,50,o),
(506,50,cs),
(364,50,o),
(211,97,o),
(112,189,c),
(58,119,l),
(169,17,o),
(358,-28,o),
(499,-28,cs)
);
}
);
width = 1200;
}
);
leftKerningGroup = _plus2;
rightKerningGroup = _plus;
unicode = 51;
},
{
glyphname = four;
layers = (
{
layerId = "47B14137-3610-4366-97F9-C15552AB4A93";
shapes = (
{
closed = 1;
nodes = (
(858,0,l),
(921,250,l),
(1091,250,l),
(1172,565,l),
(1003,565,l),
(1066,817,l),
(751,817,l),
(689,565,l),
(476,565,l),
(1047,1410,l),
(655,1410,l),
(57,524,l),
(-16,250,l),
(606,250,l),
(544,0,l)
);
}
);
width = 1200;
},
{
layerId = "DCE18E71-776F-477B-AB8E-147A8D0BE437";
shapes = (
{
closed = 1;
nodes = (
(794,0,l),
(870,294,l),
(1083,294,l),
(1127,466,l),
(914,466,l),
(995,786,l),
(821,786,l),
(740,466,l),
(281,466,l),
(1008,1410,l),
(794,1410,l),
(58,450,l),
(19,294,l),
(696,294,l),
(620,0,l)
);
}
);
width = 1200;
},
{
layerId = "07F2E3F0-ED06-4523-9B4E-21C099677EF3";
shapes = (
{
closed = 1;
nodes = (
(752,0,l),
(835,323,l),
(1077,323,l),
(1097,402,l),
(854,402,l),
(947,767,l),
(868,767,l),
(774,402,l),
(151,402,l),
(983,1410,l),
(887,1410,l),
(59,402,l),
(41,323,l),
(755,323,l),
(672,0,l)
);
}
);
width = 1200;
}
);
leftKerningGroup = _plus2;
rightKerningGroup = _plus;
unicode = 52;
},
{
glyphname = five;
layers = (
{
layerId = "47B14137-3610-4366-97F9-C15552AB4A93";
shapes = (
{
closed = 1;
nodes = (
(837,-30,o),
(1082,193,o),
(1082,514,cs),
(1082,780,o),
(887,903,o),
(628,903,cs),
(619,903,o),
(610,903,o),
(601,901,c),
(598,901,l),
(663,1067,l),
(1200,1067,l),
(1289,1410,l),
(487,1410,l),
(246,743,l),
(344,575,l),
(412,598,o),
(470,606,o),
(524,606,cs),
(607,606,o),
(722,583,o),
(722,474,cs),
(722,355,o),
(624,301,o),
(521,301,cs),
(394,301,o),
(269,337,o),
(192,447,c),
(19,160,l),
(132,25,o),
(345,-30,o),
(509,-30,cs)
);
}
);
width = 1200;
},
{
layerId = "DCE18E71-776F-477B-AB8E-147A8D0BE437";
shapes = (
{
closed = 1;
nodes = (
(794,-30,o),
(1047,183,o),
(1047,499,cs),
(1047,757,o),
(844,876,o),
(613,876,cs),
(569,876,o),
(526,870,o),
(479,858,c),
(476,858,l),
(614,1229,l),
(1211,1229,l),
(1256,1410,l),
(516,1410,l),
(275,744,l),
(320,673,l),
(403,701,o),
(477,712,o),
(544,712,cs),
(689,712,o),
(849,648,o),
(849,474,cs),
(849,274,o),
(694,150,o),
(508,150,cs),
(381,150,o),
(236,199,o),
(147,296,c),
(45,137,l),
(147,25,o),
(352,-30,o),
(495,-30,cs)
);
}
);
width = 1200;
},
{
layerId = "07F2E3F0-ED06-4523-9B4E-21C099677EF3";
shapes = (
{
closed = 1;
nodes = (
(766,-30,o),
(1024,176,o),
(1024,489,cs),
(1024,741,o),
(816,858,o),
(603,858,cs),
(534,858,o),
(469,849,o),
(400,830,c),
(397,830,l),
(581,1337,l),
(1217,1337,l),
(1234,1410,l),
(534,1410,l),
(294,744,l),
(304,737,l),
(397,768,o),
(480,782,o),
(557,782,cs),
(743,782,o),
(932,693,o),
(932,474,cs),
(932,219,o),
(741,48,o),
(500,48,cs),
(372,48,o),
(213,108,o),
(117,194,c),
(61,121,l),
(157,24,o),
(356,-30,o),
(486,-30,cs)
);
}
);
width = 1200;
}
);
leftKerningGroup = _plus2;
rightKerningGroup = _plus;
unicode = 53;
},
{
glyphname = six;
layers = (
{
layerId = "47B14137-3610-4366-97F9-C15552AB4A93";
shapes = (
{
closed = 1;
nodes = (
(894,-30,o),
(1146,203,o),
(1146,505,cs),
(1146,752,o),
(969,927,o),
(707,927,cs),
(648,927,o),
(592,911,o),
(542,879,c),
(654,1037,o),
(893,1112,o),
(1174,1136,c),
(1159,1440,l),
(587,1440,o),
(67,1068,o),
(67,504,cs),
(67,183,o),
(275,-30,o),
(584,-30,cs)
);
},
{
closed = 1;
nodes = (
(503,285,o),
(441,353,o),
(441,442,cs),
(441,552,o),
(522,628,o),
(618,628,cs),
(708,628,o),
(770,560,o),
(770,472,cs),
(770,365,o),
(690,285,o),
(595,285,cs)
);
}
);
width = 1200;
},
{
layerId = "DCE18E71-776F-477B-AB8E-147A8D0BE437";
shapes = (
{
closed = 1;
nodes = (
(880,-30,o),
(1134,206,o),
(1134,502,cs),
(1134,738,o),
(951,903,o),
(701,903,cs),
(577,903,o),
(462,852,o),
(373,761,c),
(495,1067,o),
(809,1264,o),
(1207,1272,c),
(1206,1440,l),
(629,1440,o),
(114,1037,o),
(114,450,cs),
(114,156,o),
(295,-30,o),
(588,-30,cs)
);
},
{
closed = 1;
nodes = (
(420,147,o),
(309,259,o),
(309,410,cs),
(309,598,o),
(464,736,o),
(645,736,cs),
(812,736,o),
(928,620,o),
(928,470,cs),
(928,294,o),
(781,147,o),
(599,147,cs)
);
}
);
width = 1200;
},
{
layerId = "07F2E3F0-ED06-4523-9B4E-21C099677EF3";
shapes = (
{
closed = 1;
nodes = (
(871,-30,o),
(1126,208,o),
(1126,499,cs),
(1126,728,o),
(937,887,o),
(697,887,cs),
(530,887,o),
(376,812,o),
(259,682,c),
(390,1086,o),
(752,1365,o),
(1228,1360,c),
(1238,1440,l),
(658,1440,o),
(143,1016,o),
(143,414,cs),
(143,140,o),
(308,-30,o),
(590,-30,cs)
);
},
{
closed = 1;
nodes = (
(363,54,o),
(222,194,o),
(222,389,cs),
(222,629,o),
(426,809,o),
(662,809,cs),
(881,809,o),
(1034,661,o),
(1034,468,cs),
(1034,246,o),
(842,54,o),
(601,54,cs)
);
}
);
width = 1200;
}
);
leftKerningGroup = _plus2;
rightKerningGroup = _plus;
unicode = 54;
},
{
glyphname = seven;
layers = (
{
layerId = "47B14137-3610-4366-97F9-C15552AB4A93";
shapes = (
{
closed = 1;
nodes = (
(483,0,l),
(1272,1143,l),
(1339,1410,l),
(354,1410,l),
(264,1055,l),
(802,1055,l),
(60,0,l)
);
}
);
width = 1200;
},
{
layerId = "DCE18E71-776F-477B-AB8E-147A8D0BE437";
shapes = (
{
closed = 1;
nodes = (
(353,0,l),
(1248,1263,l),
(1285,1410,l),
(410,1410,l),
(363,1225,l),
(1007,1225,l),
(129,0,l)
);
}
);
width = 1200;
},
{
layerId = "07F2E3F0-ED06-4523-9B4E-21C099677EF3";
shapes = (
{
closed = 1;
nodes = (
(267,0,l),
(1231,1341,l),
(1249,1410,l),
(448,1410,l),
(430,1339,l),
(1141,1339,l),
(173,0,l)
);
}
);
width = 1200;
}
);
leftKerningGroup = _plus2;
rightKerningGroup = _plus;
unicode = 55;
},
{
glyphname = eight;
layers = (
{
layerId = "47B14137-3610-4366-97F9-C15552AB4A93";
shapes = (
{
closed = 1;
nodes = (
(792,-30,o),
(1109,129,o),
(1109,441,cs),
(1109,557,o),
(1047,654,o),
(950,715,c),
(1107,771,o),
(1230,908,o),
(1230,1081,cs),
(1230,1325,o),
(1004,1440,o),
(787,1440,cs),
(530,1440,o),
(266,1296,o),
(266,1010,cs),
(266,922,o),
(315,824,o),
(387,773,c),
(195,722,o),
(42,548,o),
(42,346,cs),
(42,81,o),
(283,-30,o),
(517,-30,cs)
);
},
{
closed = 1;
nodes = (
(479,273,o),
(405,327,o),
(405,417,cs),
(405,524,o),
(495,604,o),
(599,604,cs),
(686,604,o),
(761,560,o),
(761,465,cs),
(761,354,o),
(674,273,o),
(564,273,cs)
);
},
{
closed = 1;
nodes = (
(665,911,o),
(598,952,o),
(598,1029,cs),
(598,1118,o),
(675,1180,o),
(760,1180,cs),
(828,1180,o),
(890,1140,o),
(890,1066,cs),
(890,981,o),
(823,911,o),
(736,911,cs)
);
}
);
width = 1200;
},
{
layerId = "DCE18E71-776F-477B-AB8E-147A8D0BE437";
shapes = (
{
closed = 1;
nodes = (
(801,-30,o),
(1052,148,o),
(1052,428,cs),
(1052,560,o),
(987,651,o),
(877,719,c),
(1045,771,o),
(1176,912,o),
(1176,1095,cs),
(1176,1317,o),
(983,1440,o),
(777,1440,cs),
(539,1440,o),
(317,1284,o),
(317,1030,cs),
(317,930,o),
(374,826,o),
(458,772,c),
(255,720,o),
(106,554,o),
(106,339,cs),
(106,90,o),
(311,-30,o),
(539,-30,cs)
);
},
{
closed = 1;
nodes = (
(423,141,o),
(298,218,o),
(298,367,cs),
(298,543,o),
(427,661,o),
(600,661,cs),
(742,661,o),
(863,586,o),
(863,432,cs),
(863,256,o),
(730,141,o),
(559,141,cs)
);
},
{
closed = 1;
nodes = (
(603,833,o),
(499,900,o),
(499,1039,cs),
(499,1187,o),
(620,1282,o),
(762,1282,cs),
(889,1282,o),
(993,1207,o),
(993,1073,cs),
(993,924,o),
(875,833,o),
(732,833,cs)
);
}
);
width = 1200;
},
{
layerId = "07F2E3F0-ED06-4523-9B4E-21C099677EF3";
shapes = (
{
closed = 1;
nodes = (
(793,-30,o),
(1029,153,o),
(1029,415,cs),
(1029,555,o),
(954,645,o),
(837,713,c),
(1015,761,o),
(1161,898,o),
(1161,1090,cs),
(1161,1303,o),
(971,1423,o),
(775,1423,cs),
(552,1423,o),
(333,1270,o),
(333,1031,cs),
(333,922,o),
(399,816,o),
(493,762,c),
(280,715,o),
(117,558,o),
(117,331,cs),
(117,89,o),
(322,-30,o),
(544,-30,cs)
);
},
{
closed = 1;
nodes = (
(376,52,o),
(201,139,o),
(201,329,cs),
(201,558,o),
(378,688,o),
(594,688,cs),
(769,688,o),
(940,602,o),
(940,406,cs),
(940,179,o),
(757,52,o),
(546,52,cs)
);
},
{
closed = 1;
nodes = (
(564,770,o),
(419,850,o),
(419,1034,cs),
(419,1226,o),
(590,1334,o),
(766,1334,cs),
(931,1334,o),
(1077,1247,o),
(1077,1066,cs),
(1077,870,o),
(910,770,o),
(731,770,cs)
);
}
);
width = 1200;
}
);
leftKerningGroup = _plus2;
rightKerningGroup = _plus;
unicode = 56;
},
{
glyphname = nine;
layers = (
{
layerId = "47B14137-3610-4366-97F9-C15552AB4A93";
shapes = (
{
closed = 1;
nodes = (
(117,-30,l),
(683,-30,o),
(1199,345,o),
(1199,917,cs),
(1199,1231,o),
(992,1440,o),
(682,1440,cs),
(379,1440,o),
(143,1223,o),
(143,928,cs),
(143,682,o),
(314,506,o),
(570,506,cs),
(627,506,o),
(679,524,o),
(725,555,c),
(613,382,o),
(379,300,o),
(103,274,c)
);
},
{
closed = 1;
nodes = (
(575,806,o),
(519,869,o),
(519,950,cs),
(519,1051,o),
(592,1125,o),
(683,1125,cs),
(766,1125,o),
(827,1061,o),
(827,980,cs),
(827,878,o),
(750,806,o),
(660,806,cs)
);
}
);
width = 1200;
},
{
layerId = "DCE18E71-776F-477B-AB8E-147A8D0BE437";
shapes = (
{
closed = 1;
nodes = (
(103,-30,l),
(673,-30,o),
(1186,378,o),
(1186,972,cs),
(1186,1259,o),
(1003,1440,o),
(710,1440,cs),
(424,1440,o),
(189,1219,o),
(189,932,cs),
(189,696,o),
(372,531,o),
(611,531,cs),
(739,531,o),
(843,582,o),
(927,674,c),
(809,351,o),
(495,146,o),
(104,138,c)
);
},
{
closed = 1;
nodes = (
(504,699,o),
(396,804,o),
(396,952,cs),
(396,1122,o),
(537,1263,o),
(713,1263,cs),
(884,1263,o),
(991,1157,o),
(991,1013,cs),
(991,833,o),
(841,699,o),
(668,699,cs)
);
}
);
width = 1200;
},
{
layerId = "07F2E3F0-ED06-4523-9B4E-21C099677EF3";
shapes = (
{
closed = 1;
nodes = (
(94,-30,l),
(667,-30,o),
(1178,399,o),
(1178,1007,cs),
(1178,1275,o),
(1010,1440,o),
(729,1440,cs),
(452,1440,o),
(221,1216,o),
(221,934,cs),
(221,706,o),
(410,547,o),
(636,547,cs),
(813,547,o),
(952,621,o),
(1061,752,c),
(938,332,o),
(572,44,o),
(104,49,c)
);
},
{
closed = 1;
nodes = (
(457,626,o),
(313,759,o),
(313,953,cs),
(313,1169,o),
(498,1355,o),
(732,1355,cs),
(962,1355,o),
(1100,1221,o),
(1100,1034,cs),
(1100,800,o),
(901,626,o),
(672,626,cs)
);
}
);
width = 1200;
}
);
leftKerningGroup = _plus2;
rightKerningGroup = _plus;
unicode = 57;
},
{
glyphname = less;
layers = (
{
layerId = "47B14137-3610-4366-97F9-C15552AB4A93";
shapes = (
{
closed = 1;
nodes = (
(1151,325,l),
(510,609,l),
(1374,928,l),
(1282,1180,l),
(137,764,l),
(67,498,l),
(1045,73,l)
);
}
);
width = 1296;
},
{
layerId = "DCE18E71-776F-477B-AB8E-147A8D0BE437";
shapes = (
{
closed = 1;
nodes = (
(1104,343,l),
(422,644,l),
(1306,963,l),
(1251,1114,l),
(210,728,l),
(172,583,l),
(1039,196,l)
);
}
);
width = 1296;
},
{
layerId = "07F2E3F0-ED06-4523-9B4E-21C099677EF3";
shapes = (
{
closed = 1;
nodes = (
(1071,355,l),
(363,666,l),
(1259,986,l),
(1230,1070,l),
(258,704,l),
(242,639,l),
(1036,278,l)
);
}
);
width = 1296;
}
);
leftKerningGroup = _plus2;
rightKerningGroup = _plus;
unicode = 60;
},
{
glyphname = equal;
layers = (
{
layerId = "47B14137-3610-4366-97F9-C15552AB4A93";
shapes = (
{
closed = 1;
nodes = (
(1298,782,l),
(1368,1046,l),
(213,1046,l),
(143,782,l)
);
},
{
closed = 1;
nodes = (
(1169,295,l),
(1238,559,l),
(83,559,l),
(14,295,l)
);
}
);
width = 1296;
},
{
layerId = "DCE18E71-776F-477B-AB8E-147A8D0BE437";
shapes = (
{
closed = 1;
nodes = (
(1230,782,l),
(1269,930,l),
(266,930,l),
(227,782,l)
);
},
{
closed = 1;
nodes = (
(1128,405,l),
(1167,553,l),
(164,553,l),
(124,405,l)
);
}
);
width = 1296;
},
{
layerId = "07F2E3F0-ED06-4523-9B4E-21C099677EF3";
shapes = (
{
closed = 1;
nodes = (
(1185,782,l),
(1203,853,l),
(301,853,l),
(283,782,l)
);
},
{
closed = 1;
nodes = (
(1100,478,l),
(1119,549,l),
(217,549,l),
(197,478,l)
);
}
);
width = 1296;
}
);
leftKerningGroup = _plus2;
rightKerningGroup = _plus;
unicode = 61;
},
{
glyphname = greater;
layers = (
{
layerId = "47B14137-3610-4366-97F9-C15552AB4A93";
shapes = (
{
closed = 1;
nodes = (
(1220,498,l),
(1290,764,l),
(312,1186,l),
(206,937,l),
(847,653,l),
(-17,332,l),
(75,82,l)
);
}
);
width = 1296;
},
{
layerId = "DCE18E71-776F-477B-AB8E-147A8D0BE437";
shapes = (
{
closed = 1;
nodes = (
(1174,584,l),
(1212,730,l),
(345,1113,l),
(281,969,l),
(963,668,l),
(79,346,l),
(134,198,l)
);
}
);
width = 1296;
},
{
layerId = "07F2E3F0-ED06-4523-9B4E-21C099677EF3";
shapes = (
{
closed = 1;
nodes = (
(1144,641,l),
(1159,707,l),
(366,1065,l),
(332,990,l),
(1039,678,l),
(143,356,l),
(173,274,l)
);
}
);
width = 1296;
}
);
leftKerningGroup = _plus2;
rightKerningGroup = _plus;
unicode = 62;
},
{
glyphname = question;
layers = (
{
layerId = "47B14137-3610-4366-97F9-C15552AB4A93";
shapes = (
{
closed = 1;
nodes = (
(628,524,l),
(602,551,o),
(560,594,o),
(560,636,cs),
(560,685,o),
(604,719,o),
(668,744,cs),
(817,803,ls),
(971,863,o),
(1096,944,o),
(1096,1123,cs),
(1096,1384,o),
(772,1470,o),
(562,1470,cs),
(469,1470,o),
(299,1461,o),
(221,1407,c),
(210,1078,l),
(281,1102,o),
(354,1124,o),
(427,1124,cs),
(474,1124,o),
(584,1119,o),
(584,1052,cs),
(584,995,o),
(533,962,o),
(470,934,cs),
(365,887,ls),
(282,850,o),
(209,794,o),
(209,686,cs),
(209,607,o),
(291,543,o),
(348,501,c)
);
},
{
closed = 1;
nodes = (
(438,-30,o),
(564,80,o),
(564,224,cs),
(564,349,o),
(454,414,o),
(340,414,cs),
(199,414,o),
(77,308,o),
(77,162,cs),
(77,39,o),
(183,-30,o),
(297,-30,cs)
);
}
);
width = 1049;
},
{
layerId = "DCE18E71-776F-477B-AB8E-147A8D0BE437";
shapes = (
{
closed = 1;
nodes = (
(491,454,l),
(455,492,o),
(399,536,o),
(399,594,cs),
(399,650,o),
(456,691,o),
(530,722,cs),
(702,794,ls),
(864,862,o),
(1020,952,o),
(1020,1148,cs),
(1020,1384,o),
(728,1470,o),
(535,1470,cs),
(437,1470,o),
(319,1450,o),
(234,1400,c),
(249,1231,l),
(320,1271,o),
(401,1290,o),
(482,1290,cs),
(590,1290,o),
(788,1251,o),
(788,1110,cs),
(788,1012,o),
(675,964,o),
(583,925,cs),
(433,862,ls),
(315,812,o),
(208,749,o),
(208,624,cs),
(208,544,o),
(272,480,o),
(328,432,c)
);
},
{
closed = 1;
nodes = (
(335,-23,o),
(413,43,o),
(413,131,cs),
(413,208,o),
(345,249,o),
(274,249,cs),
(190,249,o),
(113,185,o),
(113,97,cs),
(113,21,o),
(179,-23,o),
(250,-23,cs)
);
}
);
width = 977;
},
{
layerId = "07F2E3F0-ED06-4523-9B4E-21C099677EF3";
shapes = (
{
closed = 1;
nodes = (
(389,407,l),
(346,454,o),
(274,512,o),
(274,582,cs),
(274,640,o),
(315,677,o),
(428,726,cs),
(615,806,ls),
(785,878,o),
(969,953,o),
(969,1161,cs),
(969,1384,o),
(703,1470,o),
(520,1470,cs),
(421,1470,o),
(331,1444,o),
(241,1397,c),
(270,1326,l),
(341,1375,o),
(426,1392,o),
(513,1392,cs),
(654,1392,o),
(887,1340,o),
(887,1158,cs),
(887,1032,o),
(767,951,o),
(653,904,cs),
(473,828,ls),
(330,770,o),
(201,721,o),
(201,583,cs),
(201,502,o),
(251,439,o),
(307,387,c)
);
},
{
closed = 1;
nodes = (
(278,-20,o),
(330,24,o),
(330,80,cs),
(330,130,o),
(285,158,o),
(238,158,cs),
(184,158,o),
(132,118,o),
(132,61,cs),
(132,11,o),
(177,-20,o),
(225,-20,cs)
);
}
);
width = 936;
}
);
unicode = 63;
},
{
glyphname = at;
layers = (
{
layerId = "47B14137-3610-4366-97F9-C15552AB4A93";
shapes = (
{
closed = 1;
nodes = (
(968,-234,o),
(1066,-219,o),
(1162,-191,cs),
(1258,-162,o),
(1346,-120,o),
(1426,-64,c),
(1347,113,l),
(1278,64,o),
(1202,24,o),
(1119,-3,cs),
(1036,-30,o),
(950,-43,o),
(861,-43,cs),
(687,-43,o),
(545,11,o),
(444,103,cs),
(343,196,o),
(285,323,o),
(285,480,cs),
(285,648,o),
(346,790,o),
(453,894,cs),
(561,997,o),
(705,1056,o),
(877,1056,cs),
(1038,1056,o),
(1173,1009,o),
(1269,925,cs),
(1366,840,o),
(1421,721,o),
(1421,576,cs),
(1421,502,o),
(1408,443,o),
(1382,404,c),
(1357,363,o),
(1318,343,o),
(1273,343,cs),
(1241,343,o),
(1220,353,o),
(1205,370,cs),
(1190,388,o),
(1183,416,o),
(1186,449,c),
(1208,841,l),
(1024,841,l),
(1022,788,l),
(954,844,o),
(888,867,o),
(811,867,cs),
(706,867,o),
(614,829,o),
(550,761,cs),
(486,693,o),
(449,600,o),
(449,492,cs),
(449,392,o),
(482,309,o),
(542,249,cs),
(602,189,o),
(683,153,o),
(783,153,cs),
(882,153,o),
(952,187,o),
(1027,263,c),
(1071,190,o),
(1147,153,o),
(1253,153,cs),
(1357,153,o),
(1449,202,o),
(1516,279,cs),
(1584,355,o),
(1626,460,o),
(1626,576,cs),
(1626,775,o),
(1551,939,o),
(1419,1058,cs),
(1286,1177,o),
(1103,1242,o),
(883,1242,cs),
(650,1242,o),
(452,1164,o),
(308,1028,cs),
(163,891,o),
(79,705,o),
(79,486,cs),
(79,273,o),
(157,95,o),
(297,-34,cs),
(437,-162,o),
(632,-234,o),
(864,-234,cs)
);
},
{
closed = 1;
nodes = (
(735,363,o),
(694,408,o),
(694,490,cs),
(694,540,o),
(707,583,o),
(732,611,cs),
(758,640,o),
(793,655,o),
(837,655,cs),
(910,655,o),
(953,610,o),
(953,528,cs),
(953,426,o),
(898,363,o),
(808,363,cs)
);
}
);
width = 1689;
},
{
layerId = "DCE18E71-776F-477B-AB8E-147A8D0BE437";
shapes = (
{
closed = 1;
nodes = (
(979,-234,o),
(1083,-219,o),
(1180,-192,c),
(1276,-163,o),
(1361,-124,o),
(1428,-74,c),
(1376,36,l),
(1320,-9,o),
(1244,-47,o),
(1157,-74,cs),
(1071,-101,o),
(977,-116,o),
(885,-116,cs),
(690,-116,o),
(533,-54,o),
(420,53,cs),
(306,159,o),
(242,307,o),
(242,487,cs),
(242,671,o),
(310,828,o),
(429,944,cs),
(548,1059,o),
(707,1125,o),
(895,1125,cs),
(1074,1125,o),
(1224,1071,o),
(1332,973,cs),
(1440,875,o),
(1502,738,o),
(1502,573,cs),
(1502,478,o),
(1479,398,o),
(1442,342,cs),
(1404,285,o),
(1352,254,o),
(1294,254,cs),
(1245,254,o),
(1216,266,o),
(1198,292,c),
(1179,317,o),
(1172,356,o),
(1176,411,c),
(1199,857,l),
(1073,857,l),
(1070,777,l),
(1005,850,o),
(929,883,o),
(838,883,cs),
(738,883,o),
(648,841,o),
(584,769,cs),
(520,698,o),
(483,600,o),
(483,489,cs),
(483,389,o),
(515,302,o),
(572,239,cs),
(629,176,o),
(705,139,o),
(797,139,cs),
(914,139,o),
(1007,188,o),
(1069,277,c),
(1092,189,o),
(1160,139,o),
(1278,139,cs),
(1377,139,o),
(1463,186,o),
(1526,265,cs),
(1589,343,o),
(1630,450,o),
(1630,575,cs),
(1630,774,o),
(1555,937,o),
(1425,1057,cs),
(1294,1177,o),
(1114,1242,o),
(897,1242,cs),
(670,1242,o),
(478,1164,o),
(337,1027,cs),
(197,890,o),
(114,704,o),
(114,485,cs),
(114,270,o),
(188,93,o),
(324,-35,cs),
(458,-163,o),
(647,-234,o),
(875,-234,cs)
);
},
{
closed = 1;
nodes = (
(695,269,o),
(630,344,o),
(630,486,cs),
(630,568,o),
(650,637,o),
(689,682,cs),
(727,728,o),
(781,751,o),
(851,751,cs),
(971,751,o),
(1039,678,o),
(1039,538,cs),
(1039,368,o),
(958,269,o),
(819,269,cs)
);
}
);
width = 1715;
},
{
layerId = "07F2E3F0-ED06-4523-9B4E-21C099677EF3";
shapes = (
{
closed = 1;
nodes = (
(986,-234,o),
(1095,-219,o),
(1192,-192,cs),
(1288,-164,o),
(1371,-126,o),
(1429,-80,c),
(1395,-15,l),
(1347,-57,o),
(1271,-94,o),
(1182,-122,cs),
(1093,-149,o),
(993,-164,o),
(900,-164,cs),
(692,-164,o),
(525,-98,o),
(404,18,cs),
(282,135,o),
(214,295,o),
(214,491,cs),
(214,686,o),
(286,853,o),
(413,978,cs),
(539,1100,o),
(708,1172,o),
(907,1172,cs),
(1097,1172,o),
(1259,1112,o),
(1374,1005,cs),
(1490,897,o),
(1555,748,o),
(1555,571,cs),
(1555,462,o),
(1527,368,o),
(1482,300,cs),
(1435,232,o),
(1374,194,o),
(1307,194,cs),
(1248,194,o),
(1213,209,o),
(1192,239,cs),
(1172,269,o),
(1165,316,o),
(1169,386,cs),
(1193,867,l),
(1106,867,l),
(1102,770,l),
(1039,853,o),
(954,893,o),
(854,893,cs),
(759,893,o),
(670,848,o),
(606,775,cs),
(542,701,o),
(504,600,o),
(504,487,cs),
(504,387,o),
(536,298,o),
(591,233,cs),
(647,168,o),
(720,129,o),
(806,129,cs),
(935,129,o),
(1043,189,o),
(1096,287,c),
(1107,188,o),
(1168,129,o),
(1294,129,cs),
(1389,129,o),
(1472,174,o),
(1532,255,cs),
(1592,335,o),
(1632,444,o),
(1632,574,cs),
(1632,773,o),
(1557,935,o),
(1428,1056,cs),
(1300,1176,o),
(1121,1242,o),
(906,1242,cs),
(683,1242,o),
(494,1163,o),
(356,1026,cs),
(218,889,o),
(136,703,o),
(136,484,cs),
(136,268,o),
(209,91,o),
(340,-36,cs),
(473,-164,o),
(657,-234,o),
(881,-234,cs)
);
},
{
closed = 1;
nodes = (
(670,207,o),
(586,302,o),
(586,483,cs),
(586,587,o),
(611,672,o),
(660,729,cs),
(706,785,o),
(773,815,o),
(860,815,cs),
(1012,815,o),
(1096,722,o),
(1096,544,cs),
(1096,329,o),
(998,207,o),
(825,207,cs)
);
}
);
width = 1731;
}
);
rightKerningGroup = _at;
unicode = 64;
},
{
glyphname = A;
layers = (
{
layerId = "47B14137-3610-4366-97F9-C15552AB4A93";
shapes = (
{
closed = 1;
nodes = (
(322,0,l),
(473,255,l),
(911,255,l),
(925,0,l),
(1363,0,l),
(1235,1410,l),
(762,1410,l),
(-141,0,l)
);
},
{
closed = 1;
nodes = (
(890,984,l),
(916,586,l),
(645,586,l)
);
}
);
width = 1494;
},
{
layerId = "DCE18E71-776F-477B-AB8E-147A8D0BE437";
shapes = (
{
closed = 1;
nodes = (
(128,0,l),
(351,346,l),
(960,346,l),
(1007,0,l),
(1228,0,l),
(1037,1410,l),
(823,1410,l),
(-108,0,l)
);
},
{
closed = 1;
nodes = (
(866,1157,l),
(952,524,l),
(452,524,l)
);
}
);
width = 1376;
},
{
layerId = "07F2E3F0-ED06-4523-9B4E-21C099677EF3";
shapes = (
{
closed = 1;
nodes = (
(-2,0,l),
(270,407,l),
(993,407,l),
(1060,0,l),
(1139,0,l),
(906,1410,l),
(863,1410,l),
(-86,0,l)
);
},
{
closed = 1;
nodes = (
(850,1272,l),
(974,481,l),
(324,481,l)
);
}
);
width = 1298;
}
);
leftKerningGroup = _A2;
rightKerningGroup = _A;
unicode = 65;
},
{
glyphname = B;
layers = (
{
layerId = "47B14137-3610-4366-97F9-C15552AB4A93";
shapes = (
{
closed = 1;
nodes = (
(686,0,ls),
(839,0,o),
(985,43,o),
(1089,123,cs),
(1195,202,o),
(1264,315,o),
(1264,464,cs),
(1264,528,o),
(1250,583,o),
(1222,635,cs),
(1195,687,o),
(1154,725,o),
(1101,756,c),
(1182,785,o),
(1251,827,o),
(1300,883,cs),
(1349,940,o),
(1378,1009,o),
(1378,1089,cs),
(1378,1190,o),
(1337,1271,o),
(1257,1326,cs),
(1176,1381,o),
(1059,1410,o),
(909,1410,cs),
(394,1410,l),
(16,0,l)
);
},
{
closed = 1;
nodes = (
(572,580,l),
(683,580,ls),
(735,580,o),
(775,570,o),
(803,551,c),
(831,530,o),
(843,500,o),
(843,459,cs),
(843,408,o),
(826,367,o),
(796,337,cs),
(766,307,o),
(722,288,o),
(671,288,cs),
(491,288,l)
);
},
{
closed = 1;
nodes = (
(719,1122,l),
(812,1122,ls),
(923,1122,o),
(976,1085,o),
(976,1008,cs),
(976,970,o),
(961,929,o),
(935,897,cs),
(910,866,o),
(873,846,o),
(830,846,cs),
(643,846,l)
);
}
);
width = 1351;
},
{
layerId = "DCE18E71-776F-477B-AB8E-147A8D0BE437";
shapes = (
{
closed = 1;
nodes = (
(624,0,ls),
(764,0,o),
(892,46,o),
(984,124,cs),
(1074,202,o),
(1133,314,o),
(1133,450,cs),
(1133,512,o),
(1117,569,o),
(1085,621,cs),
(1053,673,o),
(1004,712,o),
(937,740,c),
(1032,762,o),
(1114,807,o),
(1172,868,cs),
(1231,930,o),
(1266,1009,o),
(1266,1092,cs),
(1266,1191,o),
(1227,1271,o),
(1152,1326,cs),
(1077,1381,o),
(971,1410,o),
(835,1410,cs),
(432,1410,l),
(54,0,l)
);
},
{
closed = 1;
nodes = (
(430,645,l),
(669,645,ls),
(746,645,o),
(810,630,o),
(855,597,cs),
(900,564,o),
(923,516,o),
(923,450,cs),
(923,358,o),
(894,288,o),
(840,240,cs),
(786,191,o),
(708,164,o),
(611,164,cs),
(301,164,l)
);
},
{
closed = 1;
nodes = (
(593,1246,l),
(775,1246,ls),
(966,1246,o),
(1058,1182,o),
(1058,1063,cs),
(1058,987,o),
(1022,922,o),
(960,877,c),
(898,830,o),
(813,802,o),
(715,802,cs),
(473,802,l)
);
}
);
width = 1260;
},
{
layerId = "07F2E3F0-ED06-4523-9B4E-21C099677EF3";
shapes = (
{
closed = 1;
nodes = (
(583,0,ls),
(714,0,o),
(831,48,o),
(913,125,cs),
(995,202,o),
(1045,313,o),
(1045,440,cs),
(1045,499,o),
(1028,559,o),
(994,611,cs),
(959,664,o),
(904,704,o),
(828,728,c),
(930,746,o),
(1021,791,o),
(1087,858,c),
(1153,923,o),
(1190,1009,o),
(1190,1095,cs),
(1190,1191,o),
(1154,1271,o),
(1082,1326,cs),
(1011,1381,o),
(910,1410,o),
(783,1410,cs),
(456,1410,l),
(79,0,l)
);
},
{
closed = 1;
nodes = (
(335,690,l),
(659,690,ls),
(752,690,o),
(832,671,o),
(890,628,cs),
(945,585,o),
(977,526,o),
(977,444,cs),
(977,324,o),
(938,235,o),
(868,175,cs),
(798,115,o),
(699,82,o),
(571,82,cs),
(173,82,l)
);
},
{
closed = 1;
nodes = (
(509,1328,l),
(751,1328,ls),
(994,1328,o),
(1114,1247,o),
(1114,1100,cs),
(1114,999,o),
(1062,918,o),
(976,862,cs),
(890,806,o),
(771,774,o),
(638,774,cs),
(358,774,l)
);
}
);
width = 1200;
}
);
leftKerningGroup = _B2;
rightKerningGroup = _B;
unicode = 66;
},
{
glyphname = C;
layers = (
{
layerId = "47B14137-3610-4366-97F9-C15552AB4A93";
shapes = (
{
closed = 1;
nodes = (
(985,-30,o),
(1145,16,o),
(1274,94,c),
(1178,446,l),
(1072,385,o),
(957,360,o),
(862,360,cs),
(759,360,o),
(679,388,o),
(625,434,cs),
(571,480,o),
(544,548,o),
(544,630,cs),
(544,750,o),
(579,855,o),
(644,929,cs),
(710,1004,o),
(806,1050,o),
(921,1050,cs),
(1056,1050,o),
(1168,1002,o),
(1225,911,c),
(1495,1213,l),
(1423,1298,o),
(1346,1353,o),
(1258,1390,c),
(1169,1425,o),
(1069,1440,o),
(949,1440,cs),
(872,1440,o),
(799,1430,o),
(727,1409,cs),
(585,1367,o),
(460,1291,o),
(359,1185,cs),
(308,1132,o),
(265,1073,o),
(230,1008,cs),
(157,876,o),
(115,726,o),
(115,561,cs),
(115,372,o),
(189,226,o),
(311,125,cs),
(432,23,o),
(599,-30,o),
(793,-30,cs)
);
}
);
width = 1406;
},
{
layerId = "DCE18E71-776F-477B-AB8E-147A8D0BE437";
shapes = (
{
closed = 1;
nodes = (
(963,-30,o),
(1108,8,o),
(1242,91,c),
(1192,274,l),
(1080,201,o),
(965,168,o),
(842,168,cs),
(692,168,o),
(576,207,o),
(495,281,c),
(414,353,o),
(371,456,o),
(371,588,cs),
(371,767,o),
(425,931,o),
(527,1050,cs),
(628,1168,o),
(773,1244,o),
(953,1244,cs),
(1122,1244,o),
(1244,1188,o),
(1320,1093,c),
(1465,1248,l),
(1409,1312,o),
(1340,1361,o),
(1258,1393,cs),
(1175,1424,o),
(1079,1440,o),
(967,1440,cs),
(890,1440,o),
(819,1430,o),
(748,1408,cs),
(607,1364,o),
(486,1285,o),
(388,1177,cs),
(338,1122,o),
(297,1063,o),
(262,996,cs),
(191,863,o),
(150,713,o),
(150,553,cs),
(150,374,o),
(215,230,o),
(328,128,cs),
(441,26,o),
(601,-30,o),
(800,-30,cs)
);
}
);
width = 1396;
},
{
layerId = "07F2E3F0-ED06-4523-9B4E-21C099677EF3";
shapes = (
{
closed = 1;
nodes = (
(947,-30,o),
(1082,2,o),
(1220,88,c),
(1200,159,l),
(1086,81,o),
(971,40,o),
(827,40,cs),
(647,40,o),
(506,88,o),
(409,178,cs),
(308,270,o),
(255,396,o),
(255,560,cs),
(255,779,o),
(322,983,o),
(448,1130,cs),
(574,1278,o),
(752,1371,o),
(972,1371,cs),
(1164,1371,o),
(1294,1312,o),
(1382,1214,c),
(1444,1270,l),
(1399,1322,o),
(1337,1365,o),
(1258,1395,c),
(1178,1423,o),
(1085,1440,o),
(979,1440,cs),
(902,1440,o),
(831,1430,o),
(761,1407,cs),
(622,1361,o),
(502,1282,o),
(407,1171,c),
(357,1115,o),
(318,1056,o),
(283,988,cs),
(213,854,o),
(173,704,o),
(173,547,cs),
(173,375,o),
(232,232,o),
(340,130,cs),
(447,28,o),
(602,-30,o),
(804,-30,cs)
);
}
);
width = 1390;
}
);
leftKerningGroup = _C2;
rightKerningGroup = _C;
unicode = 67;
},
{
glyphname = D;
layers = (
{
layerId = "47B14137-3610-4366-97F9-C15552AB4A93";
shapes = (
{
closed = 1;
nodes = (
(640,0,ls),
(883,0,o),
(1087,90,o),
(1238,236,cs),
(1387,382,o),
(1472,585,o),
(1472,818,cs),
(1472,1015,o),
(1398,1160,o),
(1269,1261,cs),
(1139,1361,o),
(964,1410,o),
(754,1410,cs),
(392,1410,l),
(14,0,l)
);
},
{
closed = 1;
nodes = (
(691,1037,l),
(733,1037,ls),
(828,1037,o),
(907,1017,o),
(964,973,cs),
(1020,928,o),
(1049,865,o),
(1049,775,cs),
(1049,661,o),
(1017,562,o),
(950,489,cs),
(885,416,o),
(791,373,o),
(672,373,cs),
(516,373,l)
);
}
);
width = 1478;
},
{
layerId = "DCE18E71-776F-477B-AB8E-147A8D0BE437";
shapes = (
{
closed = 1;
nodes = (
(541,0,ls),
(795,0,o),
(1006,83,o),
(1157,229,cs),
(1309,374,o),
(1395,577,o),
(1395,825,cs),
(1395,1022,o),
(1320,1167,o),
(1191,1265,cs),
(1061,1362,o),
(888,1410,o),
(682,1410,cs),
(428,1410,l),
(50,0,l)
);
},
{
closed = 1;
nodes = (
(581,1220,l),
(699,1220,ls),
(848,1220,o),
(969,1181,o),
(1052,1106,cs),
(1137,1031,o),
(1179,927,o),
(1179,796,cs),
(1179,627,o),
(1123,477,o),
(1018,368,cs),
(913,259,o),
(767,189,o),
(590,189,cs),
(305,189,l)
);
}
);
width = 1421;
},
{
layerId = "07F2E3F0-ED06-4523-9B4E-21C099677EF3";
shapes = (
{
closed = 1;
nodes = (
(474,0,ls),
(738,0,o),
(951,79,o),
(1104,223,cs),
(1258,368,o),
(1341,571,o),
(1341,828,cs),
(1341,1025,o),
(1267,1170,o),
(1138,1267,cs),
(1010,1362,o),
(837,1410,o),
(633,1410,cs),
(451,1410,l),
(74,0,l)
);
},
{
closed = 1;
nodes = (
(507,1341,l),
(676,1341,ls),
(860,1341,o),
(1009,1290,o),
(1112,1194,cs),
(1213,1099,o),
(1266,970,o),
(1266,810,cs),
(1266,605,o),
(1192,421,o),
(1062,288,cs),
(931,153,o),
(751,68,o),
(536,68,cs),
(165,68,l)
);
}
);
width = 1383;
}
);
leftKerningGroup = _B2;
rightKerningGroup = _D;
unicode = 68;
},
{
glyphname = E;
layers = (
{
layerId = "47B14137-3610-4366-97F9-C15552AB4A93";
shapes = (
{
closed = 1;
nodes = (
(1066,0,l),
(1160,348,l),
(512,348,l),
(567,559,l),
(1094,559,l),
(1178,874,l),
(653,874,l),
(703,1065,l),
(1343,1065,l),
(1436,1410,l),
(396,1410,l),
(18,0,l)
);
}
);
width = 1303;
},
{
layerId = "DCE18E71-776F-477B-AB8E-147A8D0BE437";
shapes = (
{
closed = 1;
nodes = (
(957,0,l),
(1004,182,l),
(307,182,l),
(434,651,l),
(1033,651,l),
(1079,824,l),
(479,824,l),
(588,1228,l),
(1279,1228,l),
(1327,1410,l),
(433,1410,l),
(55,0,l)
);
}
);
width = 1218;
},
{
layerId = "07F2E3F0-ED06-4523-9B4E-21C099677EF3";
shapes = (
{
closed = 1;
nodes = (
(883,0,l),
(901,72,l),
(171,72,l),
(345,713,l),
(993,713,l),
(1013,789,l),
(365,789,l),
(513,1337,l),
(1236,1337,l),
(1255,1410,l),
(457,1410,l),
(80,0,l)
);
}
);
width = 1161;
}
);
leftKerningGroup = _B2;
rightKerningGroup = _E;
unicode = 69;
},
{
glyphname = F;
layers = (
{
layerId = "47B14137-3610-4366-97F9-C15552AB4A93";
shapes = (
{
closed = 1;
nodes = (
(418,0,l),
(545,474,l),
(1045,474,l),
(1142,823,l),
(641,823,l),
(699,1045,l),
(1262,1045,l),
(1359,1410,l),
(396,1410,l),
(18,0,l)
);
}
);
width = 1214;
},
{
layerId = "DCE18E71-776F-477B-AB8E-147A8D0BE437";
shapes = (
{
closed = 1;
nodes = (
(259,0,l),
(423,611,l),
(1018,611,l),
(1068,794,l),
(473,794,l),
(588,1222,l),
(1244,1222,l),
(1292,1410,l),
(433,1410,l),
(55,0,l)
);
}
);
width = 1157;
},
{
layerId = "07F2E3F0-ED06-4523-9B4E-21C099677EF3";
shapes = (
{
closed = 1;
nodes = (
(153,0,l),
(343,704,l),
(1000,704,l),
(1018,775,l),
(361,775,l),
(515,1340,l),
(1231,1340,l),
(1248,1410,l),
(457,1410,l),
(80,0,l)
);
}
);
width = 1119;
}
);
leftKerningGroup = _B2;
rightKerningGroup = _F;
unicode = 70;
},
{
glyphname = G;
layers = (
{
layerId = "47B14137-3610-4366-97F9-C15552AB4A93";
shapes = (
{
closed = 1;
nodes = (
(909,-30,o),
(981,-25,o),
(1052,-14,cs),
(1125,-3,o),
(1199,13,o),
(1261,34,c),
(1477,840,l),
(859,840,l),
(774,527,l),
(1045,527,l),
(989,323,l),
(961,318,o),
(932,318,o),
(904,318,cs),
(802,318,o),
(708,344,o),
(639,398,cs),
(571,450,o),
(531,530,o),
(531,631,cs),
(531,763,o),
(573,872,o),
(650,955,cs),
(728,1036,o),
(840,1081,o),
(976,1081,cs),
(1048,1081,o),
(1110,1072,o),
(1165,1055,c),
(1221,1036,o),
(1270,1009,o),
(1315,969,c),
(1550,1258,l),
(1457,1334,o),
(1358,1379,o),
(1262,1407,c),
(1166,1434,o),
(1071,1440,o),
(990,1440,cs),
(908,1440,o),
(831,1430,o),
(755,1411,c),
(605,1371,o),
(473,1299,o),
(369,1198,cs),
(315,1147,o),
(271,1090,o),
(234,1029,cs),
(160,903,o),
(117,758,o),
(117,600,cs),
(117,406,o),
(196,249,o),
(326,140,cs),
(456,30,o),
(635,-30,o),
(841,-30,cs)
);
}
);
width = 1512;
},
{
layerId = "DCE18E71-776F-477B-AB8E-147A8D0BE437";
shapes = (
{
closed = 1;
nodes = (
(902,-30,o),
(971,-25,o),
(1038,-14,cs),
(1105,-3,o),
(1174,14,o),
(1229,35,c),
(1418,737,l),
(873,737,l),
(826,565,l),
(1186,565,l),
(1083,172,l),
(1032,162,o),
(969,153,o),
(896,153,cs),
(733,153,o),
(600,194,o),
(507,272,cs),
(414,349,o),
(361,461,o),
(361,601,cs),
(361,783,o),
(423,942,o),
(531,1062,cs),
(639,1181,o),
(793,1252,o),
(982,1252,cs),
(1056,1252,o),
(1127,1242,o),
(1196,1219,c),
(1266,1198,o),
(1325,1166,o),
(1379,1123,c),
(1505,1276,l),
(1440,1335,o),
(1360,1375,o),
(1276,1403,c),
(1190,1430,o),
(1099,1440,o),
(1009,1440,cs),
(928,1440,o),
(851,1430,o),
(776,1411,c),
(629,1370,o),
(501,1299,o),
(397,1195,cs),
(345,1143,o),
(301,1086,o),
(265,1023,cs),
(192,896,o),
(151,749,o),
(151,589,cs),
(151,399,o),
(226,246,o),
(350,137,cs),
(474,28,o),
(646,-30,o),
(845,-30,cs)
);
}
);
width = 1504;
},
{
layerId = "07F2E3F0-ED06-4523-9B4E-21C099677EF3";
shapes = (
{
closed = 1;
nodes = (
(898,-30,o),
(964,-25,o),
(1028,-14,cs),
(1091,-3,o),
(1158,14,o),
(1208,35,c),
(1377,668,l),
(881,668,l),
(860,590,l),
(1280,590,l),
(1146,70,l),
(1080,56,o),
(992,42,o),
(890,42,cs),
(688,42,o),
(530,93,o),
(419,189,cs),
(308,283,o),
(248,416,o),
(248,582,cs),
(248,796,o),
(321,990,o),
(451,1133,c),
(579,1278,o),
(763,1365,o),
(985,1365,cs),
(1062,1365,o),
(1139,1353,o),
(1217,1329,cs),
(1295,1306,o),
(1363,1272,o),
(1422,1225,c),
(1476,1288,l),
(1428,1335,o),
(1361,1372,o),
(1284,1400,c),
(1205,1427,o),
(1115,1440,o),
(1021,1440,cs),
(940,1440,o),
(864,1430,o),
(791,1410,cs),
(645,1369,o),
(520,1298,o),
(416,1192,cs),
(364,1140,o),
(320,1083,o),
(286,1019,c),
(213,890,o),
(172,743,o),
(172,582,cs),
(172,395,o),
(245,244,o),
(366,135,cs),
(486,26,o),
(653,-30,o),
(847,-30,cs)
);
}
);
width = 1498;
}
);
leftKerningGroup = _C2;
rightKerningGroup = _G;
unicode = 71;
},
{
glyphname = H;
layers = (
{
layerId = "47B14137-3610-4366-97F9-C15552AB4A93";
shapes = (
{
closed = 1;
nodes = (
(418,0,l),
(564,546,l),
(1044,546,l),
(897,0,l),
(1298,0,l),
(1676,1410,l),
(1275,1410,l),
(1141,910,l),
(662,910,l),
(795,1410,l),
(396,1410,l),
(18,0,l)
);
}
);
width = 1584;
},
{
layerId = "DCE18E71-776F-477B-AB8E-147A8D0BE437";
shapes = (
{
closed = 1;
nodes = (
(260,0,l),
(435,654,l),
(1143,654,l),
(968,0,l),
(1172,0,l),
(1550,1410,l),
(1345,1410,l),
(1192,842,l),
(484,842,l),
(637,1410,l),
(434,1410,l),
(56,0,l)
);
}
);
width = 1482;
},
{
layerId = "07F2E3F0-ED06-4523-9B4E-21C099677EF3";
shapes = (
{
closed = 1;
nodes = (
(154,0,l),
(349,727,l),
(1209,727,l),
(1015,0,l),
(1088,0,l),
(1466,1410,l),
(1393,1410,l),
(1227,796,l),
(367,796,l),
(532,1410,l),
(458,1410,l),
(81,0,l)
);
}
);
width = 1413;
}
);
leftKerningGroup = _B2;
rightKerningGroup = _H;
unicode = 72;
},
{
glyphname = I;
layers = (
{
layerId = "47B14137-3610-4366-97F9-C15552AB4A93";
shapes = (
{
closed = 1;
nodes = (
(418,0,l),
(795,1410,l),
(396,1410,l),
(18,0,l)
);
}
);
width = 711;
},
{
layerId = "DCE18E71-776F-477B-AB8E-147A8D0BE437";
shapes = (
{
closed = 1;
nodes = (
(260,0,l),
(637,1410,l),
(434,1410,l),
(56,0,l)
);
}
);
width = 576;
},
{
layerId = "07F2E3F0-ED06-4523-9B4E-21C099677EF3";
shapes = (
{
closed = 1;
nodes = (
(157,0,l),
(535,1410,l),
(455,1410,l),
(78,0,l)
);
}
);
width = 487;
}
);
leftKerningGroup = _B2;
rightKerningGroup = _H;
unicode = 73;
},
{
glyphname = J;
layers = (
{
layerId = "47B14137-3610-4366-97F9-C15552AB4A93";
shapes = (
{
closed = 1;
nodes = (
(497,-30,o),
(619,16,o),
(717,99,cs),
(814,182,o),
(883,300,o),
(924,449,c),
(1183,1410,l),
(783,1410,l),
(546,538,ls),
(527,467,o),
(496,415,o),
(459,383,cs),
(422,350,o),
(376,334,o),
(322,334,cs),
(246,334,o),
(171,367,o),
(87,423,c),
(-105,119,l),
(-3,26,o),
(151,-30,o),
(345,-30,cs)
);
}
);
width = 1096;
},
{
layerId = "DCE18E71-776F-477B-AB8E-147A8D0BE437";
shapes = (
{
closed = 1;
nodes = (
(409,-30,o),
(517,9,o),
(602,81,cs),
(688,153,o),
(748,256,o),
(785,391,c),
(1058,1410,l),
(855,1410,l),
(587,421,ls),
(561,325,o),
(522,259,o),
(470,217,cs),
(419,176,o),
(353,157,o),
(272,157,cs),
(184,157,o),
(107,184,o),
(35,235,c),
(-75,78,l),
(21,5,o),
(140,-30,o),
(278,-30,cs)
);
}
);
width = 995;
},
{
layerId = "07F2E3F0-ED06-4523-9B4E-21C099677EF3";
shapes = (
{
closed = 1;
nodes = (
(349,-30,o),
(447,3,o),
(526,68,c),
(604,134,o),
(663,227,o),
(696,351,cs),
(979,1410,l),
(899,1410,l),
(611,343,l),
(580,231,o),
(538,154,o),
(477,107,cs),
(417,60,o),
(340,44,o),
(240,44,cs),
(145,44,o),
(64,68,o),
(2,114,c),
(-55,50,l),
(37,-10,o),
(133,-30,o),
(233,-30,cs)
);
}
);
width = 928;
}
);
leftKerningGroup = _J2;
rightKerningGroup = _J;
unicode = 74;
},
{
glyphname = K;
layers = (
{
layerId = "47B14137-3610-4366-97F9-C15552AB4A93";
shapes = (
{
closed = 1;
nodes = (
(418,0,l),
(505,320,l),
(670,461,l),
(905,0,l),
(1398,0,l),
(996,739,l),
(1708,1410,l),
(1176,1410,l),
(661,922,l),
(795,1410,l),
(396,1410,l),
(18,0,l)
);
}
);
width = 1517;
},
{
layerId = "DCE18E71-776F-477B-AB8E-147A8D0BE437";
shapes = (
{
closed = 1;
nodes = (
(260,0,l),
(359,375,l),
(631,619,l),
(944,0,l),
(1193,0,l),
(798,766,l),
(1487,1410,l),
(1222,1410,l),
(443,685,l),
(637,1410,l),
(434,1410,l),
(56,0,l)
);
}
);
width = 1376;
},
{
layerId = "07F2E3F0-ED06-4523-9B4E-21C099677EF3";
shapes = (
{
closed = 1;
nodes = (
(154,0,l),
(261,410,l),
(606,725,l),
(970,0,l),
(1057,0,l),
(666,782,l),
(1341,1410,l),
(1254,1410,l),
(297,526,l),
(532,1410,l),
(458,1410,l),
(81,0,l)
);
}
);
width = 1282;
}
);
leftKerningGroup = _B2;
rightKerningGroup = _K;
unicode = 75;
},
{
glyphname = L;
layers = (
{
layerId = "47B14137-3610-4366-97F9-C15552AB4A93";
shapes = (
{
closed = 1;
nodes = (
(955,0,l),
(1054,365,l),
(518,365,l),
(795,1410,l),
(396,1410,l),
(18,0,l)
);
}
);
width = 1148;
},
{
layerId = "DCE18E71-776F-477B-AB8E-147A8D0BE437";
shapes = (
{
closed = 1;
nodes = (
(883,0,l),
(933,187,l),
(310,187,l),
(636,1410,l),
(433,1410,l),
(55,0,l)
);
}
);
width = 1083;
},
{
layerId = "07F2E3F0-ED06-4523-9B4E-21C099677EF3";
shapes = (
{
closed = 1;
nodes = (
(835,0,l),
(854,69,l),
(171,69,l),
(531,1410,l),
(457,1410,l),
(80,0,l)
);
}
);
width = 1039;
}
);
leftKerningGroup = _B2;
rightKerningGroup = _L;
unicode = 76;
},
{
glyphname = M;
layers = (
{
layerId = "47B14137-3610-4366-97F9-C15552AB4A93";
shapes = (
{
closed = 1;
nodes = (
(385,0,l),
(622,921,l),
(544,918,l),
(754,242,l),
(1016,242,l),
(1529,836,l),
(1476,876,l),
(1234,0,l),
(1620,0,l),
(1998,1410,l),
(1613,1410,l),
(899,570,l),
(1050,531,l),
(785,1410,l),
(396,1410,l),
(18,0,l)
);
}
);
width = 1905;
},
{
layerId = "DCE18E71-776F-477B-AB8E-147A8D0BE437";
shapes = (
{
closed = 1;
nodes = (
(243,0,l),
(547,1149,l),
(509,1146,l),
(788,311,l),
(947,311,l),
(1646,1092,l),
(1613,1114,l),
(1314,0,l),
(1513,0,l),
(1891,1410,l),
(1699,1410,l),
(877,473,l),
(950,453,l),
(635,1410,l),
(434,1410,l),
(56,0,l)
);
}
);
width = 1821;
},
{
layerId = "07F2E3F0-ED06-4523-9B4E-21C099677EF3";
shapes = (
{
closed = 1;
nodes = (
(147,0,l),
(495,1300,l),
(487,1297,l),
(811,358,l),
(900,358,l),
(1724,1264,l),
(1706,1272,l),
(1367,0,l),
(1443,0,l),
(1820,1410,l),
(1756,1410,l),
(862,409,l),
(883,402,l),
(534,1410,l),
(458,1410,l),
(81,0,l)
);
}
);
width = 1765;
}
);
leftKerningGroup = _B2;
rightKerningGroup = _H;
unicode = 77;
},
{
glyphname = N;
layers = (
{
layerId = "47B14137-3610-4366-97F9-C15552AB4A93";
shapes = (
{
closed = 1;
nodes = (
(405,0,l),
(618,798,l),
(916,0,l),
(1306,0,l),
(1684,1410,l),
(1297,1410,l),
(1084,625,l),
(786,1410,l),
(396,1410,l),
(18,0,l)
);
}
);
width = 1593;
},
{
layerId = "DCE18E71-776F-477B-AB8E-147A8D0BE437";
shapes = (
{
closed = 1;
nodes = (
(256,0,l),
(546,1084,l),
(995,0,l),
(1185,0,l),
(1563,1410,l),
(1363,1410,l),
(1074,339,l),
(626,1410,l),
(434,1410,l),
(56,0,l)
);
}
);
width = 1495;
},
{
layerId = "07F2E3F0-ED06-4523-9B4E-21C099677EF3";
shapes = (
{
closed = 1;
nodes = (
(156,0,l),
(497,1274,l),
(1046,0,l),
(1106,0,l),
(1483,1410,l),
(1408,1410,l),
(1068,148,l),
(519,1410,l),
(458,1410,l),
(81,0,l)
);
}
);
width = 1431;
}
);
leftKerningGroup = _B2;
rightKerningGroup = _H;
unicode = 78;
},
{
glyphname = O;
layers = (
{
layerId = "47B14137-3610-4366-97F9-C15552AB4A93";
shapes = (
{
closed = 1;
nodes = (
(870,-30,o),
(944,-20,o),
(1016,-1,cs),
(1160,39,o),
(1288,114,o),
(1393,215,c),
(1445,267,o),
(1490,323,o),
(1528,386,cs),
(1604,509,o),
(1647,655,o),
(1647,810,cs),
(1647,988,o),
(1582,1146,o),
(1463,1259,cs),
(1344,1371,o),
(1172,1440,o),
(964,1440,cs),
(886,1440,o),
(812,1430,o),
(740,1411,c),
(595,1370,o),
(467,1296,o),
(363,1194,cs),
(311,1143,o),
(266,1086,o),
(229,1024,cs),
(153,898,o),
(110,752,o),
(110,595,cs),
(110,417,o),
(177,260,o),
(296,148,cs),
(415,36,o),
(585,-30,o),
(792,-30,cs)
);
},
{
closed = 1;
nodes = (
(741,344,o),
(667,372,o),
(614,422,cs),
(562,471,o),
(533,544,o),
(533,632,cs),
(533,751,o),
(572,860,o),
(640,938,cs),
(710,1017,o),
(808,1065,o),
(923,1065,cs),
(1017,1065,o),
(1092,1038,o),
(1145,989,cs),
(1197,939,o),
(1226,867,o),
(1226,777,c),
(1226,719,o),
(1217,663,o),
(1198,610,cs),
(1178,558,o),
(1152,512,o),
(1118,473,c),
(1049,394,o),
(950,344,o),
(835,344,cs)
);
}
);
width = 1649;
},
{
layerId = "DCE18E71-776F-477B-AB8E-147A8D0BE437";
shapes = (
{
closed = 1;
nodes = (
(881,-30,o),
(954,-20,o),
(1024,0,cs),
(1167,40,o),
(1292,116,o),
(1397,220,cs),
(1448,271,o),
(1492,327,o),
(1529,390,cs),
(1604,514,o),
(1647,659,o),
(1647,810,cs),
(1647,988,o),
(1583,1146,o),
(1467,1259,cs),
(1351,1371,o),
(1186,1440,o),
(985,1440,cs),
(909,1440,o),
(836,1430,o),
(765,1411,c),
(622,1369,o),
(497,1294,o),
(395,1191,c),
(342,1140,o),
(298,1082,o),
(262,1020,c),
(187,895,o),
(144,749,o),
(144,595,cs),
(144,418,o),
(210,261,o),
(325,149,cs),
(441,37,o),
(606,-30,o),
(805,-30,cs)
);
},
{
closed = 1;
nodes = (
(691,163,o),
(573,207,o),
(491,286,cs),
(408,364,o),
(359,476,o),
(359,612,cs),
(359,785,o),
(424,942,o),
(533,1059,cs),
(640,1174,o),
(792,1247,o),
(966,1247,cs),
(1106,1247,o),
(1221,1203,o),
(1303,1126,cs),
(1385,1048,o),
(1433,935,o),
(1433,797,c),
(1434,712,o),
(1419,630,o),
(1389,554,c),
(1357,477,o),
(1315,410,o),
(1261,351,c),
(1152,237,o),
(1001,163,o),
(828,163,cs)
);
}
);
width = 1668;
},
{
layerId = "07F2E3F0-ED06-4523-9B4E-21C099677EF3";
shapes = (
{
closed = 1;
nodes = (
(887,-30,o),
(960,-20,o),
(1030,1,c),
(1170,41,o),
(1295,117,o),
(1399,222,cs),
(1450,273,o),
(1493,330,o),
(1530,393,cs),
(1604,517,o),
(1647,661,o),
(1647,810,cs),
(1647,988,o),
(1583,1146,o),
(1469,1259,c),
(1354,1371,o),
(1194,1440,o),
(1000,1440,cs),
(924,1440,o),
(852,1430,o),
(781,1410,c),
(640,1368,o),
(517,1292,o),
(414,1188,cs),
(363,1137,o),
(319,1079,o),
(283,1017,cs),
(209,892,o),
(166,747,o),
(166,595,cs),
(166,418,o),
(232,261,o),
(344,149,cs),
(457,37,o),
(619,-30,o),
(812,-30,cs)
);
},
{
closed = 1;
nodes = (
(655,42,o),
(511,98,o),
(409,196,cs),
(305,294,o),
(245,432,o),
(245,599,cs),
(245,807,o),
(325,998,o),
(460,1139,cs),
(593,1280,o),
(782,1367,o),
(993,1367,cs),
(1163,1367,o),
(1306,1313,o),
(1409,1215,cs),
(1510,1119,o),
(1570,980,o),
(1570,811,c),
(1571,708,o),
(1552,609,o),
(1514,516,cs),
(1476,423,o),
(1424,340,o),
(1356,272,c),
(1221,131,o),
(1035,42,o),
(824,42,cs)
);
}
);
width = 1680;
}
);
leftKerningGroup = _C2;
rightKerningGroup = _D;
unicode = 79;
},
{
glyphname = P;
layers = (
{
layerId = "47B14137-3610-4366-97F9-C15552AB4A93";
shapes = (
{
closed = 1;
nodes = (
(413,0,l),
(531,439,l),
(810,439,ls),
(986,439,o),
(1141,494,o),
(1253,590,cs),
(1365,687,o),
(1430,824,o),
(1430,997,cs),
(1430,1122,o),
(1381,1226,o),
(1289,1298,cs),
(1196,1370,o),
(1067,1410,o),
(899,1410,cs),
(391,1410,l),
(13,0,l)
);
},
{
closed = 1;
nodes = (
(700,1069,l),
(830,1069,ls),
(887,1069,o),
(935,1063,o),
(970,1046,c),
(1003,1028,o),
(1022,996,o),
(1022,944,cs),
(1022,893,o),
(1005,851,o),
(975,820,cs),
(944,787,o),
(900,770,o),
(839,770,cs),
(618,770,l)
);
}
);
width = 1349;
},
{
layerId = "DCE18E71-776F-477B-AB8E-147A8D0BE437";
shapes = (
{
closed = 1;
nodes = (
(255,0,l),
(403,556,l),
(777,556,ls),
(935,556,o),
(1072,603,o),
(1171,687,c),
(1270,769,o),
(1328,892,o),
(1328,1044,cs),
(1328,1156,o),
(1285,1248,o),
(1201,1312,cs),
(1118,1375,o),
(999,1410,o),
(846,1410,cs),
(429,1410,l),
(51,0,l)
);
},
{
closed = 1;
nodes = (
(584,1229,l),
(825,1229,ls),
(921,1229,o),
(994,1212,o),
(1044,1176,cs),
(1093,1140,o),
(1120,1084,o),
(1120,1015,cs),
(1120,931,o),
(1087,863,o),
(1033,813,c),
(979,761,o),
(901,733,o),
(805,733,cs),
(449,733,l)
);
}
);
width = 1260;
},
{
layerId = "07F2E3F0-ED06-4523-9B4E-21C099677EF3";
shapes = (
{
closed = 1;
nodes = (
(152,0,l),
(321,633,l),
(756,633,ls),
(900,633,o),
(1025,676,o),
(1116,750,c),
(1205,825,o),
(1259,937,o),
(1259,1075,cs),
(1259,1177,o),
(1220,1261,o),
(1142,1320,cs),
(1064,1378,o),
(954,1410,o),
(811,1410,cs),
(450,1410,l),
(72,0,l)
);
},
{
closed = 1;
nodes = (
(511,1337,l),
(822,1337,ls),
(942,1337,o),
(1033,1311,o),
(1094,1262,c),
(1154,1213,o),
(1184,1144,o),
(1184,1062,cs),
(1184,957,o),
(1142,870,o),
(1072,807,cs),
(1001,743,o),
(902,709,o),
(782,709,cs),
(340,709,l)
);
}
);
width = 1200;
}
);
leftKerningGroup = _B2;
rightKerningGroup = _P;
unicode = 80;
},
{
glyphname = Q;
layers = (
{
layerId = "47B14137-3610-4366-97F9-C15552AB4A93";
shapes = (
{
closed = 1;
nodes = (
(887,90,l),
(956,-30,o),
(1111,-158,o),
(1275,-233,c),
(1539,102,l),
(1381,168,o),
(1234,287,o),
(1167,402,c)
);
},
{
closed = 1;
nodes = (
(870,-30,o),
(944,-20,o),
(1016,-1,cs),
(1160,39,o),
(1288,114,o),
(1393,215,c),
(1445,267,o),
(1490,323,o),
(1528,386,cs),
(1604,509,o),
(1647,655,o),
(1647,810,cs),
(1647,988,o),
(1582,1146,o),
(1463,1259,cs),
(1344,1371,o),
(1172,1440,o),
(964,1440,cs),
(886,1440,o),
(812,1430,o),
(740,1411,c),
(595,1370,o),
(467,1296,o),
(363,1194,cs),
(311,1143,o),
(266,1086,o),
(229,1024,cs),
(153,898,o),
(110,752,o),
(110,595,cs),
(110,417,o),
(177,260,o),
(296,148,cs),
(415,36,o),
(585,-30,o),
(792,-30,cs)
);
},
{
closed = 1;
nodes = (
(741,344,o),
(667,372,o),
(614,422,cs),
(562,471,o),
(533,544,o),
(533,632,cs),
(533,751,o),
(572,860,o),
(640,938,cs),
(710,1017,o),
(808,1065,o),
(923,1065,cs),
(1017,1065,o),
(1092,1038,o),
(1145,989,cs),
(1197,939,o),
(1226,867,o),
(1226,777,c),
(1226,719,o),
(1217,663,o),
(1198,610,cs),
(1178,558,o),
(1152,512,o),
(1118,473,c),
(1049,394,o),
(950,344,o),
(835,344,cs)
);
}
);
width = 1649;
},
{
layerId = "DCE18E71-776F-477B-AB8E-147A8D0BE437";
shapes = (
{
closed = 1;
nodes = (
(962,51,l),
(1055,-68,o),
(1171,-158,o),
(1349,-247,c),
(1486,-75,l),
(1314,5,o),
(1204,87,o),
(1116,201,c)
);
},
{
closed = 1;
nodes = (
(881,-30,o),
(954,-20,o),
(1024,0,cs),
(1167,40,o),
(1292,116,o),
(1397,220,cs),
(1448,271,o),
(1492,327,o),
(1529,390,cs),
(1604,514,o),
(1647,659,o),
(1647,810,cs),
(1647,988,o),
(1583,1146,o),
(1467,1259,cs),
(1351,1371,o),
(1186,1440,o),
(985,1440,cs),
(909,1440,o),
(836,1430,o),
(765,1411,c),
(622,1369,o),
(497,1294,o),
(395,1191,c),
(342,1140,o),
(298,1082,o),
(262,1020,c),
(187,895,o),
(144,749,o),
(144,595,cs),
(144,418,o),
(210,261,o),
(325,149,cs),
(441,37,o),
(606,-30,o),
(805,-30,cs)
);
},
{
closed = 1;
nodes = (
(691,163,o),
(573,207,o),
(491,286,cs),
(408,364,o),
(359,476,o),
(359,612,cs),
(359,785,o),
(424,942,o),
(533,1059,cs),
(640,1174,o),
(792,1247,o),
(966,1247,cs),
(1106,1247,o),
(1221,1203,o),
(1303,1126,cs),
(1385,1048,o),
(1433,935,o),
(1433,797,c),
(1434,712,o),
(1419,630,o),
(1389,554,c),
(1357,477,o),
(1315,410,o),
(1261,351,c),
(1152,237,o),
(1001,163,o),
(828,163,cs)
);
}
);
width = 1668;
},
{
layerId = "07F2E3F0-ED06-4523-9B4E-21C099677EF3";
shapes = (
{
closed = 1;
nodes = (
(1012,26,l),
(1121,-94,o),
(1211,-158,o),
(1400,-256,c),
(1451,-191,l),
(1270,-105,o),
(1185,-46,o),
(1080,68,c)
);
},
{
closed = 1;
nodes = (
(887,-30,o),
(960,-20,o),
(1030,1,c),
(1170,41,o),
(1295,117,o),
(1399,222,cs),
(1450,273,o),
(1493,330,o),
(1530,393,cs),
(1604,517,o),
(1647,661,o),
(1647,810,cs),
(1647,988,o),
(1583,1146,o),
(1469,1259,c),
(1354,1371,o),
(1194,1440,o),
(1000,1440,cs),
(924,1440,o),
(852,1430,o),
(781,1410,c),
(640,1368,o),
(517,1292,o),
(414,1188,cs),
(363,1137,o),
(319,1079,o),
(283,1017,cs),
(209,892,o),
(166,747,o),
(166,595,cs),
(166,418,o),
(232,261,o),
(344,149,cs),
(457,37,o),
(619,-30,o),
(812,-30,cs)
);
},
{
closed = 1;
nodes = (
(655,42,o),
(511,98,o),
(409,196,cs),
(305,294,o),
(245,432,o),
(245,599,cs),
(245,807,o),
(325,998,o),
(460,1139,cs),
(593,1280,o),
(782,1367,o),
(993,1367,cs),
(1163,1367,o),
(1306,1313,o),
(1409,1215,cs),
(1510,1119,o),
(1570,980,o),
(1570,811,c),
(1571,708,o),
(1552,609,o),
(1514,516,cs),
(1476,423,o),
(1424,340,o),
(1356,272,c),
(1221,131,o),
(1035,42,o),
(824,42,cs)
);
}
);
width = 1680;
}
);
leftKerningGroup = _C2;
unicode = 81;
},
{
glyphname = R;
layers = (
{
layerId = "47B14137-3610-4366-97F9-C15552AB4A93";
shapes = (
{
closed = 1;
nodes = (
(418,0,l),
(549,488,l),
(632,488,l),
(789,0,l),
(1244,0,l),
(1033,554,l),
(1152,586,o),
(1250,649,o),
(1319,732,cs),
(1390,816,o),
(1429,916,o),
(1429,1030,cs),
(1429,1148,o),
(1382,1241,o),
(1294,1308,cs),
(1206,1375,o),
(1077,1410,o),
(909,1410,cs),
(396,1410,l),
(18,0,l)
);
},
{
closed = 1;
nodes = (
(711,1084,l),
(825,1084,ls),
(887,1084,o),
(932,1078,o),
(966,1060,cs),
(998,1043,o),
(1016,1013,o),
(1016,969,cs),
(1016,918,o),
(999,876,o),
(967,848,c),
(934,821,o),
(888,804,o),
(838,804,cs),
(634,804,l)
);
}
);
width = 1407;
},
{
layerId = "DCE18E71-776F-477B-AB8E-147A8D0BE437";
shapes = (
{
closed = 1;
nodes = (
(260,0,l),
(415,578,l),
(620,578,l),
(881,0,l),
(1118,0,l),
(840,596,l),
(977,612,o),
(1098,664,o),
(1186,742,cs),
(1275,821,o),
(1326,928,o),
(1326,1058,cs),
(1326,1165,o),
(1287,1252,o),
(1212,1315,c),
(1137,1376,o),
(1027,1410,o),
(879,1410,cs),
(434,1410,l),
(56,0,l)
);
},
{
closed = 1;
nodes = (
(592,1234,l),
(837,1234,ls),
(934,1234,o),
(1003,1215,o),
(1049,1182,cs),
(1096,1148,o),
(1118,1098,o),
(1118,1034,cs),
(1118,948,o),
(1085,876,o),
(1030,828,cs),
(976,779,o),
(895,750,o),
(805,750,cs),
(461,750,l)
);
}
);
width = 1322;
},
{
layerId = "07F2E3F0-ED06-4523-9B4E-21C099677EF3";
shapes = (
{
closed = 1;
nodes = (
(157,0,l),
(329,638,l),
(612,638,l),
(941,0,l),
(1035,0,l),
(710,624,l),
(860,628,o),
(996,673,o),
(1098,748,c),
(1198,824,o),
(1257,935,o),
(1257,1077,cs),
(1257,1175,o),
(1222,1259,o),
(1157,1318,c),
(1089,1377,o),
(992,1410,o),
(860,1410,cs),
(455,1410,l),
(78,0,l)
);
},
{
closed = 1;
nodes = (
(516,1334,l),
(844,1334,ls),
(966,1334,o),
(1050,1308,o),
(1105,1262,cs),
(1160,1217,o),
(1185,1154,o),
(1185,1076,cs),
(1185,968,o),
(1143,876,o),
(1072,815,c),
(1001,752,o),
(899,715,o),
(782,715,cs),
(348,715,l)
);
}
);
width = 1265;
}
);
leftKerningGroup = _B2;
rightKerningGroup = _R;
unicode = 82;
},
{
glyphname = S;
layers = (
{
layerId = "47B14137-3610-4366-97F9-C15552AB4A93";
shapes = (
{
closed = 1;
nodes = (
(771,-30,o),
(925,18,o),
(1038,111,c),
(1154,201,o),
(1228,329,o),
(1228,487,cs),
(1228,649,o),
(1119,758,o),
(892,853,cs),
(791,894,ls),
(735,918,o),
(697,935,o),
(675,951,c),
(652,969,o),
(643,984,o),
(643,1006,cs),
(643,1031,o),
(662,1056,o),
(692,1074,c),
(723,1089,o),
(760,1095,o),
(813,1095,cs),
(880,1095,o),
(945,1083,o),
(1007,1056,c),
(1065,1028,o),
(1114,992,o),
(1146,946,c),
(1404,1223,l),
(1352,1288,o),
(1274,1342,o),
(1176,1380,c),
(1079,1421,o),
(961,1440,o),
(838,1440,cs),
(685,1440,o),
(535,1390,o),
(421,1300,cs),
(308,1212,o),
(239,1081,o),
(239,927,cs),
(239,849,o),
(264,782,o),
(315,720,c),
(367,653,o),
(448,600,o),
(561,558,cs),
(655,523,ls),
(713,500,o),
(750,481,o),
(776,461,c),
(798,442,o),
(814,420,o),
(814,399,cs),
(814,369,o),
(793,347,o),
(766,332,c),
(737,318,o),
(694,309,o),
(648,309,cs),
(574,309,o),
(493,330,o),
(421,360,c),
(347,394,o),
(283,433,o),
(245,484,c),
(-8,201,l),
(56,130,o),
(150,70,o),
(256,33,c),
(359,-7,o),
(483,-30,o),
(604,-30,cs)
);
}
);
width = 1298;
},
{
layerId = "DCE18E71-776F-477B-AB8E-147A8D0BE437";
shapes = (
{
closed = 1;
nodes = (
(730,-30,o),
(865,13,o),
(964,95,c),
(1063,175,o),
(1127,290,o),
(1127,437,cs),
(1127,584,o),
(1033,683,o),
(844,762,c),
(702,819,ls),
(620,853,o),
(566,884,o),
(532,916,cs),
(496,950,o),
(483,984,o),
(483,1025,cs),
(483,1098,o),
(516,1158,o),
(572,1201,cs),
(628,1243,o),
(704,1265,o),
(793,1265,cs),
(867,1265,o),
(935,1254,o),
(1002,1228,cs),
(1067,1203,o),
(1121,1169,o),
(1162,1124,c),
(1299,1267,l),
(1251,1319,o),
(1184,1361,o),
(1105,1393,c),
(1024,1424,o),
(929,1440,o),
(825,1440,cs),
(680,1440,o),
(545,1397,o),
(445,1316,cs),
(345,1236,o),
(284,1123,o),
(284,981,cs),
(284,909,o),
(307,849,o),
(354,795,cs),
(401,741,o),
(472,696,o),
(571,655,c),
(701,603,ls),
(783,571,o),
(838,537,o),
(874,502,cs),
(908,468,o),
(925,430,o),
(925,389,cs),
(925,312,o),
(889,252,o),
(833,210,cs),
(776,169,o),
(696,147,o),
(603,147,cs),
(519,147,o),
(438,163,o),
(366,189,cs),
(292,216,o),
(230,256,o),
(181,302,c),
(45,156,l),
(102,99,o),
(184,51,o),
(277,20,cs),
(370,-12,o),
(473,-30,o),
(578,-30,cs)
);
}
);
width = 1253;
},
{
layerId = "07F2E3F0-ED06-4523-9B4E-21C099677EF3";
shapes = (
{
closed = 1;
nodes = (
(705,-30,o),
(827,10,o),
(916,85,cs),
(1006,159,o),
(1062,266,o),
(1062,405,cs),
(1062,543,o),
(979,634,o),
(814,705,c),
(645,770,l),
(548,812,o),
(483,851,o),
(442,895,c),
(398,937,o),
(382,984,o),
(382,1037,cs),
(382,1140,o),
(423,1222,o),
(496,1281,c),
(569,1339,o),
(668,1371,o),
(781,1371,cs),
(859,1371,o),
(929,1361,o),
(999,1337,cs),
(1068,1314,o),
(1125,1281,o),
(1172,1235,c),
(1232,1294,l),
(1186,1338,o),
(1128,1373,o),
(1059,1400,cs),
(989,1426,o),
(910,1440,o),
(817,1440,cs),
(677,1440,o),
(551,1401,o),
(460,1326,cs),
(369,1252,o),
(312,1148,o),
(312,1015,cs),
(312,947,o),
(334,891,o),
(379,844,c),
(422,796,o),
(487,756,o),
(577,717,c),
(729,654,l),
(828,615,o),
(893,572,o),
(935,528,cs),
(978,484,o),
(996,436,o),
(996,383,cs),
(996,276,o),
(949,191,o),
(875,134,cs),
(800,75,o),
(697,44,o),
(575,44,cs),
(483,44,o),
(403,57,o),
(330,82,c),
(257,105,o),
(195,144,o),
(141,187,c),
(80,128,l),
(130,80,o),
(205,39,o),
(290,12,cs),
(376,-15,o),
(467,-30,o),
(562,-30,cs)
);
}
);
width = 1225;
}
);
leftKerningGroup = _S2;
rightKerningGroup = _S;
unicode = 83;
},
{
glyphname = T;
layers = (
{
layerId = "47B14137-3610-4366-97F9-C15552AB4A93";
shapes = (
{
closed = 1;
nodes = (
(658,0,l),
(937,1045,l),
(1302,1045,l),
(1399,1410,l),
(269,1410,l),
(172,1045,l),
(536,1045,l),
(255,0,l)
);
}
);
width = 1184;
},
{
layerId = "DCE18E71-776F-477B-AB8E-147A8D0BE437";
shapes = (
{
closed = 1;
nodes = (
(531,0,l),
(860,1222,l),
(1261,1222,l),
(1309,1410,l),
(303,1410,l),
(255,1222,l),
(655,1222,l),
(326,0,l)
);
}
);
width = 1115;
},
{
layerId = "07F2E3F0-ED06-4523-9B4E-21C099677EF3";
shapes = (
{
closed = 1;
nodes = (
(447,0,l),
(807,1340,l),
(1232,1340,l),
(1249,1410,l),
(325,1410,l),
(309,1340,l),
(734,1340,l),
(374,0,l)
);
}
);
width = 1068;
}
);
leftKerningGroup = _T2;
rightKerningGroup = _T;
unicode = 84;
},
{
glyphname = U;
layers = (
{
layerId = "47B14137-3610-4366-97F9-C15552AB4A93";
shapes = (
{
closed = 1;
nodes = (
(886,-30,o),
(1040,28,o),
(1161,137,cs),
(1283,245,o),
(1368,401,o),
(1420,598,cs),
(1638,1410,l),
(1236,1410,l),
(1012,577,l),
(988,494,o),
(953,436,o),
(906,399,cs),
(860,362,o),
(805,344,o),
(739,344,cs),
(657,344,o),
(604,364,o),
(576,404,cs),
(547,444,o),
(544,498,o),
(565,577,cs),
(789,1410,l),
(390,1410,l),
(172,598,l),
(119,398,o),
(150,243,o),
(245,135,cs),
(340,26,o),
(495,-30,o),
(701,-30,cs)
);
}
);
width = 1540;
},
{
layerId = "DCE18E71-776F-477B-AB8E-147A8D0BE437";
shapes = (
{
closed = 1;
nodes = (
(833,-30,o),
(975,28,o),
(1085,129,cs),
(1195,229,o),
(1274,372,o),
(1318,544,c),
(1552,1410,l),
(1347,1410,l),
(1116,549,l),
(1078,414,o),
(1021,317,o),
(947,256,c),
(874,192,o),
(785,163,o),
(684,163,cs),
(555,163,o),
(468,199,o),
(420,267,cs),
(372,334,o),
(364,427,o),
(399,549,c),
(630,1410,l),
(426,1410,l),
(192,544,ls),
(146,371,o),
(172,228,o),
(257,128,cs),
(341,27,o),
(477,-30,o),
(664,-30,cs)
);
}
);
width = 1473;
},
{
layerId = "07F2E3F0-ED06-4523-9B4E-21C099677EF3";
shapes = (
{
closed = 1;
nodes = (
(796,-30,o),
(930,27,o),
(1034,123,cs),
(1138,218,o),
(1210,352,o),
(1251,507,c),
(1494,1410,l),
(1421,1410,l),
(1185,530,ls),
(1139,359,o),
(1066,239,o),
(975,159,c),
(883,81,o),
(772,42,o),
(645,42,cs),
(485,42,o),
(377,90,o),
(315,174,c),
(255,261,o),
(245,379,o),
(287,530,c),
(523,1410,l),
(449,1410,l),
(205,507,l),
(164,351,o),
(187,217,o),
(264,122,cs),
(341,27,o),
(465,-30,o),
(638,-30,cs)
);
}
);
width = 1429;
}
);
leftKerningGroup = _U;
rightKerningGroup = _J;
unicode = 85;
},
{
glyphname = V;
layers = (
{
layerId = "47B14137-3610-4366-97F9-C15552AB4A93";
shapes = (
{
closed = 1;
nodes = (
(806,0,l),
(1704,1410,l),
(1232,1410,l),
(704,518,l),
(661,1410,l),
(220,1410,l),
(343,0,l)
);
}
);
width = 1436;
},
{
layerId = "DCE18E71-776F-477B-AB8E-147A8D0BE437";
shapes = (
{
closed = 1;
nodes = (
(634,0,l),
(1551,1410,l),
(1314,1410,l),
(600,282,l),
(484,1410,l),
(263,1410,l),
(422,0,l)
);
}
);
width = 1311;
},
{
layerId = "07F2E3F0-ED06-4523-9B4E-21C099677EF3";
shapes = (
{
closed = 1;
nodes = (
(520,0,l),
(1449,1410,l),
(1368,1410,l),
(531,125,l),
(368,1410,l),
(291,1410,l),
(475,0,l)
);
}
);
width = 1229;
}
);
leftKerningGroup = _V2;
rightKerningGroup = _V;
unicode = 86;
},
{
glyphname = W;
layers = (
{
layerId = "47B14137-3610-4366-97F9-C15552AB4A93";
shapes = (
{
closed = 1;
nodes = (
(691,0,l),
(1140,808,l),
(1144,0,l),
(1526,0,l),
(2333,1410,l),
(1911,1410,l),
(1505,633,l),
(1498,1410,l),
(1103,1410,l),
(657,623,l),
(667,1410,l),
(263,1410,l),
(312,0,l)
);
}
);
width = 2102;
},
{
layerId = "DCE18E71-776F-477B-AB8E-147A8D0BE437";
shapes = (
{
closed = 1;
nodes = (
(563,0,l),
(1190,1095,l),
(1218,0,l),
(1441,0,l),
(2241,1410,l),
(2021,1410,l),
(1404,286,l),
(1379,1410,l),
(1161,1410,l),
(523,277,l),
(509,1410,l),
(298,1410,l),
(343,0,l)
);
}
);
width = 2031;
},
{
layerId = "07F2E3F0-ED06-4523-9B4E-21C099677EF3";
shapes = (
{
closed = 1;
nodes = (
(477,0,l),
(1224,1285,l),
(1269,0,l),
(1383,0,l),
(2180,1410,l),
(2093,1410,l),
(1334,54,l),
(1300,1410,l),
(1200,1410,l),
(434,47,l),
(404,1410,l),
(321,1410,l),
(362,0,l)
);
}
);
width = 1984;
}
);
leftKerningGroup = _V2;
rightKerningGroup = _V;
unicode = 87;
},
{
glyphname = X;
layers = (
{
layerId = "47B14137-3610-4366-97F9-C15552AB4A93";
shapes = (
{
closed = 1;
nodes = (
(377,0,l),
(695,411,l),
(814,0,l),
(1278,0,l),
(1048,685,l),
(1658,1410,l),
(1156,1410,l),
(850,1025,l),
(737,1410,l),
(274,1410,l),
(498,741,l),
(-128,0,l)
);
}
);
width = 1421;
},
{
layerId = "DCE18E71-776F-477B-AB8E-147A8D0BE437";
shapes = (
{
closed = 1;
nodes = (
(178,0,l),
(689,573,l),
(916,0,l),
(1150,0,l),
(865,706,l),
(1516,1410,l),
(1266,1410,l),
(762,875,l),
(564,1410,l),
(331,1410,l),
(585,739,l),
(-75,0,l)
);
}
);
width = 1332;
},
{
layerId = "07F2E3F0-ED06-4523-9B4E-21C099677EF3";
shapes = (
{
closed = 1;
nodes = (
(45,0,l),
(685,681,l),
(984,0,l),
(1065,0,l),
(744,721,l),
(1421,1410,l),
(1339,1410,l),
(705,775,l),
(448,1410,l),
(370,1410,l),
(642,737,l),
(-39,0,l)
);
}
);
width = 1272;
}
);
leftKerningGroup = _X2;
rightKerningGroup = _X;
unicode = 88;
},
{
glyphname = Y;
layers = (
{
layerId = "47B14137-3610-4366-97F9-C15552AB4A93";
shapes = (
{
closed = 1;
nodes = (
(725,0,l),
(877,569,l),
(1600,1410,l),
(1137,1410,l),
(769,969,l),
(646,1410,l),
(223,1410,l),
(475,577,l),
(323,0,l)
);
}
);
width = 1338;
},
{
layerId = "DCE18E71-776F-477B-AB8E-147A8D0BE437";
shapes = (
{
closed = 1;
nodes = (
(586,0,l),
(748,611,l),
(1464,1410,l),
(1221,1410,l),
(695,816,l),
(488,1410,l),
(265,1410,l),
(544,612,l),
(382,0,l)
);
}
);
width = 1229;
},
{
layerId = "07F2E3F0-ED06-4523-9B4E-21C099677EF3";
shapes = (
{
closed = 1;
nodes = (
(492,0,l),
(663,638,l),
(1374,1410,l),
(1278,1410,l),
(643,713,l),
(383,1410,l),
(293,1410,l),
(589,635,l),
(420,0,l)
);
}
);
width = 1156;
}
);
leftKerningGroup = _Y2;
rightKerningGroup = _Y;
unicode = 89;
},
{
glyphname = Z;
layers = (
{
layerId = "47B14137-3610-4366-97F9-C15552AB4A93";
shapes = (
{
closed = 1;
nodes = (
(991,0,l),
(1089,365,l),
(539,365,l),
(1276,1074,l),
(1364,1410,l),
(333,1410,l),
(237,1045,l),
(759,1045,l),
(21,335,l),
(-68,0,l)
);
}
);
width = 1189;
},
{
layerId = "DCE18E71-776F-477B-AB8E-147A8D0BE437";
shapes = (
{
closed = 1;
nodes = (
(956,0,l),
(1006,187,l),
(270,187,l),
(1282,1234,l),
(1326,1410,l),
(363,1410,l),
(315,1222,l),
(1022,1222,l),
(9,175,l),
(-37,0,l)
);
}
);
width = 1166;
},
{
layerId = "07F2E3F0-ED06-4523-9B4E-21C099677EF3";
shapes = (
{
closed = 1;
nodes = (
(932,0,l),
(950,69,l),
(92,69,l),
(1285,1342,l),
(1301,1410,l),
(383,1410,l),
(367,1340,l),
(1196,1340,l),
(1,67,l),
(-16,0,l)
);
}
);
width = 1151;
}
);
leftKerningGroup = _Z2;
rightKerningGroup = _Z;
unicode = 90;
},
{
glyphname = bracketleft;
layers = (
{
layerId = "47B14137-3610-4366-97F9-C15552AB4A93";
shapes = (
{
closed = 1;
nodes = (
(451,-220,l),
(523,42,l),
(323,42,l),
(669,1338,l),
(869,1338,l),
(942,1600,l),
(431,1600,l),
(-60,-220,l)
);
}
);
width = 730;
},
{
layerId = "DCE18E71-776F-477B-AB8E-147A8D0BE437";
shapes = (
{
closed = 1;
nodes = (
(369,-220,l),
(408,-73,l),
(202,-73,l),
(614,1453,l),
(819,1453,l),
(860,1600,l),
(489,1600,l),
(-2,-220,l)
);
}
);
width = 686;
},
{
layerId = "07F2E3F0-ED06-4523-9B4E-21C099677EF3";
shapes = (
{
closed = 1;
nodes = (
(314,-220,l),
(332,-149,l),
(123,-149,l),
(576,1529,l),
(785,1529,l),
(805,1600,l),
(528,1600,l),
(37,-220,l)
);
}
);
width = 657;
}
);
leftKerningGroup = _bar2;
rightKerningGroup = _parenleft;
unicode = 91;
},
{
glyphname = backslash;
layers = (
{
layerId = "47B14137-3610-4366-97F9-C15552AB4A93";
shapes = (
{
closed = 1;
nodes = (
(823,-178,l),
(574,1610,l),
(220,1564,l),
(469,-230,l)
);
}
);
width = 947;
},
{
layerId = "DCE18E71-776F-477B-AB8E-147A8D0BE437";
shapes = (
{
closed = 1;
nodes = (
(736,-202,l),
(470,1610,l),
(285,1585,l),
(551,-230,l)
);
}
);
width = 909;
},
{
layerId = "07F2E3F0-ED06-4523-9B4E-21C099677EF3";
shapes = (
{
closed = 1;
nodes = (
(679,-218,l),
(400,1610,l),
(327,1598,l),
(606,-230,l)
);
}
);
width = 884;
}
);
unicode = 92;
},
{
glyphname = bracketright;
layers = (
{
layerId = "47B14137-3610-4366-97F9-C15552AB4A93";
shapes = (
{
closed = 1;
nodes = (
(884,1600,l),
(373,1600,l),
(302,1338,l),
(502,1338,l),
(152,42,l),
(-48,42,l),
(-116,-220,l),
(395,-220,l)
);
}
);
width = 730;
},
{
layerId = "DCE18E71-776F-477B-AB8E-147A8D0BE437";
shapes = (
{
closed = 1;
nodes = (
(796,1600,l),
(425,1600,l),
(383,1453,l),
(589,1453,l),
(180,-73,l),
(-26,-73,l),
(-64,-220,l),
(307,-220,l)
);
}
);
width = 686;
},
{
layerId = "07F2E3F0-ED06-4523-9B4E-21C099677EF3";
shapes = (
{
closed = 1;
nodes = (
(736,1600,l),
(460,1600,l),
(437,1529,l),
(646,1529,l),
(198,-149,l),
(-11,-149,l),
(-29,-220,l),
(247,-220,l)
);
}
);
width = 657;
}
);
leftKerningGroup = _parenright;
rightKerningGroup = _bar;
unicode = 93;
},
{
glyphname = asciicircum;
layers = (
{
layerId = "47B14137-3610-4366-97F9-C15552AB4A93";
shapes = (
{
closed = 1;
nodes = (
(559,789,l),
(842,1139,l),
(927,789,l),
(1245,789,l),
(1077,1410,l),
(720,1410,l),
(205,789,l)
);
}
);
width = 1296;
},
{
layerId = "DCE18E71-776F-477B-AB8E-147A8D0BE437";
shapes = (
{
closed = 1;
nodes = (
(485,836,l),
(868,1263,l),
(1022,836,l),
(1203,836,l),
(997,1410,l),
(800,1410,l),
(286,836,l)
);
}
);
width = 1296;
},
{
layerId = "07F2E3F0-ED06-4523-9B4E-21C099677EF3";
shapes = (
{
closed = 1;
nodes = (
(437,867,l),
(884,1344,l),
(1084,867,l),
(1176,867,l),
(943,1410,l),
(854,1410,l),
(339,867,l)
);
}
);
width = 1296;
}
);
leftKerningGroup = _plus2;
rightKerningGroup = _plus;
unicode = 94;
},
{
glyphname = underscore;
layers = (
{
layerId = "47B14137-3610-4366-97F9-C15552AB4A93";
shapes = (
{
closed = 1;
nodes = (
(868,-405,l),
(954,-94,l),
(-144,-94,l),
(-230,-405,l)
);
}
);
width = 1138;
},
{
layerId = "DCE18E71-776F-477B-AB8E-147A8D0BE437";
shapes = (
{
closed = 1;
nodes = (
(838,-320,l),
(883,-161,l),
(-148,-161,l),
(-192,-320,l)
);
}
);
width = 1084;
},
{
layerId = "07F2E3F0-ED06-4523-9B4E-21C099677EF3";
shapes = (
{
closed = 1;
nodes = (
(819,-263,l),
(835,-205,l),
(-150,-205,l),
(-167,-263,l)
);
}
);
width = 1048;
}
);
unicode = 95;
},
{
glyphname = a;
layers = (
{
layerId = "47B14137-3610-4366-97F9-C15552AB4A93";
shapes = (
{
closed = 1;
nodes = (
(530,-30,o),
(652,32,o),
(730,178,c),
(655,215,l),
(655,195,l),
(654,43,o),
(852,-31,o),
(975,-31,cs),
(989,-31,o),
(1020,-30,o),
(1033,-29,c),
(1113,214,l),
(1109,214,o),
(1107,214,o),
(1107,214,c),
(1043,214,o),
(1019,256,o),
(1038,323,cs),
(1101,540,ls),
(1207,908,o),
(967,1070,o),
(628,1070,cs),
(469,1070,o),
(331,1039,o),
(214,967,c),
(259,700,l),
(329,752,o),
(456,778,o),
(542,778,cs),
(655,778,o),
(784,750,o),
(743,606,c),
(684,401,ls),
(656,309,o),
(577,242,o),
(479,242,cs),
(433,242,o),
(360,262,o),
(360,320,cs),
(360,397,o),
(482,425,o),
(543,431,cs),
(605,437,o),
(668,437,o),
(737,428,c),
(800,647,l),
(716,655,o),
(639,658,o),
(546,655,cs),
(312,647,o),
(-6,563,o),
(-6,276,cs),
(-6,83,o),
(134,-30,o),
(321,-30,cs)
);
}
);
width = 1202;
},
{
layerId = "DCE18E71-776F-477B-AB8E-147A8D0BE437";
shapes = (
{
closed = 1;
nodes = (
(530,-30,o),
(664,28,o),
(751,167,c),
(737,237,l),
(734,219,ls),
(705,67,o),
(799,-33,o),
(956,-33,cs),
(966,-33,o),
(979,-33,o),
(990,-32,c),
(1042,124,l),
(1038,123,o),
(1023,122,o),
(1013,122,cs),
(920,122,o),
(926,219,o),
(947,292,cs),
(1036,605,l),
(1124,910,o),
(940,1070,o),
(646,1070,cs),
(505,1070,o),
(378,1037,o),
(263,961,c),
(287,801,l),
(372,860,o),
(498,900,o),
(602,900,cs),
(777,900,o),
(893,808,o),
(839,623,cs),
(770,386,ls),
(726,236,o),
(574,134,o),
(420,134,cs),
(324,134,o),
(222,178,o),
(222,288,cs),
(222,456,o),
(442,486,o),
(570,491,cs),
(659,494,o),
(756,488,o),
(846,476,c),
(882,612,l),
(808,622,o),
(738,628,o),
(672,629,c),
(422,637,o),
(25,590,o),
(25,261,cs),
(25,63,o),
(170,-30,o),
(355,-30,cs)
);
}
);
width = 1156;
},
{
layerId = "07F2E3F0-ED06-4523-9B4E-21C099677EF3";
shapes = (
{
closed = 1;
nodes = (
(530,-30,o),
(671,25,o),
(766,160,c),
(792,252,l),
(787,234,l),
(739,82,o),
(763,-34,o),
(943,-34,cs),
(950,-34,o),
(951,-35,o),
(961,-34,c),
(995,64,l),
(990,63,o),
(967,61,o),
(951,61,cs),
(838,61,o),
(864,194,o),
(886,271,cs),
(992,649,l),
(1068,911,o),
(921,1070,o),
(658,1070,cs),
(528,1070,o),
(409,1035,o),
(296,957,c),
(306,867,l),
(400,932,o),
(526,981,o),
(642,981,cs),
(858,981,o),
(965,847,o),
(902,633,cs),
(827,376,ls),
(773,188,o),
(571,61,o),
(380,61,cs),
(251,61,o),
(131,121,o),
(131,267,cs),
(131,495,o),
(417,526,o),
(588,531,c),
(694,532,o),
(815,522,o),
(919,508,c),
(937,589,l),
(869,601,o),
(803,607,o),
(755,611,cs),
(495,631,o),
(44,606,o),
(44,251,cs),
(44,48,o),
(193,-30,o),
(377,-30,cs)
);
}
);
width = 1126;
}
);
leftKerningGroup = _a2;
rightKerningGroup = _a;
unicode = 97;
},
{
glyphname = b;
layers = (
{
layerId = "47B14137-3610-4366-97F9-C15552AB4A93";
shapes = (
{
closed = 1;
nodes = (
(900,-30,o),
(1047,46,o),
(1152,165,cs),
(1257,284,o),
(1318,443,o),
(1318,616,cs),
(1318,749,o),
(1276,863,o),
(1196,943,cs),
(1116,1023,o),
(1002,1070,o),
(861,1070,cs),
(795,1070,o),
(739,1059,o),
(686,1034,cs),
(632,1010,o),
(583,975,o),
(527,922,c),
(596,808,l),
(771,1460,l),
(366,1420,l),
(-15,0,l),
(320,0,l),
(397,279,l),
(319,224,l),
(333,148,o),
(384,84,o),
(456,40,cs),
(528,-4,o),
(621,-30,o),
(723,-30,cs)
);
},
{
closed = 1;
nodes = (
(642,306,o),
(598,321,o),
(565,353,cs),
(532,385,o),
(514,428,o),
(514,482,cs),
(514,544,o),
(535,608,o),
(577,657,cs),
(618,705,o),
(677,735,o),
(751,735,cs),
(803,735,o),
(849,719,o),
(882,690,cs),
(914,661,o),
(932,619,o),
(932,567,cs),
(932,501,o),
(909,437,o),
(868,388,cs),
(827,337,o),
(767,306,o),
(696,306,cs)
);
}
);
width = 1364;
},
{
layerId = "DCE18E71-776F-477B-AB8E-147A8D0BE437";
shapes = (
{
closed = 1;
nodes = (
(860,-30,o),
(1009,45,o),
(1118,165,c),
(1225,285,o),
(1290,443,o),
(1290,614,cs),
(1290,745,o),
(1249,859,o),
(1167,940,cs),
(1085,1023,o),
(969,1070,o),
(824,1070,cs),
(734,1070,o),
(661,1052,o),
(593,1018,cs),
(526,983,o),
(469,934,o),
(413,876,c),
(443,799,l),
(616,1450,l),
(405,1430,l),
(23,0,l),
(209,0,l),
(279,256,l),
(239,248,l),
(265,166,o),
(318,98,o),
(395,48,cs),
(471,-2,o),
(569,-30,o),
(688,-30,cs)
);
},
{
closed = 1;
nodes = (
(578,157,o),
(501,183,o),
(446,235,cs),
(390,287,o),
(359,361,o),
(359,456,cs),
(359,569,o),
(398,677,o),
(471,759,cs),
(544,840,o),
(643,886,o),
(769,886,cs),
(863,886,o),
(941,860,o),
(996,809,cs),
(1050,758,o),
(1081,686,o),
(1081,598,cs),
(1081,481,o),
(1039,371,o),
(969,290,cs),
(899,207,o),
(798,157,o),
(676,157,cs)
);
}
);
width = 1360;
},
{
layerId = "07F2E3F0-ED06-4523-9B4E-21C099677EF3";
shapes = (
{
closed = 1;
nodes = (
(833,-30,o),
(984,44,o),
(1095,165,cs),
(1204,285,o),
(1271,443,o),
(1271,612,cs),
(1271,742,o),
(1230,856,o),
(1148,938,cs),
(1064,1022,o),
(948,1070,o),
(799,1070,cs),
(692,1070,o),
(608,1048,o),
(531,1006,cs),
(456,965,o),
(394,907,o),
(338,844,c),
(341,793,l),
(512,1444,l),
(431,1436,l),
(47,0,l),
(136,0,l),
(201,241,l),
(185,263,l),
(218,178,o),
(274,106,o),
(353,52,c),
(432,0,o),
(534,-30,o),
(665,-30,cs)
);
},
{
closed = 1;
nodes = (
(536,58,o),
(437,90,o),
(367,157,cs),
(295,223,o),
(257,316,o),
(257,438,cs),
(257,585,o),
(307,724,o),
(401,826,c),
(493,928,o),
(621,987,o),
(781,987,cs),
(903,987,o),
(1001,954,o),
(1071,887,cs),
(1142,822,o),
(1179,730,o),
(1179,617,cs),
(1179,466,o),
(1125,327,o),
(1036,224,cs),
(947,120,o),
(817,58,o),
(663,58,cs)
);
}
);
width = 1357;
}
);
leftKerningGroup = _b2;
rightKerningGroup = _b;
unicode = 98;
},
{
glyphname = c;
layers = (
{
layerId = "47B14137-3610-4366-97F9-C15552AB4A93";
shapes = (
{
closed = 1;
nodes = (
(702,-30,o),
(850,9,o),
(973,77,c),
(897,393,l),
(813,333,o),
(730,305,o),
(645,305,cs),
(575,305,o),
(521,321,o),
(485,353,cs),
(449,385,o),
(429,431,o),
(429,492,cs),
(429,558,o),
(453,619,o),
(497,663,cs),
(541,708,o),
(601,735,o),
(683,735,cs),
(776,735,o),
(859,707,o),
(920,631,c),
(1150,900,l),
(1039,1013,o),
(886,1070,o),
(704,1070,cs),
(524,1070,o),
(359,1003,o),
(236,890,cs),
(112,777,o),
(36,620,o),
(36,445,cs),
(36,308,o),
(90,190,o),
(183,106,c),
(274,21,o),
(404,-30,o),
(565,-30,cs)
);
}
);
width = 1105;
},
{
layerId = "DCE18E71-776F-477B-AB8E-147A8D0BE437";
shapes = (
{
closed = 1;
nodes = (
(688,-30,o),
(810,6,o),
(923,71,c),
(855,237,l),
(787,185,o),
(694,153,o),
(602,153,cs),
(495,153,o),
(413,182,o),
(357,234,cs),
(301,286,o),
(270,360,o),
(270,452,cs),
(270,572,o),
(309,682,o),
(382,761,cs),
(454,840,o),
(555,886,o),
(686,886,cs),
(803,886,o),
(895,857,o),
(957,787,c),
(1094,934,l),
(996,1029,o),
(875,1070,o),
(719,1070,cs),
(536,1070,o),
(372,1005,o),
(252,890,cs),
(132,776,o),
(58,617,o),
(58,437,cs),
(58,301,o),
(108,185,o),
(197,103,c),
(285,18,o),
(408,-30,o),
(565,-30,cs)
);
}
);
width = 1084;
},
{
layerId = "07F2E3F0-ED06-4523-9B4E-21C099677EF3";
shapes = (
{
closed = 1;
nodes = (
(679,-30,o),
(783,3,o),
(889,68,c),
(827,132,l),
(771,86,o),
(670,52,o),
(574,52,cs),
(442,52,o),
(341,89,o),
(272,155,cs),
(202,220,o),
(163,313,o),
(163,425,cs),
(163,581,o),
(213,724,o),
(305,826,c),
(397,927,o),
(523,987,o),
(688,987,cs),
(819,987,o),
(918,958,o),
(981,889,c),
(1056,955,l),
(968,1039,o),
(868,1070,o),
(729,1070,cs),
(543,1070,o),
(380,1006,o),
(262,890,cs),
(145,775,o),
(73,614,o),
(73,431,cs),
(73,297,o),
(120,182,o),
(206,100,c),
(291,16,o),
(410,-30,o),
(565,-30,cs)
);
}
);
width = 1069;
}
);
leftKerningGroup = _c2;
rightKerningGroup = _c;
unicode = 99;
},
{
glyphname = d;
layers = (
{
layerId = "47B14137-3610-4366-97F9-C15552AB4A93";
shapes = (
{
closed = 1;
nodes = (
(583,-30,o),
(656,-11,o),
(719,24,cs),
(782,59,o),
(831,109,o),
(868,173,c),
(838,281,l),
(763,0,l),
(1098,0,l),
(1493,1460,l),
(1089,1420,l),
(926,808,l),
(1035,874,l),
(998,942,o),
(943,991,o),
(875,1023,cs),
(807,1056,o),
(733,1070,o),
(652,1070,cs),
(477,1070,o),
(325,996,o),
(217,875,cs),
(109,754,o),
(43,591,o),
(43,414,cs),
(43,277,o),
(90,166,o),
(171,90,cs),
(251,13,o),
(362,-30,o),
(499,-30,cs)
);
},
{
closed = 1;
nodes = (
(562,305,o),
(515,321,o),
(483,353,cs),
(450,385,o),
(431,426,o),
(431,479,cs),
(431,546,o),
(454,609,o),
(496,658,cs),
(537,706,o),
(598,735,o),
(669,735,cs),
(722,735,o),
(768,718,o),
(801,688,cs),
(834,658,o),
(852,612,o),
(852,559,cs),
(852,496,o),
(829,432,o),
(787,384,cs),
(744,336,o),
(686,305,o),
(612,305,cs)
);
}
);
width = 1364;
},
{
layerId = "DCE18E71-776F-477B-AB8E-147A8D0BE437";
shapes = (
{
closed = 1;
nodes = (
(637,-30,o),
(716,-9,o),
(783,27,cs),
(851,63,o),
(902,116,o),
(953,174,c),
(937,246,l),
(871,0,l),
(1057,0,l),
(1448,1450,l),
(1238,1430,l),
(1071,805,l),
(1123,821,l),
(1088,897,o),
(1034,961,o),
(956,1004,cs),
(879,1048,o),
(788,1070,o),
(676,1070,cs),
(508,1070,o),
(355,997,o),
(247,879,cs),
(138,760,o),
(69,597,o),
(69,425,cs),
(69,289,o),
(117,175,o),
(199,94,cs),
(282,14,o),
(397,-30,o),
(542,-30,cs)
);
},
{
closed = 1;
nodes = (
(498,153,o),
(420,181,o),
(365,234,cs),
(309,287,o),
(279,359,o),
(279,449,cs),
(279,570,o),
(320,677,o),
(393,759,cs),
(465,839,o),
(565,886,o),
(684,886,cs),
(780,886,o),
(860,860,o),
(915,808,cs),
(970,757,o),
(1001,681,o),
(1001,589,cs),
(1001,470,o),
(960,360,o),
(888,282,cs),
(814,203,o),
(714,153,o),
(592,153,cs)
);
}
);
width = 1360;
},
{
layerId = "07F2E3F0-ED06-4523-9B4E-21C099677EF3";
shapes = (
{
closed = 1;
nodes = (
(673,-30,o),
(756,-7,o),
(825,29,cs),
(896,65,o),
(950,119,o),
(1009,175,c),
(1002,223,l),
(941,0,l),
(1030,0,l),
(1418,1444,l),
(1336,1436,l),
(1167,803,l),
(1182,786,l),
(1148,867,o),
(1094,940,o),
(1010,992,cs),
(927,1042,o),
(824,1070,o),
(691,1070,cs),
(527,1070,o),
(374,998,o),
(266,881,cs),
(157,763,o),
(85,600,o),
(85,431,cs),
(85,296,o),
(133,181,o),
(217,97,cs),
(301,14,o),
(420,-30,o),
(570,-30,cs)
);
},
{
closed = 1;
nodes = (
(454,52,o),
(356,87,o),
(286,155,cs),
(215,221,o),
(178,315,o),
(178,428,cs),
(178,585,o),
(231,722,o),
(324,825,cs),
(417,927,o),
(544,987,o),
(694,987,cs),
(818,987,o),
(920,954,o),
(990,887,cs),
(1059,823,o),
(1099,726,o),
(1099,608,cs),
(1099,452,o),
(1047,312,o),
(954,213,cs),
(861,115,o),
(732,52,o),
(577,52,cs)
);
}
);
width = 1357;
}
);
leftKerningGroup = _c2;
rightKerningGroup = _d;
unicode = 100;
},
{
glyphname = e;
layers = (
{
layerId = "47B14137-3610-4366-97F9-C15552AB4A93";
shapes = (
{
closed = 1;
nodes = (
(646,-30,o),
(724,-21,o),
(800,-6,cs),
(876,9,o),
(944,31,o),
(996,56,c),
(945,333,l),
(841,288,o),
(749,266,o),
(641,266,cs),
(575,266,o),
(513,275,o),
(466,299,cs),
(418,324,o),
(388,360,o),
(388,410,c),
(1149,410,l),
(1213,593,o),
(1199,755,o),
(1116,876,cs),
(1031,996,o),
(884,1070,o),
(680,1070,cs),
(498,1070,o),
(341,1007,o),
(228,895,cs),
(115,781,o),
(46,628,o),
(46,444,cs),
(46,304,o),
(95,188,o),
(187,104,cs),
(279,19,o),
(407,-30,o),
(574,-30,cs)
);
},
{
closed = 1;
nodes = (
(466,667,l),
(474,708,o),
(496,739,o),
(529,761,cs),
(562,782,o),
(607,794,o),
(655,794,cs),
(705,794,o),
(748,786,o),
(778,765,c),
(807,743,o),
(825,712,o),
(824,667,c)
);
}
);
width = 1222;
},
{
layerId = "DCE18E71-776F-477B-AB8E-147A8D0BE437";
shapes = (
{
closed = 1;
nodes = (
(641,-30,o),
(709,-24,o),
(774,-8,cs),
(839,9,o),
(902,31,o),
(957,63,c),
(909,223,l),
(817,167,o),
(715,141,o),
(612,141,cs),
(502,141,o),
(408,168,o),
(345,226,cs),
(283,284,o),
(253,368,o),
(267,478,c),
(1121,478,l),
(1168,639,o),
(1153,785,o),
(1076,894,cs),
(999,1003,o),
(870,1070,o),
(693,1070,cs),
(515,1070,o),
(361,1001,o),
(249,882,cs),
(136,762,o),
(68,604,o),
(68,426,cs),
(68,290,o),
(117,176,o),
(206,96,cs),
(294,15,o),
(421,-30,o),
(580,-30,cs)
);
},
{
closed = 1;
nodes = (
(312,634,l),
(333,722,o),
(378,790,o),
(439,836,cs),
(500,881,o),
(580,904,o),
(666,904,cs),
(757,904,o),
(832,888,o),
(880,843,cs),
(930,798,o),
(954,730,o),
(946,634,c)
);
}
);
width = 1202;
},
{
layerId = "07F2E3F0-ED06-4523-9B4E-21C099677EF3";
shapes = (
{
closed = 1;
nodes = (
(638,-30,o),
(699,-26,o),
(758,-9,cs),
(815,8,o),
(874,31,o),
(932,66,c),
(885,150,l),
(801,88,o),
(692,59,o),
(593,59,cs),
(452,59,o),
(338,98,o),
(264,178,cs),
(192,257,o),
(162,374,o),
(188,522,c),
(1102,522,l),
(1138,670,o),
(1121,804,o),
(1049,906,cs),
(978,1007,o),
(860,1070,o),
(701,1070,cs),
(527,1070,o),
(374,998,o),
(262,873,c),
(149,750,o),
(83,588,o),
(83,414,cs),
(83,280,o),
(132,168,o),
(218,90,cs),
(304,12,o),
(429,-30,o),
(583,-30,cs)
);
},
{
closed = 1;
nodes = (
(210,613,l),
(239,732,o),
(299,824,o),
(379,886,cs),
(458,947,o),
(561,977,o),
(673,977,cs),
(792,977,o),
(888,955,o),
(949,894,c),
(1011,834,o),
(1040,742,o),
(1027,613,c)
);
}
);
width = 1189;
}
);
leftKerningGroup = _c2;
rightKerningGroup = _b;
unicode = 101;
},
{
glyphname = f;
layers = (
{
layerId = "47B14137-3610-4366-97F9-C15552AB4A93";
shapes = (
{
closed = 1;
nodes = (
(460,0,l),
(658,733,l),
(900,733,l),
(981,1040,l),
(738,1040,l),
(748,1067,l),
(755,1095,o),
(768,1116,o),
(788,1130,cs),
(807,1143,o),
(832,1149,o),
(862,1149,cs),
(894,1149,o),
(931,1144,o),
(966,1116,c),
(1093,1399,l),
(1006,1455,o),
(908,1470,o),
(811,1470,cs),
(573,1470,o),
(425,1332,o),
(359,1089,c),
(67,0,l)
);
},
{
closed = 1;
nodes = (
(296,733,l),
(375,1040,l),
(178,1040,l),
(99,733,l)
);
}
);
width = 880;
},
{
layerId = "DCE18E71-776F-477B-AB8E-147A8D0BE437";
shapes = (
{
closed = 1;
nodes = (
(322,0,l),
(560,874,l),
(821,874,l),
(865,1040,l),
(603,1040,l),
(633,1152,l),
(646,1205,o),
(667,1243,o),
(695,1265,cs),
(723,1286,o),
(756,1297,o),
(792,1297,cs),
(832,1297,o),
(873,1290,o),
(914,1265,c),
(991,1415,l),
(942,1451,o),
(881,1470,o),
(795,1470,cs),
(616,1470,o),
(491,1363,o),
(437,1160,cs),
(125,0,l)
);
},
{
closed = 1;
nodes = (
(391,874,l),
(432,1040,l),
(201,1040,l),
(160,874,l)
);
}
);
width = 765;
},
{
layerId = "07F2E3F0-ED06-4523-9B4E-21C099677EF3";
shapes = (
{
closed = 1;
nodes = (
(231,0,l),
(494,968,l),
(768,968,l),
(788,1040,l),
(514,1040,l),
(556,1209,ls),
(573,1278,o),
(600,1326,o),
(633,1353,cs),
(667,1381,o),
(705,1395,o),
(745,1395,cs),
(790,1395,o),
(834,1388,o),
(879,1364,c),
(922,1425,l),
(900,1448,o),
(862,1470,o),
(783,1470,cs),
(644,1470,o),
(525,1382,o),
(480,1208,c),
(153,0,l)
);
},
{
closed = 1;
nodes = (
(453,968,l),
(470,1040,l),
(216,1040,l),
(200,968,l)
);
}
);
width = 689;
}
);
leftKerningGroup = _f2;
rightKerningGroup = _f;
unicode = 102;
},
{
glyphname = g;
layers = (
{
layerId = "47B14137-3610-4366-97F9-C15552AB4A93";
shapes = (
{
closed = 1;
nodes = (
(458,-450,o),
(498,-448,o),
(541,-444,cs),
(627,-435,o),
(717,-415,o),
(800,-380,cs),
(841,-363,o),
(878,-341,o),
(910,-315,cs),
(974,-263,o),
(1016,-192,o),
(1016,-99,cs),
(1016,-21,o),
(976,36,o),
(917,79,cs),
(858,122,o),
(777,150,o),
(697,169,cs),
(514,212,ls),
(440,229,o),
(388,246,o),
(388,275,cs),
(388,303,o),
(418,318,o),
(453,325,cs),
(487,331,o),
(526,329,o),
(546,329,c),
(516,469,l),
(491,470,o),
(463,469,o),
(430,467,cs),
(365,462,o),
(296,449,o),
(231,425,cs),
(199,413,o),
(170,398,o),
(145,379,cs),
(94,342,o),
(60,292,o),
(60,223,cs),
(60,164,o),
(84,114,o),
(131,78,c),
(67,73,o),
(-5,52,o),
(-62,14,cs),
(-119,-25,o),
(-159,-80,o),
(-159,-157,cs),
(-159,-197,o),
(-149,-232,o),
(-129,-262,cs),
(-88,-322,o),
(-20,-366,o),
(64,-395,cs),
(106,-409,o),
(149,-420,o),
(192,-428,cs),
(277,-444,o),
(361,-450,o),
(422,-450,cs)
);
},
{
closed = 1;
nodes = (
(431,-221,o),
(417,-220,o),
(400,-219,cs),
(367,-216,o),
(327,-210,o),
(290,-199,c),
(271,-192,o),
(255,-185,o),
(240,-177,cs),
(210,-161,o),
(189,-138,o),
(189,-106,cs),
(189,-77,o),
(213,-58,o),
(245,-47,cs),
(277,-37,o),
(313,-35,o),
(337,-38,c),
(533,-78,l),
(552,-83,o),
(581,-89,o),
(604,-100,c),
(628,-110,o),
(647,-126,o),
(647,-149,cs),
(647,-184,o),
(608,-201,o),
(563,-211,cs),
(518,-221,o),
(467,-221,o),
(442,-221,cs)
);
},
{
closed = 1;
nodes = (
(707,321,o),
(833,357,o),
(930,425,cs),
(1025,493,o),
(1093,594,o),
(1093,725,cs),
(1093,849,o),
(1031,936,o),
(942,991,cs),
(853,1046,o),
(738,1070,o),
(632,1070,cs),
(513,1070,o),
(388,1036,o),
(294,968,cs),
(198,900,o),
(132,799,o),
(132,666,cs),
(132,546,o),
(195,459,o),
(283,403,cs),
(372,347,o),
(486,321,o),
(590,321,cs)
);
},
{
closed = 1;
nodes = (
(572,577,o),
(534,587,o),
(505,605,cs),
(476,623,o),
(455,652,o),
(455,692,cs),
(455,732,o),
(479,763,o),
(511,784,cs),
(543,805,o),
(584,815,o),
(620,815,cs),
(654,815,o),
(689,807,o),
(718,791,c),
(746,773,o),
(765,746,o),
(765,708,cs),
(765,666,o),
(744,633,o),
(714,612,cs),
(684,590,o),
(644,577,o),
(607,577,cs)
);
},
{
closed = 1;
nodes = (
(1251,733,l),
(1373,1040,l),
(723,1040,l),
(768,832,l),
(882,797,o),
(976,772,o),
(1054,757,cs),
(1133,741,o),
(1196,733,o),
(1249,733,cs)
);
}
);
width = 1249;
},
{
layerId = "DCE18E71-776F-477B-AB8E-147A8D0BE437";
shapes = (
{
closed = 1;
nodes = (
(451,-450,o),
(489,-449,o),
(529,-444,cs),
(610,-435,o),
(691,-413,o),
(767,-379,c),
(804,-361,o),
(837,-340,o),
(866,-315,c),
(923,-263,o),
(960,-195,o),
(960,-106,cs),
(960,-42,o),
(929,12,o),
(872,54,cs),
(817,96,o),
(733,128,o),
(629,150,cs),
(454,187,l),
(353,210,o),
(308,232,o),
(308,270,cs),
(308,308,o),
(344,332,o),
(390,346,cs),
(436,359,o),
(496,363,o),
(543,360,c),
(522,453,l),
(487,452,o),
(453,451,o),
(420,447,cs),
(352,439,o),
(292,423,o),
(240,400,cs),
(215,389,o),
(193,375,o),
(174,359,cs),
(137,326,o),
(115,285,o),
(115,234,cs),
(115,188,o),
(142,142,o),
(200,102,c),
(121,97,o),
(42,74,o),
(-19,34,cs),
(-81,-6,o),
(-121,-65,o),
(-121,-144,cs),
(-121,-182,o),
(-113,-215,o),
(-97,-245,cs),
(-65,-304,o),
(-9,-349,o),
(64,-381,cs),
(99,-397,o),
(137,-410,o),
(178,-421,cs),
(257,-441,o),
(341,-450,o),
(415,-450,cs)
);
},
{
closed = 1;
nodes = (
(423,-309,o),
(400,-308,o),
(375,-305,cs),
(324,-300,o),
(269,-289,o),
(217,-270,cs),
(191,-261,o),
(168,-249,o),
(148,-235,cs),
(107,-206,o),
(79,-167,o),
(79,-116,cs),
(79,-63,o),
(114,-24,o),
(167,0,cs),
(219,25,o),
(286,36,o),
(351,31,c),
(534,-7,ls),
(600,-21,o),
(656,-39,o),
(693,-61,cs),
(732,-84,o),
(753,-112,o),
(753,-146,cs),
(753,-198,o),
(717,-239,o),
(661,-266,cs),
(603,-295,o),
(525,-309,o),
(442,-309,cs)
);
},
{
closed = 1;
nodes = (
(708,342,o),
(829,385,o),
(919,455,cs),
(1008,525,o),
(1067,623,o),
(1067,735,cs),
(1067,838,o),
(1018,922,o),
(940,980,cs),
(862,1038,o),
(755,1070,o),
(640,1070,cs),
(518,1070,o),
(399,1029,o),
(310,959,cs),
(221,889,o),
(162,790,o),
(162,675,cs),
(162,574,o),
(212,491,o),
(290,433,cs),
(366,375,o),
(472,342,o),
(585,342,cs)
);
},
{
closed = 1;
nodes = (
(529,500,o),
(468,518,o),
(424,549,cs),
(380,580,o),
(354,627,o),
(354,685,cs),
(354,746,o),
(384,803,o),
(433,845,cs),
(481,886,o),
(550,913,o),
(628,913,cs),
(699,913,o),
(759,896,o),
(803,866,c),
(846,835,o),
(872,790,o),
(872,735,cs),
(872,672,o),
(843,613,o),
(795,571,cs),
(747,528,o),
(680,500,o),
(601,500,cs)
);
},
{
closed = 1;
nodes = (
(1247,869,l),
(1321,1039,l),
(788,1039,l),
(806,935,l),
(893,912,o),
(965,895,o),
(1028,885,cs),
(1092,874,o),
(1148,869,o),
(1203,869,cs)
);
}
);
width = 1230;
},
{
layerId = "07F2E3F0-ED06-4523-9B4E-21C099677EF3";
shapes = (
{
closed = 1;
nodes = (
(445,-450,o),
(483,-449,o),
(521,-444,cs),
(598,-435,o),
(675,-411,o),
(745,-378,c),
(779,-359,o),
(810,-339,o),
(837,-314,c),
(888,-263,o),
(922,-197,o),
(922,-109,cs),
(922,-57,o),
(896,-4,o),
(842,38,cs),
(789,80,o),
(704,113,o),
(584,137,cs),
(413,171,l),
(294,197,o),
(255,222,o),
(255,267,cs),
(255,311,o),
(293,341,o),
(348,359,cs),
(401,377,o),
(475,385,o),
(541,379,c),
(525,441,l),
(484,440,o),
(447,439,o),
(413,434,cs),
(344,424,o),
(289,407,o),
(246,384,cs),
(225,373,o),
(208,360,o),
(193,344,cs),
(165,314,o),
(153,281,o),
(153,241,cs),
(153,203,o),
(180,160,o),
(247,118,c),
(157,112,o),
(73,89,o),
(9,47,c),
(-56,6,o),
(-96,-55,o),
(-96,-136,cs),
(-96,-172,o),
(-89,-203,o),
(-76,-233,cs),
(-49,-292,o),
(-2,-337,o),
(63,-372,cs),
(95,-389,o),
(129,-404,o),
(168,-415,c),
(242,-438,o),
(326,-450,o),
(411,-450,cs)
);
},
{
closed = 1;
nodes = (
(417,-368,o),
(388,-365,o),
(359,-362,cs),
(296,-356,o),
(230,-342,o),
(169,-318,cs),
(138,-306,o),
(109,-291,o),
(87,-273,c),
(38,-235,o),
(6,-186,o),
(6,-122,cs),
(6,-54,o),
(48,-2,o),
(114,33,cs),
(180,66,o),
(267,83,o),
(359,78,c),
(535,41,ls),
(633,21,o),
(706,-4,o),
(753,-36,cs),
(801,-68,o),
(823,-103,o),
(823,-144,cs),
(823,-207,o),
(790,-263,o),
(726,-304,c),
(659,-343,o),
(564,-366,o),
(441,-366,c)
);
},
{
closed = 1;
nodes = (
(709,357,o),
(826,403,o),
(912,474,c),
(996,546,o),
(1051,642,o),
(1051,741,cs),
(1051,831,o),
(1009,913,o),
(938,973,cs),
(868,1032,o),
(765,1070,o),
(644,1070,cs),
(521,1070,o),
(406,1025,o),
(320,953,cs),
(236,882,o),
(181,784,o),
(181,681,cs),
(181,593,o),
(222,512,o),
(293,452,cs),
(363,393,o),
(463,357,o),
(582,357,cs)
);
},
{
closed = 1;
nodes = (
(501,449,o),
(424,471,o),
(370,511,cs),
(316,552,o),
(287,611,o),
(287,679,cs),
(287,754,o),
(321,828,o),
(380,886,c),
(439,940,o),
(528,978,o),
(634,978,cs),
(728,978,o),
(806,956,o),
(860,916,cs),
(912,876,o),
(942,819,o),
(942,753,cs),
(942,675,o),
(909,598,o),
(849,543,cs),
(789,486,o),
(703,449,o),
(598,449,cs)
);
},
{
closed = 1;
nodes = (
(1244,958,l),
(1286,1038,l),
(832,1038,l),
(830,1004,l),
(900,988,o),
(958,977,o),
(1012,969,cs),
(1065,962,o),
(1115,958,o),
(1171,958,cs)
);
}
);
width = 1217;
}
);
leftKerningGroup = _g2;
rightKerningGroup = _g;
unicode = 103;
},
{
glyphname = h;
layers = (
{
layerId = "47B14137-3610-4366-97F9-C15552AB4A93";
shapes = (
{
closed = 1;
nodes = (
(383,0,l),
(527,536,ls),
(544,597,o),
(570,642,o),
(604,672,cs),
(638,701,o),
(678,716,o),
(728,716,cs),
(789,716,o),
(827,702,o),
(848,670,cs),
(868,639,o),
(870,594,o),
(854,537,cs),
(711,0,l),
(1104,0,l),
(1277,647,l),
(1308,775,o),
(1286,879,o),
(1226,954,cs),
(1166,1030,o),
(1072,1070,o),
(956,1070,cs),
(816,1070,o),
(694,1008,o),
(592,918,c),
(598,795,l),
(777,1460,l),
(375,1420,l),
(-11,0,l)
);
}
);
width = 1363;
},
{
layerId = "DCE18E71-776F-477B-AB8E-147A8D0BE437";
shapes = (
{
closed = 1;
nodes = (
(233,0,l),
(393,592,l),
(418,689,o),
(464,761,o),
(526,809,cs),
(587,857,o),
(657,880,o),
(735,880,cs),
(817,880,o),
(883,858,o),
(922,813,cs),
(962,768,o),
(974,705,o),
(953,625,cs),
(784,0,l),
(989,0,l),
(1173,684,l),
(1201,801,o),
(1172,898,o),
(1108,966,cs),
(1044,1034,o),
(946,1070,o),
(835,1070,cs),
(701,1070,o),
(568,1019,o),
(457,902,c),
(458,833,l),
(627,1450,l),
(416,1430,l),
(27,0,l)
);
}
);
width = 1285;
},
{
layerId = "07F2E3F0-ED06-4523-9B4E-21C099677EF3";
shapes = (
{
closed = 1;
nodes = (
(132,0,l),
(304,630,l),
(335,750,o),
(394,840,o),
(473,901,cs),
(552,961,o),
(642,989,o),
(739,989,cs),
(836,989,o),
(921,963,o),
(972,909,cs),
(1024,853,o),
(1043,778,o),
(1018,682,c),
(832,0,l),
(912,0,l),
(1103,708,l),
(1129,817,o),
(1096,910,o),
(1030,973,cs),
(963,1037,o),
(863,1070,o),
(754,1070,cs),
(625,1070,o),
(485,1026,o),
(366,890,c),
(364,857,l),
(523,1444,l),
(444,1436,l),
(52,0,l)
);
}
);
width = 1232;
}
);
leftKerningGroup = _b2;
rightKerningGroup = _a;
unicode = 104;
},
{
glyphname = k;
layers = (
{
layerId = "47B14137-3610-4366-97F9-C15552AB4A93";
shapes = (
{
closed = 1;
nodes = (
(382,0,l),
(456,271,l),
(546,350,l),
(669,0,l),
(1114,0,l),
(883,593,l),
(1369,1040,l),
(891,1040,l),
(587,767,l),
(776,1460,l),
(374,1420,l),
(-12,0,l)
);
}
);
width = 1268;
},
{
layerId = "DCE18E71-776F-477B-AB8E-147A8D0BE437";
shapes = (
{
closed = 1;
nodes = (
(231,0,l),
(327,351,l),
(531,514,l),
(735,0,l),
(971,0,l),
(709,640,l),
(1187,1040,l),
(931,1040,l),
(397,612,l),
(622,1450,l),
(411,1430,l),
(26,0,l)
);
}
);
width = 1160;
},
{
layerId = "07F2E3F0-ED06-4523-9B4E-21C099677EF3";
shapes = (
{
closed = 1;
nodes = (
(130,0,l),
(241,404,l),
(521,623,l),
(779,0,l),
(875,0,l),
(593,671,l),
(1066,1040,l),
(956,1040,l),
(270,510,l),
(517,1444,l),
(437,1437,l),
(50,0,l)
);
}
);
width = 1087;
}
);
leftKerningGroup = _b2;
rightKerningGroup = _k;
unicode = 107;
},
{
glyphname = l;
layers = (
{
layerId = "47B14137-3610-4366-97F9-C15552AB4A93";
shapes = (
{
closed = 1;
nodes = (
(479,-30,o),
(551,-14,o),
(618,10,c),
(631,314,l),
(608,307,o),
(586,303,o),
(563,303,cs),
(521,303,o),
(489,324,o),
(489,369,cs),
(489,383,o),
(492,398,o),
(496,411,cs),
(781,1460,l),
(380,1420,l),
(88,348,ls),
(80,317,o),
(74,288,o),
(74,256,cs),
(74,64,o),
(230,-30,o),
(407,-30,cs)
);
}
);
width = 766;
},
{
layerId = "DCE18E71-776F-477B-AB8E-147A8D0BE437";
shapes = (
{
closed = 1;
nodes = (
(371,-30,o),
(430,-20,o),
(486,-2,c),
(483,165,l),
(450,156,o),
(416,148,o),
(381,148,cs),
(327,148,o),
(302,176,o),
(302,229,cs),
(302,255,o),
(307,281,o),
(313,305,cs),
(623,1450,l),
(419,1430,l),
(100,254,ls),
(92,225,o),
(86,196,o),
(86,166,cs),
(86,30,o),
(188,-30,o),
(312,-30,cs)
);
}
);
width = 642;
},
{
layerId = "07F2E3F0-ED06-4523-9B4E-21C099677EF3";
shapes = (
{
closed = 1;
nodes = (
(299,-30,o),
(350,-24,o),
(398,-10,c),
(385,64,l),
(344,55,o),
(303,44,o),
(261,44,cs),
(210,44,o),
(176,69,o),
(176,123,cs),
(176,159,o),
(188,200,o),
(197,235,cs),
(520,1444,l),
(441,1436,l),
(102,191,ls),
(95,166,o),
(90,140,o),
(90,114,cs),
(90,14,o),
(153,-30,o),
(249,-30,cs)
);
}
);
width = 560;
}
);
leftKerningGroup = _b2;
rightKerningGroup = _d;
unicode = 108;
},
{
glyphname = m;
layers = (
{
layerId = "47B14137-3610-4366-97F9-C15552AB4A93";
shapes = (
{
closed = 1;
nodes = (
(383,0,l),
(539,587,ls),
(550,629,o),
(574,661,o),
(606,683,c),
(638,703,o),
(680,716,o),
(722,716,cs),
(771,716,o),
(803,703,o),
(821,676,cs),
(839,648,o),
(841,609,o),
(827,551,c),
(681,0,l),
(1074,0,l),
(1230,587,ls),
(1242,629,o),
(1266,661,o),
(1298,683,c),
(1330,703,o),
(1372,716,o),
(1414,716,cs),
(1462,716,o),
(1495,703,o),
(1512,676,cs),
(1530,648,o),
(1532,609,o),
(1519,551,c),
(1372,0,l),
(1765,0,l),
(1943,663,l),
(1977,802,o),
(1959,903,o),
(1906,971,cs),
(1853,1039,o),
(1765,1070,o),
(1652,1070,cs),
(1572,1070,o),
(1490,1055,o),
(1421,1020,cs),
(1352,985,o),
(1291,934,o),
(1247,866,c),
(1240,926,o),
(1213,977,o),
(1169,1014,cs),
(1124,1050,o),
(1062,1070,o),
(985,1070,cs),
(913,1070,o),
(840,1050,o),
(772,1013,cs),
(704,976,o),
(648,920,o),
(615,847,c),
(663,1040,l),
(269,1040,l),
(-11,0,l)
);
}
);
width = 2025;
},
{
layerId = "DCE18E71-776F-477B-AB8E-147A8D0BE437";
shapes = (
{
closed = 1;
nodes = (
(233,0,l),
(395,608,ls),
(419,697,o),
(466,765,o),
(526,812,c),
(586,857,o),
(660,880,o),
(733,880,cs),
(814,880,o),
(872,859,o),
(906,815,cs),
(940,772,o),
(946,710,o),
(923,629,c),
(756,0,l),
(961,0,l),
(1124,608,ls),
(1148,697,o),
(1195,765,o),
(1255,812,c),
(1316,857,o),
(1388,880,o),
(1461,880,cs),
(1543,880,o),
(1602,859,o),
(1635,815,cs),
(1668,772,o),
(1675,710,o),
(1653,629,cs),
(1485,0,l),
(1690,0,l),
(1876,689,l),
(1904,809,o),
(1882,906,o),
(1827,972,cs),
(1772,1038,o),
(1681,1070,o),
(1568,1070,cs),
(1492,1070,o),
(1416,1056,o),
(1344,1017,cs),
(1271,977,o),
(1203,920,o),
(1139,841,c),
(1136,905,o),
(1112,962,o),
(1065,1004,cs),
(1017,1046,o),
(947,1070,o),
(851,1070,cs),
(778,1070,o),
(706,1051,o),
(640,1016,cs),
(573,980,o),
(515,928,o),
(467,861,c),
(511,1040,l),
(307,1040,l),
(27,0,l)
);
}
);
width = 1986;
},
{
layerId = "07F2E3F0-ED06-4523-9B4E-21C099677EF3";
shapes = (
{
closed = 1;
nodes = (
(132,0,l),
(299,621,ls),
(332,742,o),
(394,834,o),
(473,897,cs),
(551,959,o),
(645,989,o),
(739,989,cs),
(842,989,o),
(919,963,o),
(963,908,cs),
(1006,854,o),
(1015,777,o),
(987,680,c),
(807,0,l),
(886,0,l),
(1054,621,l),
(1085,742,o),
(1147,834,o),
(1227,897,c),
(1306,959,o),
(1398,989,o),
(1493,989,cs),
(1596,989,o),
(1672,963,o),
(1716,908,cs),
(1760,854,o),
(1770,777,o),
(1741,680,c),
(1560,0,l),
(1639,0,l),
(1831,705,l),
(1854,813,o),
(1831,908,o),
(1774,972,cs),
(1717,1037,o),
(1625,1070,o),
(1512,1070,cs),
(1439,1070,o),
(1365,1057,o),
(1291,1014,cs),
(1217,971,o),
(1143,910,o),
(1066,825,c),
(1067,890,o),
(1045,952,o),
(995,998,cs),
(947,1043,o),
(870,1070,o),
(762,1070,cs),
(687,1070,o),
(618,1052,o),
(552,1018,c),
(486,982,o),
(427,932,o),
(368,869,c),
(410,1040,l),
(331,1040,l),
(52,0,l)
);
}
);
width = 1961;
}
);
leftKerningGroup = _m;
rightKerningGroup = _a;
unicode = 109;
},
{
glyphname = n;
layers = (
{
layerId = "47B14137-3610-4366-97F9-C15552AB4A93";
shapes = (
{
closed = 1;
nodes = (
(383,0,l),
(527,538,l),
(541,599,o),
(568,643,o),
(605,673,c),
(642,701,o),
(690,716,o),
(744,716,cs),
(794,716,o),
(831,705,o),
(851,677,c),
(870,648,o),
(873,605,o),
(855,539,cs),
(711,0,l),
(1104,0,l),
(1281,663,l),
(1310,792,o),
(1286,891,o),
(1226,962,cs),
(1166,1033,o),
(1073,1070,o),
(968,1070,cs),
(840,1070,o),
(721,1018,o),
(626,905,c),
(663,1040,l),
(269,1040,l),
(-11,0,l)
);
}
);
width = 1363;
},
{
layerId = "DCE18E71-776F-477B-AB8E-147A8D0BE437";
shapes = (
{
closed = 1;
nodes = (
(233,0,l),
(393,593,l),
(416,688,o),
(462,760,o),
(525,809,cs),
(587,857,o),
(662,880,o),
(739,880,cs),
(821,880,o),
(884,859,o),
(922,815,cs),
(960,771,o),
(972,708,o),
(951,625,c),
(784,0,l),
(989,0,l),
(1174,689,l),
(1203,806,o),
(1174,901,o),
(1111,968,cs),
(1047,1034,o),
(948,1070,o),
(840,1070,cs),
(714,1070,o),
(581,1019,o),
(474,895,c),
(511,1040,l),
(307,1040,l),
(27,0,l)
);
}
);
width = 1285;
},
{
layerId = "07F2E3F0-ED06-4523-9B4E-21C099677EF3";
shapes = (
{
closed = 1;
nodes = (
(132,0,l),
(304,629,l),
(333,747,o),
(392,837,o),
(471,898,cs),
(549,959,o),
(643,989,o),
(736,989,cs),
(837,989,o),
(919,961,o),
(969,907,cs),
(1020,852,o),
(1038,777,o),
(1014,682,c),
(832,0,l),
(912,0,l),
(1104,705,l),
(1133,815,o),
(1099,907,o),
(1034,971,cs),
(968,1035,o),
(866,1070,o),
(755,1070,cs),
(631,1070,o),
(487,1019,o),
(373,888,c),
(410,1040,l),
(331,1040,l),
(52,0,l)
);
}
);
width = 1232;
}
);
leftKerningGroup = _m;
rightKerningGroup = _a;
unicode = 110;
},
{
glyphname = o;
layers = (
{
layerId = "47B14137-3610-4366-97F9-C15552AB4A93";
shapes = (
{
closed = 1;
nodes = (
(748,-30,o),
(911,39,o),
(1034,152,cs),
(1095,208,o),
(1144,274,o),
(1181,350,cs),
(1218,426,o),
(1236,506,o),
(1236,593,cs),
(1236,725,o),
(1186,844,o),
(1094,931,cs),
(1002,1018,o),
(870,1070,o),
(705,1070,cs),
(530,1070,o),
(367,1002,o),
(244,889,cs),
(120,776,o),
(41,622,o),
(41,449,cs),
(41,317,o),
(91,200,o),
(183,112,cs),
(275,24,o),
(407,-30,o),
(572,-30,cs)
);
},
{
closed = 1;
nodes = (
(557,305,o),
(511,322,o),
(479,354,cs),
(447,385,o),
(429,428,o),
(429,481,cs),
(429,547,o),
(452,608,o),
(493,656,cs),
(534,705,o),
(593,735,o),
(667,735,cs),
(721,735,o),
(766,718,o),
(799,689,cs),
(832,660,o),
(848,616,o),
(848,563,cs),
(848,497,o),
(827,434,o),
(786,385,cs),
(744,337,o),
(683,305,o),
(609,305,cs)
);
}
);
width = 1276;
},
{
layerId = "DCE18E71-776F-477B-AB8E-147A8D0BE437";
shapes = (
{
closed = 1;
nodes = (
(737,-30,o),
(895,40,o),
(1012,156,c),
(1070,212,o),
(1117,279,o),
(1153,357,cs),
(1188,434,o),
(1206,513,o),
(1206,597,cs),
(1206,729,o),
(1157,846,o),
(1071,933,cs),
(985,1019,o),
(860,1070,o),
(706,1070,cs),
(538,1070,o),
(381,1002,o),
(261,886,cs),
(142,770,o),
(67,616,o),
(67,445,cs),
(67,314,o),
(115,196,o),
(202,109,cs),
(289,22,o),
(413,-30,o),
(566,-30,cs)
);
},
{
closed = 1;
nodes = (
(496,153,o),
(417,181,o),
(362,234,cs),
(307,286,o),
(277,360,o),
(277,451,cs),
(277,567,o),
(317,675,o),
(387,755,cs),
(457,837,o),
(559,886,o),
(681,886,cs),
(779,886,o),
(855,860,o),
(911,808,c),
(967,758,o),
(996,683,o),
(996,591,cs),
(996,475,o),
(956,367,o),
(887,286,c),
(815,205,o),
(714,153,o),
(591,153,cs)
);
}
);
width = 1272;
},
{
layerId = "07F2E3F0-ED06-4523-9B4E-21C099677EF3";
shapes = (
{
closed = 1;
nodes = (
(730,-30,o),
(885,41,o),
(997,158,c),
(1054,215,o),
(1099,282,o),
(1134,360,c),
(1167,438,o),
(1185,517,o),
(1185,600,cs),
(1185,731,o),
(1138,847,o),
(1056,934,c),
(973,1020,o),
(853,1070,o),
(706,1070,cs),
(542,1070,o),
(389,1002,o),
(273,884,cs),
(157,767,o),
(83,612,o),
(83,442,cs),
(83,311,o),
(130,193,o),
(214,106,c),
(299,20,o),
(416,-30,o),
(562,-30,cs)
);
},
{
closed = 1;
nodes = (
(455,52,o),
(354,87,o),
(284,155,c),
(213,220,o),
(175,313,o),
(175,432,cs),
(175,580,o),
(228,719,o),
(317,821,c),
(404,924,o),
(536,987,o),
(690,987,cs),
(817,987,o),
(915,954,o),
(986,887,cs),
(1055,823,o),
(1094,727,o),
(1094,609,cs),
(1094,460,o),
(1042,322,o),
(953,220,cs),
(863,117,o),
(733,52,o),
(579,52,cs)
);
}
);
width = 1269;
}
);
leftKerningGroup = _c2;
rightKerningGroup = _b;
unicode = 111;
},
{
glyphname = p;
layers = (
{
layerId = "47B14137-3610-4366-97F9-C15552AB4A93";
shapes = (
{
closed = 1;
nodes = (
(270,-400,l),
(401,86,l),
(441,48,o),
(489,17,o),
(541,-2,cs),
(593,-22,o),
(648,-30,o),
(709,-30,cs),
(886,-30,o),
(1040,46,o),
(1148,167,cs),
(1256,288,o),
(1322,452,o),
(1322,630,cs),
(1322,766,o),
(1279,876,o),
(1200,953,cs),
(1121,1029,o),
(1008,1070,o),
(874,1070,cs),
(813,1070,o),
(760,1061,o),
(712,1044,cs),
(662,1027,o),
(618,1000,o),
(582,966,c),
(602,1040,l),
(267,1040,l),
(-122,-400,l)
);
},
{
closed = 1;
nodes = (
(639,305,o),
(596,322,o),
(564,355,c),
(531,387,o),
(514,432,o),
(514,490,cs),
(514,551,o),
(537,613,o),
(578,659,cs),
(619,706,o),
(678,735,o),
(752,735,cs),
(805,735,o),
(851,719,o),
(884,690,cs),
(917,661,o),
(934,618,o),
(934,568,cs),
(934,487,o),
(907,422,o),
(863,377,cs),
(819,332,o),
(762,305,o),
(696,305,cs)
);
}
);
width = 1364;
},
{
layerId = "DCE18E71-776F-477B-AB8E-147A8D0BE437";
shapes = (
{
closed = 1;
nodes = (
(121,-400,l),
(274,172,l),
(313,113,o),
(367,60,o),
(434,25,cs),
(502,-11,o),
(586,-30,o),
(686,-30,cs),
(855,-30,o),
(1007,44,o),
(1116,165,cs),
(1224,285,o),
(1292,445,o),
(1292,615,cs),
(1292,747,o),
(1249,862,o),
(1167,943,cs),
(1086,1025,o),
(968,1070,o),
(822,1070,cs),
(740,1070,o),
(673,1055,o),
(614,1029,c),
(554,1001,o),
(503,963,o),
(457,917,c),
(492,1040,l),
(305,1040,l),
(-83,-400,l)
);
},
{
closed = 1;
nodes = (
(579,153,o),
(502,181,o),
(446,234,cs),
(390,286,o),
(360,360,o),
(360,450,cs),
(360,564,o),
(401,674,o),
(471,755,cs),
(541,836,o),
(641,886,o),
(766,886,cs),
(861,886,o),
(940,860,o),
(996,809,cs),
(1052,758,o),
(1082,684,o),
(1082,596,cs),
(1082,477,o),
(1042,367,o),
(970,286,cs),
(899,205,o),
(800,153,o),
(677,153,cs)
);
}
);
width = 1360;
},
{
layerId = "07F2E3F0-ED06-4523-9B4E-21C099677EF3";
shapes = (
{
closed = 1;
nodes = (
(22,-400,l),
(190,229,l),
(228,155,o),
(285,88,o),
(364,43,c),
(441,-4,o),
(544,-30,o),
(670,-30,cs),
(834,-30,o),
(985,42,o),
(1095,163,cs),
(1203,283,o),
(1271,441,o),
(1271,605,cs),
(1271,735,o),
(1228,853,o),
(1146,937,cs),
(1063,1022,o),
(943,1070,o),
(787,1070,cs),
(692,1070,o),
(616,1052,o),
(548,1019,cs),
(481,985,o),
(426,938,o),
(375,883,c),
(419,1040,l),
(330,1040,l),
(-58,-400,l)
);
},
{
closed = 1;
nodes = (
(538,52,o),
(439,86,o),
(368,153,c),
(296,217,o),
(258,312,o),
(258,425,cs),
(258,572,o),
(310,715,o),
(401,818,c),
(488,922,o),
(617,987,o),
(775,987,cs),
(899,987,o),
(1000,954,o),
(1071,887,cs),
(1140,822,o),
(1180,728,o),
(1180,615,cs),
(1180,471,o),
(1130,329,o),
(1040,226,c),
(952,121,o),
(825,52,o),
(665,52,cs)
);
}
);
width = 1357;
}
);
leftKerningGroup = _m;
rightKerningGroup = _b;
unicode = 112;
},
{
glyphname = q;
layers = (
{
layerId = "47B14137-3610-4366-97F9-C15552AB4A93";
shapes = (
{
closed = 1;
nodes = (
(992,-400,l),
(1379,1040,l),
(1044,1040,l),
(968,759,l),
(1048,815,l),
(1034,891,o),
(985,954,o),
(910,999,cs),
(835,1044,o),
(744,1070,o),
(640,1070,cs),
(465,1070,o),
(318,995,o),
(214,878,cs),
(109,761,o),
(48,602,o),
(48,429,cs),
(48,296,o),
(90,185,o),
(166,101,cs),
(242,17,o),
(347,-29,o),
(480,-29,cs),
(553,-29,o),
(618,-17,o),
(675,11,cs),
(732,38,o),
(781,76,o),
(837,129,c),
(769,232,l),
(600,-400,l)
);
},
{
closed = 1;
nodes = (
(560,306,o),
(515,322,o),
(483,352,cs),
(451,382,o),
(432,424,o),
(432,477,cs),
(432,543,o),
(455,607,o),
(496,656,cs),
(537,705,o),
(597,736,o),
(672,736,cs),
(722,736,o),
(769,720,o),
(801,688,cs),
(833,656,o),
(852,613,o),
(852,556,cs),
(852,494,o),
(831,432,o),
(790,384,cs),
(748,335,o),
(687,306,o),
(613,306,cs)
);
}
);
width = 1364;
},
{
layerId = "DCE18E71-776F-477B-AB8E-147A8D0BE437";
shapes = (
{
closed = 1;
nodes = (
(952,-400,l),
(1339,1040,l),
(1152,1040,l),
(1084,794,l),
(1126,807,l),
(1089,897,o),
(1027,962,o),
(948,1007,cs),
(868,1051,o),
(778,1070,o),
(676,1070,cs),
(506,1070,o),
(354,998,o),
(247,881,cs),
(139,764,o),
(72,606,o),
(72,431,cs),
(72,300,o),
(114,189,o),
(194,105,cs),
(273,22,o),
(386,-26,o),
(529,-26,cs),
(621,-26,o),
(698,-9,o),
(766,27,c),
(834,61,o),
(889,110,o),
(945,171,c),
(918,235,l),
(747,-400,l)
);
},
{
closed = 1;
nodes = (
(498,157,o),
(421,183,o),
(366,235,cs),
(311,287,o),
(279,357,o),
(279,450,cs),
(279,563,o),
(320,672,o),
(390,753,cs),
(461,834,o),
(561,885,o),
(686,885,cs),
(780,885,o),
(861,859,o),
(916,807,cs),
(970,755,o),
(1001,682,o),
(1001,592,cs),
(1001,479,o),
(964,369,o),
(892,289,cs),
(819,207,o),
(718,157,o),
(593,157,cs)
);
}
);
width = 1360;
},
{
layerId = "07F2E3F0-ED06-4523-9B4E-21C099677EF3";
shapes = (
{
closed = 1;
nodes = (
(925,-400,l),
(1312,1040,l),
(1222,1040,l),
(1161,817,l),
(1177,801,l),
(1127,900,o),
(1055,968,o),
(972,1011,cs),
(889,1054,o),
(799,1070,o),
(699,1070,cs),
(531,1070,o),
(377,1000,o),
(268,883,cs),
(158,766,o),
(87,608,o),
(87,432,cs),
(87,303,o),
(130,191,o),
(212,108,cs),
(294,25,o),
(411,-23,o),
(562,-23,cs),
(666,-23,o),
(751,-3,o),
(826,37,cs),
(901,76,o),
(961,132,o),
(1017,199,c),
(1016,237,l),
(845,-400,l)
);
},
{
closed = 1;
nodes = (
(456,58,o),
(358,90,o),
(288,157,cs),
(217,223,o),
(177,313,o),
(177,431,cs),
(177,575,o),
(231,714,o),
(320,817,cs),
(410,920,o),
(537,984,o),
(696,984,cs),
(819,984,o),
(921,951,o),
(991,885,cs),
(1062,820,o),
(1100,729,o),
(1100,615,cs),
(1100,469,o),
(1052,327,o),
(959,225,c),
(867,121,o),
(737,58,o),
(578,58,cs)
);
}
);
width = 1357;
}
);
leftKerningGroup = _c2;
unicode = 113;
},
{
glyphname = r;
layers = (
{
layerId = "47B14137-3610-4366-97F9-C15552AB4A93";
shapes = (
{
closed = 1;
nodes = (
(384,0,l),
(520,508,l),
(537,574,o),
(569,618,o),
(609,647,cs),
(649,675,o),
(696,684,o),
(746,684,cs),
(802,684,o),
(860,673,o),
(907,652,c),
(1057,1058,l),
(1023,1066,o),
(986,1070,o),
(946,1070,cs),
(886,1070,o),
(822,1056,o),
(766,1024,cs),
(710,992,o),
(659,942,o),
(622,877,c),
(665,1040,l),
(272,1040,l),
(-10,0,l)
);
}
);
width = 933;
},
{
layerId = "DCE18E71-776F-477B-AB8E-147A8D0BE437";
shapes = (
{
closed = 1;
nodes = (
(233,0,l),
(389,575,ls),
(415,671,o),
(462,745,o),
(525,793,cs),
(588,841,o),
(662,865,o),
(743,865,cs),
(789,865,o),
(836,859,o),
(880,843,c),
(963,1055,l),
(922,1067,o),
(877,1070,o),
(837,1070,cs),
(773,1070,o),
(709,1060,o),
(648,1029,cs),
(586,999,o),
(528,949,o),
(471,877,c),
(515,1040,l),
(309,1040,l),
(28,0,l)
);
}
);
width = 854;
},
{
layerId = "07F2E3F0-ED06-4523-9B4E-21C099677EF3";
shapes = (
{
closed = 1;
nodes = (
(132,0,l),
(301,619,ls),
(333,735,o),
(390,828,o),
(468,891,c),
(547,952,o),
(639,985,o),
(740,985,cs),
(781,985,o),
(820,982,o),
(862,970,c),
(900,1052,l),
(855,1067,o),
(804,1070,o),
(764,1070,cs),
(698,1070,o),
(634,1062,o),
(569,1032,cs),
(504,1002,o),
(440,952,o),
(370,877,c),
(414,1040,l),
(333,1040,l),
(52,0,l)
);
}
);
width = 801;
}
);
leftKerningGroup = _m;
rightKerningGroup = _r;
unicode = 114;
},
{
glyphname = s;
layers = (
{
layerId = "47B14137-3610-4366-97F9-C15552AB4A93";
shapes = (
{
closed = 1;
nodes = (
(606,-30,o),
(730,8,o),
(818,80,cs),
(906,150,o),
(959,251,o),
(959,375,cs),
(959,443,o),
(934,495,o),
(875,543,cs),
(817,589,o),
(726,626,o),
(598,662,cs),
(542,678,o),
(507,687,o),
(486,699,c),
(464,710,o),
(459,717,o),
(459,728,cs),
(459,746,o),
(470,760,o),
(488,769,cs),
(506,778,o),
(534,784,o),
(566,784,cs),
(623,784,o),
(685,771,o),
(741,749,cs),
(797,726,o),
(852,697,o),
(896,658,c),
(1067,905,l),
(1015,954,o),
(947,997,o),
(864,1025,cs),
(781,1053,o),
(688,1070,o),
(588,1070,cs),
(457,1070,o),
(339,1036,o),
(250,966,cs),
(159,895,o),
(104,799,o),
(104,673,cs),
(104,596,o),
(134,534,o),
(193,486,cs),
(253,438,o),
(341,403,o),
(461,375,c),
(522,360,o),
(560,352,o),
(580,344,cs),
(602,336,o),
(610,330,o),
(610,317,cs),
(610,300,o),
(601,284,o),
(581,273,cs),
(561,261,o),
(532,256,o),
(494,256,cs),
(438,256,o),
(371,271,o),
(306,294,cs),
(242,317,o),
(178,350,o),
(119,393,c),
(-55,147,l),
(13,83,o),
(97,40,o),
(188,12,cs),
(279,-16,o),
(373,-30,o),
(464,-30,cs)
);
}
);
width = 1086;
},
{
layerId = "DCE18E71-776F-477B-AB8E-147A8D0BE437";
shapes = (
{
closed = 1;
nodes = (
(552,-30,o),
(659,4,o),
(737,70,cs),
(815,136,o),
(859,226,o),
(859,338,cs),
(859,401,o),
(835,449,o),
(785,492,cs),
(735,536,o),
(659,569,o),
(552,602,cs),
(478,625,o),
(427,644,o),
(391,668,cs),
(357,692,o),
(342,714,o),
(342,749,cs),
(342,799,o),
(365,838,o),
(400,865,cs),
(435,892,o),
(489,906,o),
(547,906,cs),
(612,906,o),
(674,895,o),
(728,870,cs),
(780,846,o),
(829,812,o),
(864,768,c),
(975,913,l),
(930,963,o),
(873,1004,o),
(804,1030,cs),
(735,1057,o),
(657,1070,o),
(571,1070,cs),
(452,1070,o),
(349,1036,o),
(271,973,cs),
(193,909,o),
(147,820,o),
(147,716,cs),
(147,651,o),
(171,597,o),
(221,554,cs),
(272,509,o),
(349,477,o),
(454,444,c),
(532,418,o),
(585,397,o),
(618,376,cs),
(651,355,o),
(667,333,o),
(667,299,cs),
(667,248,o),
(646,207,o),
(606,177,cs),
(567,148,o),
(512,134,o),
(440,134,cs),
(379,134,o),
(312,147,o),
(254,172,cs),
(196,196,o),
(144,232,o),
(100,278,c),
(-16,138,l),
(31,83,o),
(97,42,o),
(174,13,cs),
(253,-16,o),
(337,-30,o),
(424,-30,cs)
);
}
);
width = 1033;
},
{
layerId = "07F2E3F0-ED06-4523-9B4E-21C099677EF3";
shapes = (
{
closed = 1;
nodes = (
(514,-30,o),
(612,1,o),
(683,63,cs),
(754,126,o),
(792,210,o),
(792,314,cs),
(792,373,o),
(769,416,o),
(725,457,cs),
(679,498,o),
(615,531,o),
(520,561,cs),
(436,587,o),
(373,616,o),
(329,647,cs),
(284,680,o),
(263,712,o),
(263,761,cs),
(263,834,o),
(295,889,o),
(341,928,c),
(388,965,o),
(459,985,o),
(535,985,cs),
(604,985,o),
(667,974,o),
(718,949,cs),
(770,924,o),
(813,888,o),
(842,840,c),
(914,917,l),
(873,969,o),
(825,1008,o),
(764,1033,c),
(705,1059,o),
(638,1070,o),
(559,1070,cs),
(449,1070,o),
(355,1037,o),
(284,977,cs),
(214,918,o),
(175,833,o),
(175,744,cs),
(175,686,o),
(195,639,o),
(240,598,cs),
(284,557,o),
(353,527,o),
(450,491,cs),
(539,457,o),
(601,426,o),
(642,397,cs),
(684,367,o),
(705,335,o),
(705,287,cs),
(705,213,o),
(674,154,o),
(622,114,cs),
(570,73,o),
(497,55,o),
(404,55,cs),
(338,55,o),
(272,68,o),
(219,91,c),
(164,117,o),
(121,153,o),
(88,202,c),
(9,132,l),
(43,83,o),
(96,43,o),
(165,14,cs),
(235,-15,o),
(313,-30,o),
(399,-30,cs)
);
}
);
width = 998;
}
);
leftKerningGroup = _s2;
rightKerningGroup = _s;
unicode = 115;
},
{
glyphname = t;
layers = (
{
layerId = "47B14137-3610-4366-97F9-C15552AB4A93";
shapes = (
{
closed = 1;
nodes = (
(596,-30,o),
(679,-11,o),
(744,18,c),
(783,339,l),
(743,323,o),
(705,314,o),
(665,314,cs),
(622,314,o),
(593,327,o),
(578,347,cs),
(563,368,o),
(565,401,o),
(574,438,c),
(655,733,l),
(874,733,l),
(955,1040,l),
(736,1040,l),
(828,1384,l),
(410,1285,l),
(165,376,ls),
(131,249,o),
(148,149,o),
(208,78,cs),
(268,8,o),
(367,-30,o),
(504,-30,cs)
);
},
{
closed = 1;
nodes = (
(294,733,l),
(374,1040,l),
(157,1040,l),
(76,733,l)
);
}
);
width = 929;
},
{
layerId = "DCE18E71-776F-477B-AB8E-147A8D0BE437";
shapes = (
{
closed = 1;
nodes = (
(556,-31,o),
(625,-20,o),
(679,6,c),
(684,182,l),
(647,167,o),
(608,157,o),
(561,157,cs),
(494,157,o),
(452,177,o),
(433,213,cs),
(414,248,o),
(418,302,o),
(436,367,cs),
(571,868,l),
(871,868,l),
(916,1040,l),
(616,1040,l),
(702,1360,l),
(492,1308,l),
(219,318,ls),
(188,207,o),
(199,122,o),
(247,62,cs),
(295,1,o),
(375,-31,o),
(490,-31,cs)
);
},
{
closed = 1;
nodes = (
(396,868,l),
(441,1040,l),
(176,1040,l),
(131,868,l)
);
}
);
width = 901;
},
{
layerId = "07F2E3F0-ED06-4523-9B4E-21C099677EF3";
shapes = (
{
closed = 1;
nodes = (
(531,-32,o),
(589,-26,o),
(635,-2,c),
(618,77,l),
(583,62,o),
(544,52,o),
(492,52,cs),
(409,52,o),
(358,76,o),
(337,124,c),
(315,169,o),
(320,236,o),
(345,320,c),
(515,956,l),
(869,956,l),
(891,1040,l),
(537,1040,l),
(619,1344,l),
(540,1324,l),
(254,279,ls),
(227,179,o),
(234,103,o),
(272,50,c),
(313,-3,o),
(381,-32,o),
(480,-32,cs)
);
},
{
closed = 1;
nodes = (
(463,956,l),
(485,1040,l),
(188,1040,l),
(167,956,l)
);
}
);
width = 882;
}
);
leftKerningGroup = _t2;
rightKerningGroup = _t;
unicode = 116;
},
{
glyphname = u;
layers = (
{
layerId = "47B14137-3610-4366-97F9-C15552AB4A93";
shapes = (
{
closed = 1;
nodes = (
(485,-30,o),
(556,-8,o),
(616,24,cs),
(676,55,o),
(721,100,o),
(758,146,c),
(721,0,l),
(1056,0,l),
(1336,1040,l),
(942,1040,l),
(792,481,ls),
(778,431,o),
(755,390,o),
(722,364,c),
(688,339,o),
(646,325,o),
(596,325,cs),
(546,325,o),
(518,338,o),
(505,364,c),
(491,389,o),
(494,429,o),
(503,480,c),
(654,1040,l),
(260,1040,l),
(96,426,l),
(59,283,o),
(73,167,o),
(125,91,cs),
(177,14,o),
(272,-30,o),
(396,-30,cs)
);
}
);
width = 1324;
},
{
layerId = "DCE18E71-776F-477B-AB8E-147A8D0BE437";
shapes = (
{
closed = 1;
nodes = (
(506,-31,o),
(570,-17,o),
(635,11,cs),
(698,39,o),
(755,80,o),
(805,134,c),
(771,0,l),
(958,0,l),
(1237,1040,l),
(1031,1040,l),
(870,440,ls),
(846,350,o),
(801,276,o),
(739,230,cs),
(678,183,o),
(609,157,o),
(534,157,cs),
(455,157,o),
(396,179,o),
(361,221,cs),
(326,262,o),
(315,328,o),
(333,409,c),
(502,1040,l),
(297,1040,l),
(117,366,l),
(87,248,o),
(107,148,o),
(166,79,cs),
(224,10,o),
(317,-31,o),
(434,-31,cs)
);
}
);
width = 1264;
},
{
layerId = "07F2E3F0-ED06-4523-9B4E-21C099677EF3";
shapes = (
{
closed = 1;
nodes = (
(519,-32,o),
(580,-23,o),
(647,2,cs),
(713,27,o),
(776,67,o),
(836,126,c),
(805,0,l),
(892,0,l),
(1171,1040,l),
(1091,1040,l),
(923,413,l),
(890,296,o),
(832,201,o),
(751,141,c),
(672,78,o),
(585,44,o),
(492,44,cs),
(394,44,o),
(314,72,o),
(265,125,c),
(215,178,o),
(196,259,o),
(219,361,c),
(400,1040,l),
(321,1040,l),
(130,326,l),
(105,225,o),
(129,135,o),
(191,71,cs),
(255,7,o),
(346,-32,o),
(458,-32,cs)
);
}
);
width = 1223;
}
);
leftKerningGroup = _u2;
rightKerningGroup = _u;
unicode = 117;
},
{
glyphname = v;
layers = (
{
layerId = "47B14137-3610-4366-97F9-C15552AB4A93";
shapes = (
{
closed = 1;
nodes = (
(686,0,l),
(1304,1040,l),
(875,1040,l),
(467,246,l),
(561,228,l),
(564,1040,l),
(152,1040,l),
(226,0,l)
);
}
);
width = 1175;
},
{
layerId = "DCE18E71-776F-477B-AB8E-147A8D0BE437";
shapes = (
{
closed = 1;
nodes = (
(523,0,l),
(1189,1040,l),
(956,1040,l),
(411,140,l),
(465,130,l),
(398,1040,l),
(177,1040,l),
(288,0,l)
);
}
);
width = 1086;
},
{
layerId = "07F2E3F0-ED06-4523-9B4E-21C099677EF3";
shapes = (
{
closed = 1;
nodes = (
(414,0,l),
(1112,1040,l),
(1010,1040,l),
(373,70,l),
(401,66,l),
(287,1040,l),
(193,1040,l),
(329,0,l)
);
}
);
width = 1026;
}
);
leftKerningGroup = _v2;
rightKerningGroup = _v;
unicode = 118;
},
{
glyphname = w;
layers = (
{
layerId = "47B14137-3610-4366-97F9-C15552AB4A93";
shapes = (
{
closed = 1;
nodes = (
(559,0,l),
(871,552,l),
(870,0,l),
(1254,0,l),
(1847,1040,l),
(1459,1040,l),
(1174,468,l),
(1170,1040,l),
(817,1040,l),
(493,461,l),
(512,1040,l),
(148,1040,l),
(170,0,l)
);
}
);
width = 1714;
},
{
layerId = "DCE18E71-776F-477B-AB8E-147A8D0BE437";
shapes = (
{
closed = 1;
nodes = (
(439,0,l),
(898,772,l),
(927,0,l),
(1141,0,l),
(1758,1040,l),
(1548,1040,l),
(1093,249,l),
(1072,1040,l),
(867,1040,l),
(393,244,l),
(374,1040,l),
(173,1040,l),
(221,0,l)
);
}
);
width = 1651;
},
{
layerId = "07F2E3F0-ED06-4523-9B4E-21C099677EF3";
shapes = (
{
closed = 1;
nodes = (
(360,0,l),
(914,918,l),
(965,0,l),
(1066,0,l),
(1698,1040,l),
(1608,1040,l),
(1039,104,l),
(1006,1040,l),
(901,1040,l),
(327,99,l),
(283,1040,l),
(189,1040,l),
(256,0,l)
);
}
);
width = 1609;
}
);
leftKerningGroup = _v2;
rightKerningGroup = _v;
unicode = 119;
},
{
glyphname = x;
layers = (
{
layerId = "47B14137-3610-4366-97F9-C15552AB4A93";
shapes = (
{
closed = 1;
nodes = (
(379,0,l),
(598,253,l),
(693,0,l),
(1174,0,l),
(935,494,l),
(1427,1040,l),
(913,1040,l),
(718,773,l),
(642,1040,l),
(170,1040,l),
(389,527,l),
(-123,2,l)
);
}
);
width = 1332;
},
{
layerId = "DCE18E71-776F-477B-AB8E-147A8D0BE437";
shapes = (
{
closed = 1;
nodes = (
(153,1,l),
(514,384,l),
(674,0,l),
(925,0,l),
(687,522,l),
(1170,1040,l),
(906,1040,l),
(582,674,l),
(435,1040,l),
(190,1040,l),
(414,535,l),
(-109,2,l)
);
}
);
width = 1095;
},
{
layerId = "07F2E3F0-ED06-4523-9B4E-21C099677EF3";
shapes = (
{
closed = 1;
nodes = (
(3,1,l),
(458,471,l),
(662,0,l),
(760,0,l),
(522,541,l),
(998,1040,l),
(902,1040,l),
(491,608,l),
(297,1040,l),
(203,1040,l),
(430,541,l),
(-100,1,l)
);
}
);
width = 937;
}
);
leftKerningGroup = _x2;
rightKerningGroup = _x;
unicode = 120;
},
{
glyphname = y;
layers = (
{
layerId = "47B14137-3610-4366-97F9-C15552AB4A93";
shapes = (
{
closed = 1;
nodes = (
(215,-450,o),
(306,-431,o),
(394,-379,cs),
(482,-328,o),
(565,-248,o),
(641,-128,c),
(1371,1040,l),
(927,1040,l),
(582,395,l),
(561,1040,l),
(143,1040,l),
(267,26,l),
(241,-33,l),
(227,-57,o),
(207,-71,o),
(186,-80,cs),
(164,-90,o),
(139,-94,o),
(113,-94,cs),
(61,-94,o),
(6,-76,o),
(-42,-51,c),
(-203,-368,l),
(-162,-396,o),
(-111,-415,o),
(-55,-430,cs),
(0,-445,o),
(64,-450,o),
(124,-450,cs)
);
}
);
width = 1231;
},
{
layerId = "DCE18E71-776F-477B-AB8E-147A8D0BE437";
shapes = (
{
closed = 1;
nodes = (
(141,-450,o),
(208,-435,o),
(275,-390,cs),
(341,-345,o),
(407,-277,o),
(472,-171,cs),
(1215,1040,l),
(985,1040,l),
(482,186,l),
(396,1040,l),
(176,1040,l),
(309,-41,l),
(265,-128,l),
(240,-172,o),
(211,-205,o),
(180,-226,cs),
(148,-248,o),
(111,-260,o),
(67,-260,cs),
(8,-260,o),
(-55,-239,o),
(-100,-193,c),
(-190,-365,l),
(-148,-402,o),
(-108,-422,o),
(-64,-436,cs),
(-21,-449,o),
(25,-450,o),
(68,-450,cs)
);
}
);
width = 1102;
},
{
layerId = "07F2E3F0-ED06-4523-9B4E-21C099677EF3";
shapes = (
{
closed = 1;
nodes = (
(91,-450,o),
(144,-438,o),
(196,-397,cs),
(247,-357,o),
(300,-296,o),
(359,-199,cs),
(1110,1040,l),
(1024,1040,l),
(415,48,l),
(286,1040,l),
(197,1040,l),
(337,-85,l),
(281,-191,l),
(248,-248,o),
(213,-293,o),
(176,-324,c),
(138,-353,o),
(92,-371,o),
(35,-371,cs),
(-27,-371,o),
(-95,-347,o),
(-138,-287,c),
(-182,-363,l),
(-139,-405,o),
(-105,-426,o),
(-70,-439,c),
(-34,-451,o),
(0,-450,o),
(30,-450,cs)
);
}
);
width = 1016;
}
);
leftKerningGroup = _y;
rightKerningGroup = _v;
unicode = 121;
},
{
glyphname = z;
layers = (
{
layerId = "47B14137-3610-4366-97F9-C15552AB4A93";
shapes = (
{
closed = 1;
nodes = (
(849,0,l),
(941,344,l),
(570,344,l),
(1053,785,l),
(1121,1040,l),
(239,1040,l),
(147,696,l),
(522,696,l),
(10,259,l),
(-58,0,l)
);
}
);
width = 1068;
},
{
layerId = "DCE18E71-776F-477B-AB8E-147A8D0BE437";
shapes = (
{
closed = 1;
nodes = (
(781,0,l),
(830,184,l),
(283,184,l),
(1013,888,l),
(1053,1040,l),
(251,1040,l),
(201,856,l),
(739,856,l),
(0,154,l),
(-39,0,l)
);
}
);
width = 1021;
},
{
layerId = "07F2E3F0-ED06-4523-9B4E-21C099677EF3";
shapes = (
{
closed = 1;
nodes = (
(736,0,l),
(757,77,l),
(91,77,l),
(988,957,l),
(1008,1040,l),
(258,1040,l),
(237,963,l),
(884,963,l),
(-6,84,l),
(-27,0,l)
);
}
);
width = 988;
}
);
leftKerningGroup = _z2;
rightKerningGroup = _z;
unicode = 122;
},
{
glyphname = braceleft;
layers = (
{
layerId = "47B14137-3610-4366-97F9-C15552AB4A93";
shapes = (
{
closed = 1;
nodes = (
(520,36,l),
(459,35,o),
(418,42,o),
(398,63,cs),
(378,83,o),
(379,116,o),
(399,160,cs),
(530,442,l),
(558,507,o),
(564,563,o),
(547,605,cs),
(530,648,o),
(489,677,o),
(426,690,c),
(426,692,l),
(494,703,o),
(550,733,o),
(590,776,cs),
(629,818,o),
(653,873,o),
(658,938,c),
(685,1220,ls),
(690,1268,o),
(705,1301,o),
(737,1321,cs),
(768,1340,o),
(812,1348,o),
(872,1344,c),
(943,1606,l),
(762,1622,o),
(627,1595,o),
(530,1528,cs),
(434,1461,o),
(382,1352,o),
(366,1193,c),
(344,947,ls),
(339,902,o),
(325,870,o),
(294,850,cs),
(262,830,o),
(213,822,o),
(136,822,c),
(66,560,l),
(143,560,o),
(189,552,o),
(210,533,c),
(229,514,o),
(228,484,o),
(208,435,c),
(95,185,l),
(27,30,o),
(21,-79,o),
(82,-146,cs),
(141,-213,o),
(262,-239,o),
(452,-226,c)
);
}
);
width = 730;
},
{
layerId = "DCE18E71-776F-477B-AB8E-147A8D0BE437";
shapes = (
{
closed = 1;
nodes = (
(408,-78,l),
(338,-81,o),
(296,-77,o),
(273,-54,cs),
(251,-32,o),
(253,3,o),
(273,53,cs),
(436,456,ls),
(464,526,o),
(473,580,o),
(462,618,cs),
(450,656,o),
(416,678,o),
(362,690,c),
(362,692,l),
(421,703,o),
(468,727,o),
(500,766,cs),
(532,804,o),
(553,856,o),
(560,925,c),
(617,1327,ls),
(625,1380,o),
(641,1416,o),
(674,1436,cs),
(707,1456,o),
(755,1464,o),
(821,1458,c),
(862,1605,l),
(739,1622,o),
(641,1602,o),
(571,1555,cs),
(499,1507,o),
(457,1430,o),
(441,1322,c),
(389,917,l),
(380,856,o),
(367,819,o),
(336,796,cs),
(305,773,o),
(257,765,o),
(176,765,c),
(137,618,l),
(218,618,o),
(263,611,o),
(281,589,cs),
(299,567,o),
(293,530,o),
(267,465,cs),
(99,54,ls),
(57,-49,o),
(58,-126,o),
(104,-174,cs),
(149,-221,o),
(236,-239,o),
(371,-225,c)
);
}
);
width = 686;
},
{
layerId = "07F2E3F0-ED06-4523-9B4E-21C099677EF3";
shapes = (
{
closed = 1;
nodes = (
(333,-153,l),
(259,-158,o),
(214,-155,o),
(191,-131,c),
(167,-108,o),
(170,-72,o),
(190,-17,c),
(374,465,ls),
(402,538,o),
(413,590,o),
(405,626,cs),
(397,660,o),
(368,679,o),
(318,690,c),
(318,692,l),
(373,703,o),
(413,723,o),
(440,759,c),
(468,794,o),
(486,844,o),
(496,917,c),
(572,1397,ls),
(581,1455,o),
(599,1491,o),
(632,1512,cs),
(665,1533,o),
(716,1540,o),
(786,1533,c),
(807,1604,l),
(724,1621,o),
(651,1606,o),
(596,1571,c),
(541,1538,o),
(507,1481,o),
(492,1408,c),
(418,898,l),
(407,826,o),
(395,784,o),
(364,760,c),
(333,734,o),
(286,727,o),
(201,727,c),
(184,657,l),
(269,657,o),
(313,650,o),
(329,627,cs),
(346,602,o),
(335,561,o),
(306,484,c),
(102,-33,l),
(76,-102,o),
(82,-158,o),
(119,-192,c),
(155,-227,o),
(220,-239,o),
(316,-224,c)
);
}
);
width = 657;
}
);
rightKerningGroup = _parenleft;
unicode = 123;
},
{
glyphname = bar;
layers = (
{
layerId = "47B14137-3610-4366-97F9-C15552AB4A93";
shapes = (
{
closed = 1;
nodes = (
(316,-220,l),
(807,1600,l),
(492,1600,l),
(1,-220,l)
);
}
);
width = 715;
},
{
layerId = "DCE18E71-776F-477B-AB8E-147A8D0BE437";
shapes = (
{
closed = 1;
nodes = (
(174,-220,l),
(665,1600,l),
(499,1600,l),
(8,-220,l)
);
}
);
width = 566;
},
{
layerId = "07F2E3F0-ED06-4523-9B4E-21C099677EF3";
shapes = (
{
closed = 1;
nodes = (
(79,-220,l),
(570,1600,l),
(503,1600,l),
(12,-220,l)
);
}
);
width = 467;
}
);
leftKerningGroup = _bar2;
rightKerningGroup = _bar;
unicode = 124;
},
{
glyphname = braceright;
layers = (
{
layerId = "47B14137-3610-4366-97F9-C15552AB4A93";
shapes = (
{
closed = 1;
nodes = (
(-133,-226,l),
(48,-239,o),
(185,-213,o),
(281,-146,cs),
(377,-79,o),
(430,30,o),
(445,185,cs),
(468,435,l),
(472,484,o),
(487,514,o),
(518,533,cs),
(550,552,o),
(599,560,o),
(676,560,c),
(747,822,l),
(671,822,o),
(627,830,o),
(604,850,cs),
(582,870,o),
(586,902,o),
(607,947,c),
(715,1193,ls),
(786,1352,o),
(791,1461,o),
(731,1528,cs),
(672,1595,o),
(551,1622,o),
(362,1606,c),
(291,1344,l),
(352,1348,o),
(394,1340,o),
(414,1321,cs),
(434,1301,o),
(432,1268,o),
(412,1220,c),
(286,938,l),
(225,809,o),
(262,715,o),
(388,692,c),
(385,690,l),
(317,677,o),
(259,648,o),
(219,605,cs),
(179,563,o),
(153,507,o),
(148,442,cs),
(125,160,l),
(121,116,o),
(107,83,o),
(76,63,cs),
(45,42,o),
(-1,35,o),
(-61,36,c)
);
}
);
width = 730;
},
{
layerId = "DCE18E71-776F-477B-AB8E-147A8D0BE437";
shapes = (
{
closed = 1;
nodes = (
(-79,-225,l),
(45,-239,o),
(144,-221,o),
(215,-174,cs),
(286,-126,o),
(329,-49,o),
(342,54,cs),
(396,465,l),
(402,530,o),
(416,567,o),
(447,589,cs),
(478,611,o),
(526,618,o),
(608,618,c),
(648,765,l),
(567,765,o),
(525,773,o),
(504,796,cs),
(484,819,o),
(492,856,o),
(517,917,cs),
(681,1322,l),
(726,1430,o),
(723,1507,o),
(677,1555,cs),
(632,1602,o),
(544,1622,o),
(413,1605,c),
(374,1458,l),
(444,1464,o),
(490,1456,o),
(510,1436,cs),
(531,1416,o),
(529,1380,o),
(509,1327,c),
(348,925,l),
(289,787,o),
(315,713,o),
(423,692,c),
(420,690,l),
(360,678,o),
(313,656,o),
(281,618,cs),
(248,580,o),
(228,526,o),
(220,456,c),
(166,53,ls),
(159,3,o),
(143,-32,o),
(110,-54,cs),
(76,-77,o),
(27,-81,o),
(-39,-78,c)
);
}
);
width = 686;
},
{
layerId = "07F2E3F0-ED06-4523-9B4E-21C099677EF3";
shapes = (
{
closed = 1;
nodes = (
(-41,-224,l),
(42,-239,o),
(116,-227,o),
(171,-192,cs),
(226,-158,o),
(260,-102,o),
(273,-33,c),
(348,484,l),
(355,561,o),
(368,602,o),
(399,627,c),
(430,650,o),
(476,657,o),
(561,657,c),
(582,727,l),
(497,727,o),
(456,734,o),
(438,760,cs),
(420,784,o),
(429,826,o),
(457,898,cs),
(659,1408,l),
(685,1481,o),
(676,1538,o),
(641,1571,cs),
(605,1606,o),
(538,1621,o),
(448,1604,c),
(429,1533,l),
(504,1540,o),
(553,1533,o),
(574,1512,cs),
(595,1491,o),
(593,1455,o),
(573,1397,c),
(390,917,l),
(331,772,o),
(350,711,o),
(446,692,c),
(443,690,l),
(388,679,o),
(348,660,o),
(322,626,cs),
(295,590,o),
(278,538,o),
(268,465,c),
(193,-17,l),
(183,-72,o),
(166,-108,o),
(131,-131,cs),
(95,-155,o),
(46,-158,o),
(-24,-153,c)
);
}
);
width = 657;
}
);
leftKerningGroup = _parenright;
unicode = 125;
},
{
glyphname = asciitilde;
layers = (
{
layerId = "47B14137-3610-4366-97F9-C15552AB4A93";
shapes = (
{
closed = 1;
nodes = (
(1052,462,o),
(1177,520,o),
(1293,640,c),
(1209,871,l),
(1121,776,o),
(1038,730,o),
(954,730,cs),
(890,730,o),
(811,767,o),
(726,804,cs),
(642,841,o),
(551,878,o),
(462,878,cs),
(342,878,o),
(224,817,o),
(111,700,c),
(195,468,l),
(279,564,o),
(364,610,o),
(449,610,cs),
(520,610,o),
(584,573,o),
(660,536,cs),
(735,499,o),
(817,462,o),
(928,462,cs)
);
}
);
width = 1296;
},
{
layerId = "DCE18E71-776F-477B-AB8E-147A8D0BE437";
shapes = (
{
closed = 1;
nodes = (
(1021,516,o),
(1128,562,o),
(1230,669,c),
(1182,796,l),
(1098,708,o),
(1015,665,o),
(940,665,cs),
(876,665,o),
(808,702,o),
(733,739,cs),
(656,776,o),
(577,813,o),
(488,813,cs),
(387,813,o),
(282,765,o),
(180,657,c),
(236,539,l),
(311,619,o),
(398,664,o),
(474,664,cs),
(538,664,o),
(604,627,o),
(677,590,cs),
(749,553,o),
(827,516,o),
(922,516,cs)
);
}
);
width = 1296;
},
{
layerId = "07F2E3F0-ED06-4523-9B4E-21C099677EF3";
shapes = (
{
closed = 1;
nodes = (
(1000,552,o),
(1094,590,o),
(1188,688,c),
(1163,745,l),
(1083,663,o),
(1000,621,o),
(930,621,cs),
(866,621,o),
(806,642,o),
(736,679,cs),
(666,716,o),
(593,769,o),
(504,769,cs),
(416,769,o),
(320,730,o),
(225,629,c),
(261,586,l),
(332,655,o),
(420,700,o),
(490,700,cs),
(550,700,o),
(616,663,o),
(687,626,cs),
(759,589,o),
(833,552,o),
(918,552,cs)
);
}
);
width = 1296;
}
);
leftKerningGroup = _plus2;
rightKerningGroup = _plus;
unicode = 126;
},
{
color = (153, 255, 154, 255);
glyphname = exclamdown;
layers = (
{
layerId = "47B14137-3610-4366-97F9-C15552AB4A93";
shapes = (
{
closed = 1;
nodes = (
(364,-400,l),
(544,505,l),
(186,505,l),
(-119,-400,l)
);
},
{
closed = 1;
nodes = (
(568,629,o),
(683,738,o),
(683,884,cs),
(683,1002,o),
(585,1069,o),
(475,1069,cs),
(328,1069,o),
(214,965,o),
(214,815,cs),
(214,697,o),
(313,629,o),
(424,629,cs)
);
}
);
width = 718;
},
{
layerId = "DCE18E71-776F-477B-AB8E-147A8D0BE437";
shapes = (
{
closed = 1;
nodes = (
(208,-400,l),
(425,543,l),
(247,543,l),
(-38,-400,l)
);
},
{
closed = 1;
nodes = (
(502,763,o),
(582,833,o),
(582,924,cs),
(582,996,o),
(519,1042,o),
(451,1042,cs),
(357,1042,o),
(282,978,o),
(282,882,cs),
(282,810,o),
(345,763,o),
(413,763,cs)
);
}
);
width = 664;
},
{
layerId = "07F2E3F0-ED06-4523-9B4E-21C099677EF3";
shapes = (
{
closed = 1;
nodes = (
(107,-400,l),
(343,524,l),
(283,524,l),
(22,-400,l)
);
},
{
closed = 1;
nodes = (
(455,807,o),
(510,849,o),
(510,905,cs),
(510,948,o),
(472,979,o),
(430,979,cs),
(373,979,o),
(323,940,o),
(323,881,cs),
(323,838,o),
(361,807,o),
(403,807,cs)
);
}
);
width = 628;
}
);
leftKerningGroup = _colon2;
rightKerningGroup = _colon;
unicode = 161;
},
{
glyphname = cent;
layers = (
{
layerId = "47B14137-3610-4366-97F9-C15552AB4A93";
shapes = (
{
closed = 1;
nodes = (
(618,-160,l),
(656,1,l),
(746,5,o),
(843,23,o),
(919,65,c),
(906,359,l),
(849,330,o),
(809,321,o),
(747,316,c),
(847,701,l),
(878,693,o),
(910,680,o),
(941,653,c),
(1123,889,l),
(1081,938,o),
(1008,985,o),
(924,1007,c),
(976,1200,l),
(734,1200,l),
(693,1037,l),
(403,1012,o),
(162,760,o),
(157,439,c),
(153,243,o),
(254,88,o),
(425,30,c),
(375,-160,l)
);
},
{
closed = 1;
nodes = (
(508,346,l),
(464,371,o),
(441,421,o),
(443,486,c),
(444,578,o),
(507,707,o),
(603,712,c)
);
}
);
width = 1200;
},
{
layerId = "DCE18E71-776F-477B-AB8E-147A8D0BE437";
shapes = (
{
closed = 1;
nodes = (
(562,-169,l),
(606,1,l),
(726,2,o),
(827,30,o),
(929,96,c),
(879,244,l),
(807,189,o),
(738,172,o),
(650,171,c),
(832,852,l),
(886,843,o),
(929,819,o),
(970,779,c),
(1089,903,l),
(1033,964,o),
(965,1002,o),
(874,1019,c),
(926,1209,l),
(777,1209,l),
(734,1033,l),
(434,1021,o),
(178,768,o),
(173,434,c),
(169,229,o),
(282,72,o),
(464,20,c),
(413,-169,l)
);
},
{
closed = 1;
nodes = (
(507,190,l),
(393,226,o),
(337,316,o),
(339,450,cs),
(343,670,o),
(473,859,o),
(685,862,c)
);
}
);
width = 1200;
},
{
layerId = "07F2E3F0-ED06-4523-9B4E-21C099677EF3";
shapes = (
{
closed = 1;
nodes = (
(524,-175,l),
(572,0,l),
(711,-1,o),
(817,33,o),
(935,115,c),
(860,168,l),
(779,95,o),
(690,73,o),
(586,73,c),
(822,953,l),
(892,942,o),
(941,911,o),
(989,861,c),
(1066,912,l),
(999,980,o),
(937,1012,o),
(840,1026,c),
(892,1215,l),
(805,1215,l),
(761,1030,l),
(453,1027,o),
(188,774,o),
(183,431,c),
(179,219,o),
(301,60,o),
(489,13,c),
(438,-175,l)
);
},
{
closed = 1;
nodes = (
(506,85,l),
(346,130,o),
(267,246,o),
(270,426,cs),
(274,731,o),
(450,960,o),
(739,961,c)
);
}
);
width = 1200;
}
);
unicode = 162;
},
{
glyphname = sterling;
layers = (
{
layerId = "47B14137-3610-4366-97F9-C15552AB4A93";
shapes = (
{
closed = 1;
nodes = (
(1016,0,l),
(1095,295,l),
(564,295,l),
(620,368,o),
(664,466,o),
(666,562,cs),
(667,623,o),
(674,684,o),
(680,745,c),
(681,793,o),
(692,844,o),
(692,894,c),
(695,1019,o),
(747,1137,o),
(892,1137,cs),
(973,1137,o),
(1053,1110,o),
(1138,1026,c),
(1320,1261,l),
(1241,1388,o),
(1036,1436,o),
(903,1436,cs),
(623,1436,o),
(358,1266,o),
(352,933,cs),
(351,862,o),
(353,791,o),
(353,720,cs),
(354,646,o),
(354,577,o),
(353,533,cs),
(350,330,o),
(213,305,o),
(59,292,c),
(-15,0,l)
);
},
{
closed = 1;
nodes = (
(972,566,l),
(1035,814,l),
(181,814,l),
(117,566,l)
);
}
);
width = 1200;
},
{
layerId = "DCE18E71-776F-477B-AB8E-147A8D0BE437";
shapes = (
{
closed = 1;
nodes = (
(976,0,l),
(1020,163,l),
(397,163,l),
(513,251,o),
(573,355,o),
(575,509,c),
(577,584,o),
(583,660,o),
(592,733,c),
(596,805,o),
(604,875,o),
(606,947,c),
(609,1132,o),
(702,1274,o),
(886,1274,cs),
(995,1274,o),
(1082,1238,o),
(1164,1150,c),
(1270,1282,l),
(1183,1396,o),
(1026,1440,o),
(895,1440,cs),
(637,1440,o),
(428,1260,o),
(423,969,c),
(421,891,o),
(422,815,o),
(419,737,cs),
(416,660,o),
(413,584,o),
(412,514,cs),
(408,280,o),
(272,211,o),
(85,164,c),
(42,0,l)
);
},
{
closed = 1;
nodes = (
(992,619,l),
(1030,765,l),
(224,765,l),
(186,619,l)
);
}
);
width = 1200;
},
{
layerId = "07F2E3F0-ED06-4523-9B4E-21C099677EF3";
shapes = (
{
closed = 1;
nodes = (
(948,0,l),
(969,76,l),
(285,76,l),
(440,173,o),
(512,282,o),
(515,474,cs),
(517,559,o),
(523,643,o),
(533,725,c),
(540,811,o),
(547,896,o),
(549,983,c),
(552,1205,o),
(673,1363,o),
(883,1363,cs),
(1010,1363,o),
(1102,1324,o),
(1180,1232,c),
(1235,1297,l),
(1145,1400,o),
(1019,1442,o),
(889,1442,cs),
(646,1442,o),
(473,1257,o),
(468,992,c),
(468,910,o),
(466,830,o),
(461,747,cs),
(457,668,o),
(452,588,o),
(451,501,c),
(446,246,o),
(311,149,o),
(101,80,c),
(81,0,l)
);
},
{
closed = 1;
nodes = (
(1007,654,l),
(1026,732,l),
(252,732,l),
(234,654,l)
);
}
);
width = 1200;
}
);
unicode = 163;
},
{
glyphname = currency;
layers = (
{
layerId = "47B14137-3610-4366-97F9-C15552AB4A93";
shapes = (
{
closed = 1;
nodes = (
(394,220,l),
(449,184,o),
(508,171,o),
(578,171,cs),
(646,171,o),
(702,189,o),
(764,223,c),
(887,65,l),
(1102,263,l),
(985,416,l),
(1037,497,o),
(1064,573,o),
(1066,674,cs),
(1067,726,o),
(1058,782,o),
(1039,830,c),
(1203,982,l),
(1049,1179,l),
(883,1025,l),
(829,1060,o),
(770,1073,o),
(700,1073,cs),
(634,1073,o),
(574,1054,o),
(513,1021,c),
(388,1179,l),
(175,982,l),
(292,831,l),
(247,757,o),
(214,672,o),
(212,569,cs),
(211,519,o),
(216,466,o),
(234,417,c),
(74,264,l),
(228,65,l)
);
},
{
closed = 1;
nodes = (
(539,453,o),
(482,510,o),
(483,596,cs),
(485,700,o),
(562,789,o),
(659,789,cs),
(740,789,o),
(795,736,o),
(793,645,cs),
(791,542,o),
(715,453,o),
(617,453,cs)
);
}
);
width = 1200;
},
{
layerId = "DCE18E71-776F-477B-AB8E-147A8D0BE437";
shapes = (
{
closed = 1;
nodes = (
(388,280,l),
(444,231,o),
(508,209,o),
(586,209,cs),
(661,209,o),
(733,232,o),
(803,282,c),
(924,126,l),
(1047,240,l),
(929,392,l),
(995,471,o),
(1034,566,o),
(1036,671,cs),
(1037,733,o),
(1025,794,o),
(994,849,c),
(1157,1000,l),
(1065,1117,l),
(903,966,l),
(849,1013,o),
(783,1033,o),
(705,1033,cs),
(631,1033,o),
(559,1011,o),
(486,960,c),
(365,1117,l),
(243,1004,l),
(362,852,l),
(300,776,o),
(259,683,o),
(257,568,cs),
(256,509,o),
(265,450,o),
(296,395,c),
(133,244,l),
(224,126,l)
);
},
{
closed = 1;
nodes = (
(496,365,o),
(405,453,o),
(408,586,cs),
(411,743,o),
(535,877,o),
(680,877,cs),
(802,877,o),
(885,793,o),
(883,658,cs),
(880,499,o),
(763,365,o),
(615,365,cs)
);
}
);
width = 1200;
},
{
layerId = "07F2E3F0-ED06-4523-9B4E-21C099677EF3";
shapes = (
{
closed = 1;
nodes = (
(382,320,l),
(440,263,o),
(509,234,o),
(592,234,cs),
(671,234,o),
(752,260,o),
(828,321,c),
(948,167,l),
(1009,225,l),
(891,376,l),
(967,453,o),
(1013,560,o),
(1015,668,cs),
(1016,737,o),
(1004,801,o),
(964,861,c),
(1127,1012,l),
(1075,1075,l),
(916,926,l),
(861,981,o),
(791,1008,o),
(708,1008,cs),
(629,1008,o),
(547,982,o),
(468,919,c),
(349,1075,l),
(290,1019,l),
(407,865,l),
(335,788,o),
(288,689,o),
(286,567,cs),
(285,502,o),
(298,438,o),
(338,380,c),
(173,229,l),
(221,167,l)
);
},
{
closed = 1;
nodes = (
(467,306,o),
(354,414,o),
(357,579,cs),
(360,771,o),
(516,936,o),
(693,936,cs),
(844,936,o),
(945,831,o),
(943,666,c),
(939,471,o),
(796,306,o),
(613,306,cs)
);
}
);
width = 1200;
}
);
unicode = 164;
},
{
glyphname = yen;
layers = (
{
layerId = "47B14137-3610-4366-97F9-C15552AB4A93";
shapes = (
{
closed = 1;
nodes = (
(632,0,l),
(696,250,l),
(1029,250,l),
(1087,474,l),
(755,474,l),
(783,589,l),
(1120,589,l),
(1179,814,l),
(939,814,l),
(1464,1410,l),
(1077,1410,l),
(700,942,l),
(590,1410,l),
(235,1410,l),
(418,814,l),
(173,814,l),
(115,589,l),
(445,589,l),
(416,474,l),
(82,474,l),
(23,250,l),
(353,250,l),
(289,0,l)
);
}
);
width = 1200;
},
{
layerId = "DCE18E71-776F-477B-AB8E-147A8D0BE437";
shapes = (
{
closed = 1;
nodes = (
(566,0,l),
(642,298,l),
(999,298,l),
(1035,437,l),
(680,437,l),
(728,617,l),
(1083,617,l),
(1121,756,l),
(840,756,l),
(1406,1410,l),
(1198,1410,l),
(683,806,l),
(505,1410,l),
(313,1410,l),
(510,756,l),
(230,756,l),
(192,617,l),
(547,617,l),
(498,437,l),
(143,437,l),
(106,298,l),
(461,298,l),
(385,0,l)
);
}
);
width = 1200;
},
{
layerId = "07F2E3F0-ED06-4523-9B4E-21C099677EF3";
shapes = (
{
closed = 1;
nodes = (
(522,0,l),
(607,331,l),
(978,331,l),
(999,413,l),
(628,413,l),
(690,636,l),
(1059,636,l),
(1082,718,l),
(773,718,l),
(1366,1410,l),
(1278,1410,l),
(671,713,l),
(449,1410,l),
(367,1410,l),
(572,718,l),
(268,718,l),
(244,636,l),
(613,636,l),
(553,413,l),
(183,413,l),
(161,331,l),
(532,331,l),
(447,0,l)
);
}
);
width = 1200;
}
);
unicode = 165;
},
{
glyphname = brokenbar;
layers = (
{
layerId = "47B14137-3610-4366-97F9-C15552AB4A93";
shapes = (
{
closed = 1;
nodes = (
(594,810,l),
(774,1480,l),
(459,1480,l),
(279,810,l)
);
},
{
closed = 1;
nodes = (
(349,-100,l),
(528,570,l),
(213,570,l),
(34,-100,l)
);
}
);
width = 715;
},
{
layerId = "DCE18E71-776F-477B-AB8E-147A8D0BE437";
shapes = (
{
closed = 1;
nodes = (
(452,810,l),
(632,1480,l),
(466,1480,l),
(286,810,l)
);
},
{
closed = 1;
nodes = (
(208,-100,l),
(386,570,l),
(220,570,l),
(42,-100,l)
);
}
);
width = 566;
},
{
layerId = "07F2E3F0-ED06-4523-9B4E-21C099677EF3";
shapes = (
{
closed = 1;
nodes = (
(357,810,l),
(537,1480,l),
(470,1480,l),
(290,810,l)
);
},
{
closed = 1;
nodes = (
(113,-100,l),
(291,570,l),
(224,570,l),
(46,-100,l)
);
}
);
width = 467;
}
);
leftKerningGroup = _bar2;
rightKerningGroup = _bar;
unicode = 166;
},
{
glyphname = section;
layers = (
{
layerId = "47B14137-3610-4366-97F9-C15552AB4A93";
shapes = (
{
closed = 1;
nodes = (
(609,-453,o),
(747,-412,o),
(851,-334,cs),
(956,-258,o),
(1019,-143,o),
(1019,2,cs),
(1019,83,o),
(989,148,o),
(933,203,cs),
(877,259,o),
(789,300,o),
(673,336,c),
(603,355,o),
(547,378,o),
(507,403,cs),
(468,427,o),
(446,455,o),
(446,492,cs),
(446,550,o),
(476,592,o),
(527,619,c),
(576,647,o),
(642,661,o),
(713,655,c),
(752,860,l),
(665,861,o),
(581,854,o),
(501,838,cs),
(421,821,o),
(351,796,o),
(291,761,cs),
(232,726,o),
(183,682,o),
(148,628,cs),
(113,573,o),
(95,510,o),
(95,437,cs),
(95,347,o),
(134,284,o),
(206,228,cs),
(278,171,o),
(385,128,o),
(522,87,c),
(587,67,o),
(628,51,o),
(656,30,cs),
(684,10,o),
(693,-12,o),
(693,-35,cs),
(693,-72,o),
(671,-99,o),
(637,-119,cs),
(603,-139,o),
(555,-148,o),
(506,-148,cs),
(434,-148,o),
(362,-135,o),
(294,-108,cs),
(226,-81,o),
(162,-46,o),
(111,-5,c),
(-77,-269,l),
(-16,-320,o),
(60,-367,o),
(153,-400,cs),
(246,-432,o),
(350,-453,o),
(460,-453,cs)
);
},
{
closed = 1;
nodes = (
(582,133,l),
(759,134,o),
(922,164,o),
(1043,234,cs),
(1165,302,o),
(1241,407,o),
(1241,560,cs),
(1241,644,o),
(1205,710,o),
(1135,765,cs),
(1063,820,o),
(967,861,o),
(839,898,c),
(765,922,o),
(715,940,o),
(687,960,c),
(657,979,o),
(644,998,o),
(644,1023,cs),
(644,1065,o),
(666,1092,o),
(699,1111,cs),
(730,1129,o),
(774,1135,o),
(819,1135,cs),
(879,1135,o),
(946,1121,o),
(1015,1096,cs),
(1083,1071,o),
(1145,1037,o),
(1192,992,c),
(1379,1257,l),
(1318,1316,o),
(1239,1359,o),
(1150,1392,c),
(1061,1424,o),
(962,1440,o),
(865,1440,cs),
(716,1440,o),
(582,1400,o),
(482,1323,cs),
(382,1247,o),
(320,1132,o),
(320,987,cs),
(320,824,o),
(433,722,o),
(653,662,cs),
(734,639,o),
(793,616,o),
(833,592,cs),
(872,568,o),
(891,538,o),
(891,503,cs),
(891,442,o),
(859,400,o),
(810,373,c),
(759,343,o),
(692,332,o),
(622,337,c)
);
}
);
width = 1318;
},
{
layerId = "DCE18E71-776F-477B-AB8E-147A8D0BE437";
shapes = (
{
closed = 1;
nodes = (
(556,-453,o),
(678,-415,o),
(769,-343,cs),
(860,-272,o),
(915,-169,o),
(915,-38,cs),
(915,37,o),
(887,95,o),
(838,145,c),
(786,194,o),
(709,232,o),
(611,269,c),
(535,296,o),
(470,325,o),
(426,360,cs),
(381,395,o),
(355,435,o),
(355,491,cs),
(355,576,o),
(397,638,o),
(466,681,c),
(535,722,o),
(629,743,o),
(733,741,c),
(762,866,l),
(691,874,o),
(620,869,o),
(549,854,cs),
(477,838,o),
(415,812,o),
(359,775,cs),
(304,740,o),
(259,696,o),
(224,640,cs),
(188,584,o),
(172,524,o),
(172,454,cs),
(172,376,o),
(203,316,o),
(259,263,c),
(313,209,o),
(397,165,o),
(503,125,cs),
(588,94,o),
(642,66,o),
(682,36,c),
(720,4,o),
(735,-28,o),
(735,-69,cs),
(735,-139,o),
(705,-190,o),
(652,-229,cs),
(600,-268,o),
(529,-287,o),
(449,-287,cs),
(379,-287,o),
(309,-275,o),
(246,-248,cs),
(182,-221,o),
(123,-184,o),
(80,-135,c),
(-41,-279,l),
(6,-325,o),
(72,-369,o),
(153,-401,cs),
(234,-433,o),
(324,-453,o),
(423,-453,cs)
);
},
{
closed = 1;
nodes = (
(558,147,l),
(711,142,o),
(853,176,o),
(960,248,cs),
(1066,319,o),
(1134,424,o),
(1134,564,cs),
(1134,640,o),
(1104,700,o),
(1046,751,cs),
(989,801,o),
(909,841,o),
(809,877,cs),
(728,907,o),
(666,932,o),
(624,961,cs),
(582,990,o),
(561,1022,o),
(561,1069,cs),
(561,1136,o),
(590,1186,o),
(636,1222,cs),
(683,1258,o),
(748,1275,o),
(821,1275,cs),
(890,1275,o),
(956,1261,o),
(1019,1236,cs),
(1081,1211,o),
(1135,1176,o),
(1175,1128,c),
(1290,1274,l),
(1239,1329,o),
(1176,1368,o),
(1103,1399,c),
(1028,1427,o),
(945,1440,o),
(858,1440,cs),
(730,1440,o),
(614,1403,o),
(528,1332,cs),
(441,1262,o),
(389,1163,o),
(389,1037,cs),
(389,898,o),
(489,810,o),
(684,737,cs),
(772,705,o),
(836,677,o),
(880,646,cs),
(923,616,o),
(944,581,o),
(944,538,cs),
(944,450,o),
(904,383,o),
(839,335,cs),
(773,287,o),
(685,265,o),
(585,270,c)
);
}
);
width = 1254;
},
{
layerId = "07F2E3F0-ED06-4523-9B4E-21C099677EF3";
shapes = (
{
closed = 1;
nodes = (
(520,-453,o),
(630,-417,o),
(714,-349,cs),
(795,-282,o),
(846,-185,o),
(846,-63,cs),
(846,7,o),
(820,59,o),
(773,106,cs),
(726,152,o),
(655,186,o),
(570,224,c),
(487,256,o),
(419,290,o),
(371,332,cs),
(321,374,o),
(295,422,o),
(295,490,cs),
(295,592,o),
(343,670,o),
(425,721,cs),
(507,770,o),
(620,798,o),
(745,798,c),
(768,869,l),
(707,882,o),
(645,879,o),
(581,864,cs),
(516,848,o),
(457,822,o),
(405,785,c),
(352,749,o),
(310,705,o),
(275,647,cs),
(240,591,o),
(224,533,o),
(224,464,cs),
(224,395,o),
(249,337,o),
(294,285,cs),
(336,234,o),
(404,189,o),
(491,150,c),
(588,110,o),
(652,77,o),
(698,39,cs),
(743,1,o),
(763,-38,o),
(763,-91,cs),
(763,-183,o),
(727,-251,o),
(663,-302,cs),
(598,-353,o),
(510,-380,o),
(410,-380,cs),
(340,-380,o),
(273,-368,o),
(212,-340,cs),
(153,-313,o),
(98,-277,o),
(58,-222,c),
(-18,-285,l),
(21,-328,o),
(80,-370,o),
(153,-402,cs),
(226,-433,o),
(308,-453,o),
(398,-453,cs)
);
},
{
closed = 1;
nodes = (
(542,156,l),
(678,146,o),
(806,183,o),
(903,257,c),
(1002,329,o),
(1063,434,o),
(1063,566,cs),
(1063,637,o),
(1034,694,o),
(986,742,c),
(937,789,o),
(871,828,o),
(789,862,cs),
(703,897,o),
(631,926,o),
(582,962,c),
(532,997,o),
(504,1038,o),
(504,1101,cs),
(504,1183,o),
(539,1248,o),
(594,1296,cs),
(649,1343,o),
(730,1368,o),
(822,1368,cs),
(896,1368,o),
(962,1354,o),
(1021,1330,c),
(1079,1305,o),
(1128,1269,o),
(1163,1217,c),
(1229,1286,l),
(1186,1337,o),
(1134,1374,o),
(1069,1402,cs),
(1006,1429,o),
(935,1440,o),
(852,1440,cs),
(739,1440,o),
(635,1405,o),
(557,1338,cs),
(480,1272,o),
(433,1182,o),
(433,1071,cs),
(433,946,o),
(528,867,o),
(703,788,c),
(797,749,o),
(864,717,o),
(911,683,cs),
(958,648,o),
(980,609,o),
(980,559,cs),
(980,456,o),
(933,371,o),
(858,310,c),
(782,249,o),
(681,220,o),
(561,225,c)
);
}
);
width = 1210;
}
);
unicode = 167;
},
{
glyphname = copyright;
layers = (
{
layerId = "47B14137-3610-4366-97F9-C15552AB4A93";
shapes = (
{
closed = 1;
nodes = (
(1047,-48,o),
(1230,30,o),
(1363,162,cs),
(1496,294,o),
(1576,474,o),
(1576,682,cs),
(1576,887,o),
(1496,1067,o),
(1363,1200,cs),
(1230,1333,o),
(1047,1412,o),
(838,1412,cs),
(629,1412,o),
(446,1335,o),
(313,1203,cs),
(180,1071,o),
(100,891,o),
(100,682,cs),
(100,475,o),
(181,295,o),
(314,163,cs),
(447,30,o),
(630,-48,o),
(839,-48,cs)
);
},
{
closed = 1;
nodes = (
(681,111,o),
(542,168,o),
(441,268,cs),
(339,368,o),
(276,509,o),
(276,682,cs),
(276,858,o),
(339,997,o),
(441,1098,cs),
(542,1198,o),
(685,1252,o),
(838,1252,cs),
(995,1252,o),
(1134,1198,o),
(1235,1098,cs),
(1337,997,o),
(1400,858,o),
(1400,682,cs),
(1400,509,o),
(1339,368,o),
(1237,268,cs),
(1136,168,o),
(995,111,o),
(838,111,cs)
);
},
{
closed = 1;
nodes = (
(1005,274,o),
(1103,310,o),
(1179,366,c),
(1089,534,l),
(1024,489,o),
(953,468,o),
(880,468,cs),
(806,468,o),
(747,489,o),
(706,527,cs),
(666,563,o),
(644,617,o),
(644,682,cs),
(644,748,o),
(665,802,o),
(705,839,cs),
(746,877,o),
(805,897,o),
(878,897,cs),
(958,897,o),
(1018,875,o),
(1062,831,c),
(1161,995,l),
(1087,1058,o),
(1000,1090,o),
(864,1090,cs),
(739,1090,o),
(632,1048,o),
(556,976,cs),
(479,904,o),
(434,801,o),
(434,680,cs),
(434,556,o),
(479,457,o),
(555,385,cs),
(631,314,o),
(737,274,o),
(862,274,cs)
);
}
);
width = 1676;
},
{
layerId = "DCE18E71-776F-477B-AB8E-147A8D0BE437";
shapes = (
{
closed = 1;
nodes = (
(1050,-35,o),
(1232,43,o),
(1365,175,cs),
(1497,307,o),
(1576,487,o),
(1576,695,cs),
(1576,901,o),
(1497,1081,o),
(1365,1214,cs),
(1232,1347,o),
(1050,1425,o),
(839,1425,cs),
(627,1425,o),
(445,1349,o),
(312,1217,cs),
(179,1085,o),
(100,905,o),
(100,695,cs),
(100,489,o),
(179,309,o),
(312,176,cs),
(445,43,o),
(627,-35,o),
(839,-35,cs)
);
},
{
closed = 1;
nodes = (
(671,73,o),
(520,135,o),
(406,244,cs),
(292,353,o),
(219,506,o),
(219,695,cs),
(219,885,o),
(291,1038,o),
(405,1146,c),
(519,1256,o),
(674,1316,o),
(838,1316,cs),
(1006,1316,o),
(1157,1256,o),
(1271,1146,c),
(1385,1038,o),
(1457,885,o),
(1457,695,cs),
(1457,506,o),
(1387,353,o),
(1272,244,cs),
(1158,135,o),
(1005,73,o),
(838,73,cs)
);
},
{
closed = 1;
nodes = (
(990,287,o),
(1086,318,o),
(1165,377,c),
(1103,490,l),
(1034,436,o),
(957,415,o),
(879,415,cs),
(787,415,o),
(712,443,o),
(660,491,cs),
(609,538,o),
(580,607,o),
(580,695,cs),
(580,782,o),
(608,850,o),
(659,900,cs),
(711,949,o),
(784,974,o),
(872,974,cs),
(955,974,o),
(1021,953,o),
(1073,906,c),
(1142,1016,l),
(1076,1072,o),
(988,1103,o),
(863,1103,cs),
(740,1103,o),
(636,1060,o),
(560,988,cs),
(484,916,o),
(441,815,o),
(441,694,cs),
(441,570,o),
(485,471,o),
(559,399,cs),
(632,328,o),
(737,287,o),
(862,287,cs)
);
}
);
width = 1676;
},
{
layerId = "07F2E3F0-ED06-4523-9B4E-21C099677EF3";
shapes = (
{
closed = 1;
nodes = (
(1052,-27,o),
(1233,51,o),
(1366,183,cs),
(1498,315,o),
(1576,495,o),
(1576,703,cs),
(1576,910,o),
(1498,1089,o),
(1366,1222,cs),
(1233,1355,o),
(1052,1433,o),
(839,1433,cs),
(625,1433,o),
(444,1357,o),
(311,1225,cs),
(178,1093,o),
(100,914,o),
(100,703,cs),
(100,498,o),
(177,317,o),
(310,184,cs),
(443,51,o),
(625,-27,o),
(839,-27,cs)
);
},
{
closed = 1;
nodes = (
(665,48,o),
(505,113,o),
(383,228,cs),
(259,343,o),
(181,504,o),
(181,703,cs),
(181,903,o),
(258,1063,o),
(381,1179,cs),
(504,1294,o),
(667,1358,o),
(838,1358,cs),
(1012,1358,o),
(1172,1294,o),
(1294,1179,cs),
(1418,1063,o),
(1495,903,o),
(1495,703,cs),
(1495,504,o),
(1419,343,o),
(1295,228,cs),
(1173,113,o),
(1011,48,o),
(838,48,cs)
);
},
{
closed = 1;
nodes = (
(980,295,o),
(1074,324,o),
(1155,384,c),
(1113,461,l),
(1040,401,o),
(959,380,o),
(878,380,cs),
(774,380,o),
(689,411,o),
(630,467,cs),
(571,522,o),
(538,601,o),
(538,703,cs),
(538,803,o),
(570,882,o),
(629,940,cs),
(688,997,o),
(769,1025,o),
(869,1025,cs),
(953,1025,o),
(1023,1006,o),
(1080,957,c),
(1130,1031,l),
(1069,1081,o),
(980,1111,o),
(862,1111,cs),
(741,1111,o),
(639,1067,o),
(563,995,cs),
(487,923,o),
(445,824,o),
(445,703,cs),
(445,579,o),
(488,480,o),
(561,408,c),
(632,336,o),
(737,295,o),
(862,295,cs)
);
}
);
width = 1676;
}
);
rightKerningGroup = _at;
unicode = 169;
},
{
glyphname = ordfeminine;
layers = (
{
layerId = "47B14137-3610-4366-97F9-C15552AB4A93";
shapes = (
{
closed = 1;
nodes = (
(484,702,o),
(598,742,o),
(659,814,c),
(686,757,o),
(743,702,o),
(824,702,cs),
(835,702,o),
(861,705,o),
(871,708,c),
(929,887,l),
(923,884,o),
(918,883,o),
(912,883,cs),
(881,883,o),
(871,918,o),
(882,957,cs),
(922,1098,l),
(951,1196,o),
(939,1282,o),
(880,1344,c),
(827,1406,o),
(732,1440,o),
(594,1440,cs),
(481,1440,o),
(387,1417,o),
(307,1362,c),
(344,1186,l),
(392,1208,o),
(476,1219,o),
(544,1219,cs),
(590,1219,o),
(633,1214,o),
(658,1201,cs),
(680,1190,o),
(690,1174,o),
(681,1150,c),
(677,1138,l),
(716,1159,l),
(663,1160,o),
(613,1166,o),
(560,1166,cs),
(405,1166,o),
(146,1118,o),
(150,908,cs),
(153,778,o),
(255,702,o),
(388,702,cs)
);
},
{
closed = 1;
nodes = (
(473,907,o),
(425,919,o),
(425,947,cs),
(424,993,o),
(548,1000,o),
(602,1000,cs),
(623,1000,o),
(645,1000,o),
(668,997,c),
(651,1006,l),
(643,984,l),
(627,936,o),
(572,907,o),
(512,907,cs)
);
}
);
width = 836;
},
{
layerId = "DCE18E71-776F-477B-AB8E-147A8D0BE437";
shapes = (
{
closed = 1;
nodes = (
(527,702,o),
(626,739,o),
(689,826,c),
(694,770,o),
(729,702,o),
(810,702,cs),
(822,702,o),
(847,705,o),
(861,707,c),
(899,819,l),
(892,817,o),
(874,816,o),
(868,816,cs),
(826,816,o),
(817,864,o),
(828,904,cs),
(891,1135,ls),
(917,1230,o),
(899,1307,o),
(846,1360,cs),
(794,1414,o),
(712,1440,o),
(605,1440,cs),
(501,1440,o),
(411,1415,o),
(331,1357,c),
(352,1255,l),
(411,1288,o),
(497,1312,o),
(575,1312,cs),
(629,1312,o),
(682,1300,o),
(717,1274,cs),
(749,1249,o),
(764,1209,o),
(747,1149,cs),
(741,1126,l),
(774,1135,l),
(710,1145,o),
(644,1150,o),
(584,1150,cs),
(409,1150,o),
(166,1105,o),
(174,899,cs),
(180,764,o),
(288,702,o),
(422,702,cs)
);
},
{
closed = 1;
nodes = (
(397,826,o),
(326,855,o),
(323,921,cs),
(317,1031,o),
(498,1043,o),
(590,1043,cs),
(646,1043,o),
(699,1039,o),
(746,1034,c),
(726,1059,l),
(704,978,ls),
(677,880,o),
(565,826,o),
(467,826,cs)
);
}
);
width = 820;
},
{
layerId = "07F2E3F0-ED06-4523-9B4E-21C099677EF3";
shapes = (
{
closed = 1;
nodes = (
(554,702,o),
(645,737,o),
(708,833,c),
(700,778,o),
(719,702,o),
(799,702,cs),
(813,702,o),
(837,704,o),
(854,706,c),
(880,773,l),
(871,772,o),
(845,771,o),
(839,771,cs),
(787,771,o),
(780,828,o),
(791,869,cs),
(870,1159,ls),
(896,1253,o),
(874,1323,o),
(824,1370,cs),
(773,1418,o),
(699,1440,o),
(611,1440,cs),
(514,1440,o),
(426,1413,o),
(347,1354,c),
(358,1299,l),
(423,1341,o),
(510,1372,o),
(596,1372,cs),
(654,1372,o),
(715,1357,o),
(755,1322,cs),
(794,1287,o),
(813,1231,o),
(791,1148,cs),
(783,1118,l),
(814,1119,l),
(742,1135,o),
(664,1140,o),
(600,1140,cs),
(412,1140,o),
(179,1097,o),
(190,893,cs),
(198,755,o),
(309,702,o),
(444,702,cs)
);
},
{
closed = 1;
nodes = (
(345,770,o),
(260,811,o),
(254,905,c),
(247,1056,o),
(464,1071,o),
(582,1071,cs),
(662,1071,o),
(734,1064,o),
(797,1058,c),
(774,1094,l),
(744,974,ls),
(710,842,o),
(559,770,o),
(438,770,cs)
);
}
);
width = 808;
}
);
leftKerningGroup = _degree2;
rightKerningGroup = _degree;
unicode = 170;
},
{
glyphname = guillemotleft;
layers = (
{
layerId = "47B14137-3610-4366-97F9-C15552AB4A93";
shapes = (
{
closed = 1;
nodes = (
(1044,178,l),
(921,504,l),
(1172,810,l),
(949,995,l),
(563,527,l),
(738,61,l)
);
},
{
closed = 1;
nodes = (
(527,178,l),
(404,504,l),
(655,810,l),
(432,995,l),
(46,527,l),
(221,61,l)
);
}
);
width = 1223;
},
{
layerId = "DCE18E71-776F-477B-AB8E-147A8D0BE437";
shapes = (
{
closed = 1;
nodes = (
(855,166,l),
(677,495,l),
(1011,821,l),
(905,920,l),
(483,507,l),
(707,96,l)
);
},
{
closed = 1;
nodes = (
(433,166,l),
(255,495,l),
(589,821,l),
(483,920,l),
(61,507,l),
(285,96,l)
);
}
);
width = 1038;
},
{
layerId = "07F2E3F0-ED06-4523-9B4E-21C099677EF3";
shapes = (
{
closed = 1;
nodes = (
(728,158,l),
(514,489,l),
(903,827,l),
(875,869,l),
(429,494,l),
(685,118,l)
);
},
{
closed = 1;
nodes = (
(369,158,l),
(155,489,l),
(544,827,l),
(516,869,l),
(70,494,l),
(326,118,l)
);
}
);
width = 915;
}
);
unicode = 171;
},
{
glyphname = logicalnot;
layers = (
{
layerId = "47B14137-3610-4366-97F9-C15552AB4A93";
shapes = (
{
closed = 1;
nodes = (
(1169,294,l),
(1367,1046,l),
(213,1046,l),
(143,782,l),
(1018,782,l),
(889,294,l)
);
}
);
width = 1296;
},
{
layerId = "DCE18E71-776F-477B-AB8E-147A8D0BE437";
shapes = (
{
closed = 1;
nodes = (
(1129,408,l),
(1266,924,l),
(263,924,l),
(224,776,l),
(1072,776,l),
(974,408,l)
);
}
);
width = 1296;
},
{
layerId = "07F2E3F0-ED06-4523-9B4E-21C099677EF3";
shapes = (
{
closed = 1;
nodes = (
(1102,483,l),
(1199,843,l),
(297,843,l),
(278,773,l),
(1108,773,l),
(1030,483,l)
);
}
);
width = 1296;
}
);
leftKerningGroup = _plus2;
rightKerningGroup = _plus;
unicode = 172;
},
{
glyphname = registered;
layers = (
{
layerId = "47B14137-3610-4366-97F9-C15552AB4A93";
shapes = (
{
closed = 1;
nodes = (
(886,470,o),
(1019,526,o),
(1112,618,cs),
(1205,710,o),
(1262,834,o),
(1262,979,cs),
(1262,1123,o),
(1206,1249,o),
(1110,1342,cs),
(1014,1435,o),
(884,1492,o),
(735,1492,cs),
(587,1492,o),
(460,1438,o),
(364,1346,cs),
(268,1254,o),
(214,1128,o),
(214,983,cs),
(214,838,o),
(269,711,o),
(365,619,cs),
(461,527,o),
(592,470,o),
(741,470,cs)
);
},
{
closed = 1;
nodes = (
(628,565,o),
(522,608,o),
(446,681,cs),
(370,753,o),
(322,855,o),
(322,983,cs),
(322,1108,o),
(369,1211,o),
(445,1283,cs),
(521,1355,o),
(622,1395,o),
(735,1395,cs),
(849,1395,o),
(954,1355,o),
(1031,1282,cs),
(1107,1209,o),
(1155,1104,o),
(1155,979,cs),
(1155,855,o),
(1109,753,o),
(1033,681,cs),
(957,609,o),
(854,565,o),
(741,565,cs)
);
},
{
closed = 1;
nodes = (
(663,706,l),
(664,913,l),
(724,913,l),
(865,706,l),
(1011,706,l),
(847,936,l),
(924,956,o),
(977,1008,o),
(977,1088,cs),
(977,1141,o),
(957,1183,o),
(921,1212,c),
(884,1240,o),
(833,1256,o),
(769,1256,cs),
(542,1256,l),
(543,706,l)
);
},
{
closed = 1;
nodes = (
(664,1157,l),
(758,1157,ls),
(823,1157,o),
(855,1131,o),
(855,1082,cs),
(855,1034,o),
(819,1010,o),
(754,1010,cs),
(664,1010,l)
);
}
);
width = 1212;
},
{
layerId = "DCE18E71-776F-477B-AB8E-147A8D0BE437";
shapes = (
{
closed = 1;
nodes = (
(899,476,o),
(1030,531,o),
(1123,623,cs),
(1216,715,o),
(1273,838,o),
(1273,983,cs),
(1273,1127,o),
(1217,1255,o),
(1121,1348,cs),
(1025,1441,o),
(896,1498,o),
(745,1498,cs),
(596,1498,o),
(469,1444,o),
(374,1353,cs),
(279,1261,o),
(225,1134,o),
(225,990,cs),
(225,842,o),
(280,716,o),
(376,624,cs),
(472,532,o),
(603,476,o),
(752,476,cs)
);
},
{
closed = 1;
nodes = (
(634,551,o),
(523,594,o),
(442,671,cs),
(360,748,o),
(309,855,o),
(309,990,cs),
(309,1119,o),
(361,1228,o),
(440,1303,cs),
(520,1379,o),
(629,1422,o),
(745,1422,cs),
(863,1422,o),
(973,1381,o),
(1055,1303,cs),
(1136,1225,o),
(1189,1117,o),
(1189,983,cs),
(1189,853,o),
(1138,746,o),
(1057,671,cs),
(975,595,o),
(868,551,o),
(752,551,cs)
);
},
{
closed = 1;
nodes = (
(656,712,l),
(655,930,l),
(733,930,l),
(892,712,l),
(1008,712,l),
(832,946,l),
(919,963,o),
(974,1016,o),
(974,1096,cs),
(974,1147,o),
(956,1188,o),
(922,1217,cs),
(888,1245,o),
(839,1260,o),
(777,1260,cs),
(559,1260,l),
(563,712,l)
);
},
{
closed = 1;
nodes = (
(655,1183,l),
(772,1183,ls),
(844,1183,o),
(882,1150,o),
(882,1093,cs),
(882,1037,o),
(840,1007,o),
(765,1007,cs),
(655,1007,l)
);
}
);
width = 1223;
},
{
layerId = "07F2E3F0-ED06-4523-9B4E-21C099677EF3";
shapes = (
{
closed = 1;
nodes = (
(907,479,o),
(1036,534,o),
(1129,626,cs),
(1222,718,o),
(1279,841,o),
(1279,986,cs),
(1279,1130,o),
(1223,1258,o),
(1127,1351,cs),
(1031,1444,o),
(903,1501,o),
(751,1501,cs),
(602,1501,o),
(475,1447,o),
(380,1356,cs),
(285,1265,o),
(231,1137,o),
(231,993,cs),
(231,845,o),
(286,719,o),
(382,627,cs),
(478,535,o),
(609,479,o),
(758,479,cs)
);
},
{
closed = 1;
nodes = (
(637,541,o),
(524,585,o),
(439,665,cs),
(354,745,o),
(300,855,o),
(300,993,cs),
(300,1126,o),
(355,1238,o),
(437,1316,cs),
(519,1394,o),
(633,1440,o),
(751,1440,cs),
(872,1440,o),
(985,1397,o),
(1070,1316,cs),
(1155,1235,o),
(1210,1125,o),
(1210,986,cs),
(1210,851,o),
(1157,742,o),
(1072,664,cs),
(987,586,o),
(876,541,o),
(758,541,cs)
);
},
{
closed = 1;
nodes = (
(652,715,l),
(649,942,l),
(739,942,l),
(910,715,l),
(1005,715,l),
(822,952,l),
(916,966,o),
(972,1022,o),
(972,1102,cs),
(972,1150,o),
(955,1191,o),
(923,1220,cs),
(891,1248,o),
(842,1263,o),
(783,1263,cs),
(571,1263,l),
(575,715,l)
);
},
{
closed = 1;
nodes = (
(649,1199,l),
(780,1199,ls),
(857,1199,o),
(898,1162,o),
(898,1100,cs),
(898,1039,o),
(853,1005,o),
(771,1005,cs),
(649,1005,l)
);
}
);
width = 1230;
}
);
leftKerningGroup = _degree2;
rightKerningGroup = _degree;
unicode = 174;
},
{
glyphname = degree;
layers = (
{
layerId = "47B14137-3610-4366-97F9-C15552AB4A93";
shapes = (
{
closed = 1;
nodes = (
(657,613,o),
(774,666,o),
(863,751,cs),
(952,837,o),
(1008,954,o),
(1008,1079,cs),
(1008,1180,o),
(970,1267,o),
(905,1330,c),
(841,1394,o),
(750,1430,o),
(637,1430,cs),
(511,1430,o),
(393,1376,o),
(304,1293,cs),
(214,1208,o),
(159,1092,o),
(159,968,cs),
(159,867,o),
(195,780,o),
(263,716,cs),
(330,651,o),
(419,613,o),
(532,613,cs)
);
},
{
closed = 1;
nodes = (
(521,857,o),
(483,871,o),
(459,895,cs),
(435,919,o),
(419,956,o),
(419,998,cs),
(419,1048,o),
(441,1094,o),
(473,1131,c),
(506,1166,o),
(553,1186,o),
(602,1186,cs),
(647,1186,o),
(683,1171,o),
(708,1148,cs),
(733,1125,o),
(748,1089,o),
(748,1049,cs),
(748,992,o),
(726,944,o),
(693,911,cs),
(658,877,o),
(614,857,o),
(566,857,cs)
);
}
);
width = 891;
},
{
layerId = "DCE18E71-776F-477B-AB8E-147A8D0BE437";
shapes = (
{
closed = 1;
nodes = (
(675,684,o),
(784,731,o),
(865,808,cs),
(945,884,o),
(1001,990,o),
(1001,1105,cs),
(1001,1197,o),
(967,1278,o),
(907,1336,c),
(849,1395,o),
(764,1430,o),
(664,1430,cs),
(550,1430,o),
(443,1383,o),
(359,1307,c),
(277,1230,o),
(226,1127,o),
(226,1012,cs),
(226,919,o),
(259,839,o),
(319,779,cs),
(380,720,o),
(462,684,o),
(564,684,cs)
);
},
{
closed = 1;
nodes = (
(522,826,o),
(467,847,o),
(432,880,cs),
(396,913,o),
(375,965,o),
(375,1023,cs),
(375,1097,o),
(406,1164,o),
(453,1212,cs),
(499,1260,o),
(568,1288,o),
(640,1288,cs),
(707,1288,o),
(757,1269,o),
(793,1236,cs),
(830,1203,o),
(850,1156,o),
(850,1099,cs),
(850,1023,o),
(823,956,o),
(775,906,cs),
(729,857,o),
(663,826,o),
(586,826,cs)
);
}
);
width = 915;
},
{
layerId = "07F2E3F0-ED06-4523-9B4E-21C099677EF3";
shapes = (
{
closed = 1;
nodes = (
(687,731,o),
(790,773,o),
(866,846,c),
(942,916,o),
(995,1013,o),
(995,1121,cs),
(995,1207,o),
(964,1284,o),
(908,1339,cs),
(853,1395,o),
(774,1430,o),
(680,1430,cs),
(574,1430,o),
(477,1387,o),
(398,1316,c),
(318,1246,o),
(270,1148,o),
(270,1040,cs),
(270,955,o),
(301,877,o),
(357,822,c),
(413,765,o),
(490,731,o),
(585,731,cs)
);
},
{
closed = 1;
nodes = (
(522,805,o),
(457,831,o),
(414,870,cs),
(371,909,o),
(345,971,o),
(345,1039,cs),
(345,1130,o),
(383,1211,o),
(438,1267,c),
(495,1321,o),
(578,1355,o),
(665,1355,cs),
(746,1355,o),
(808,1333,o),
(851,1296,c),
(894,1257,o),
(917,1200,o),
(917,1132,cs),
(917,1042,o),
(886,963,o),
(831,903,cs),
(776,844,o),
(696,805,o),
(599,805,cs)
);
}
);
width = 931;
}
);
leftKerningGroup = _degree2;
rightKerningGroup = _degree;
unicode = 176;
},
{
glyphname = twosuperior;
layers = (
{
layerId = "47B14137-3610-4366-97F9-C15552AB4A93";
shapes = (
{
closed = 1;
nodes = (
(463,1270,l),
(504,1338,o),
(600,1445,o),
(683,1445,cs),
(729,1445,o),
(777,1425,o),
(777,1373,cs),
(777,1228,o),
(340,987,o),
(213,919,c),
(160,722,l),
(847,722,l),
(906,938,l),
(603,938,l),
(787,1008,o),
(1031,1164,o),
(1031,1384,cs),
(1031,1573,o),
(864,1652,o),
(692,1652,cs),
(486,1652,o),
(372,1517,o),
(261,1368,c)
);
}
);
width = 854;
},
{
layerId = "DCE18E71-776F-477B-AB8E-147A8D0BE437";
shapes = (
{
closed = 1;
nodes = (
(453,1342,l),
(494,1430,o),
(590,1523,o),
(691,1523,cs),
(786,1523,o),
(839,1489,o),
(839,1415,cs),
(839,1214,o),
(379,939,o),
(214,844,c),
(181,722,l),
(803,722,l),
(840,859,l),
(462,859,l),
(652,955,o),
(994,1183,o),
(994,1415,cs),
(994,1580,o),
(882,1652,o),
(696,1652,cs),
(527,1652,o),
(399,1537,o),
(322,1402,c)
);
}
);
width = 855;
},
{
layerId = "07F2E3F0-ED06-4523-9B4E-21C099677EF3";
shapes = (
{
closed = 1;
nodes = (
(446,1390,l),
(487,1490,o),
(584,1576,o),
(697,1576,cs),
(824,1576,o),
(881,1531,o),
(881,1442,cs),
(881,1204,o),
(404,906,o),
(215,793,c),
(196,722,l),
(774,722,l),
(796,806,l),
(368,806,l),
(561,919,o),
(970,1195,o),
(970,1436,cs),
(970,1583,o),
(894,1652,o),
(699,1652,cs),
(554,1652,o),
(415,1549,o),
(362,1424,c)
);
}
);
width = 856;
}
);
unicode = 178;
},
{
glyphname = threesuperior;
layers = (
{
layerId = "47B14137-3610-4366-97F9-C15552AB4A93";
shapes = (
{
closed = 1;
nodes = (
(581,702,o),
(679,734,o),
(751,791,cs),
(823,847,o),
(868,929,o),
(868,1029,cs),
(868,1090,o),
(847,1137,o),
(816,1176,c),
(783,1215,o),
(738,1238,o),
(693,1250,c),
(948,1447,l),
(995,1632,l),
(373,1632,l),
(320,1425,l),
(647,1425,l),
(388,1255,l),
(411,1106,l),
(444,1114,o),
(473,1114,o),
(497,1114,cs),
(580,1114,o),
(631,1082,o),
(631,1025,cs),
(631,992,o),
(618,965,o),
(591,946,cs),
(563,925,o),
(527,915,o),
(483,915,cs),
(440,915,o),
(399,924,o),
(360,943,cs),
(320,962,o),
(290,987,o),
(270,1016,c),
(152,829,l),
(175,795,o),
(222,763,o),
(281,740,cs),
(339,716,o),
(408,702,o),
(476,702,cs)
);
}
);
width = 826;
},
{
layerId = "DCE18E71-776F-477B-AB8E-147A8D0BE437";
shapes = (
{
closed = 1;
nodes = (
(580,702,o),
(673,735,o),
(742,792,cs),
(811,848,o),
(853,930,o),
(853,1025,cs),
(853,1094,o),
(824,1145,o),
(779,1184,cs),
(733,1223,o),
(669,1246,o),
(602,1253,c),
(950,1518,l),
(979,1632,l),
(388,1632,l),
(355,1505,l),
(757,1505,l),
(402,1242,l),
(417,1154,l),
(441,1160,o),
(469,1160,o),
(494,1160,cs),
(625,1160,o),
(704,1107,o),
(704,1020,cs),
(704,963,o),
(682,918,o),
(643,885,cs),
(604,852,o),
(548,835,o),
(484,835,cs),
(436,835,o),
(390,844,o),
(348,862,c),
(306,878,o),
(271,902,o),
(244,929,c),
(168,815,l),
(195,785,o),
(243,756,o),
(298,735,cs),
(353,714,o),
(418,702,o),
(477,702,cs)
);
}
);
width = 819;
},
{
layerId = "07F2E3F0-ED06-4523-9B4E-21C099677EF3";
shapes = (
{
closed = 1;
nodes = (
(579,702,o),
(669,736,o),
(736,793,cs),
(803,849,o),
(843,931,o),
(843,1022,cs),
(843,1097,o),
(808,1151,o),
(754,1190,cs),
(699,1229,o),
(622,1250,o),
(541,1255,c),
(951,1565,l),
(967,1632,l),
(398,1632,l),
(377,1558,l),
(830,1558,l),
(411,1234,l),
(420,1187,l),
(439,1191,o),
(466,1191,o),
(491,1191,cs),
(654,1191,o),
(752,1123,o),
(752,1017,cs),
(752,944,o),
(724,886,o),
(678,844,c),
(629,802,o),
(561,781,o),
(485,781,cs),
(433,781,o),
(384,790,o),
(340,807,c),
(296,822,o),
(258,845,o),
(228,872,c),
(178,805,l),
(207,778,o),
(256,750,o),
(308,732,c),
(361,712,o),
(424,702,o),
(478,702,cs)
);
}
);
width = 815;
}
);
leftKerningGroup = _degree2;
rightKerningGroup = _degree;
unicode = 179;
},
{
glyphname = mu;
layers = (
{
layerId = "47B14137-3610-4366-97F9-C15552AB4A93";
shapes = (
{
closed = 1;
nodes = (
(238,-419,l),
(355,14,l),
(372,-4,o),
(394,-13,o),
(417,-21,c),
(441,-28,o),
(464,-30,o),
(493,-30,cs),
(540,-30,o),
(587,-23,o),
(636,2,cs),
(684,27,o),
(734,73,o),
(780,145,c),
(739,0,l),
(1068,0,l),
(1350,1040,l),
(956,1040,l),
(804,481,l),
(791,434,o),
(770,396,o),
(738,368,cs),
(704,340,o),
(665,325,o),
(613,325,cs),
(563,325,o),
(531,341,o),
(515,366,cs),
(498,391,o),
(498,428,o),
(510,468,c),
(664,1040,l),
(270,1040,l),
(-124,-419,l)
);
}
);
width = 1336;
},
{
layerId = "DCE18E71-776F-477B-AB8E-147A8D0BE437";
shapes = (
{
closed = 1;
nodes = (
(87,-400,l),
(217,79,l),
(234,37,o),
(267,11,o),
(308,-7,cs),
(348,-25,o),
(396,-30,o),
(451,-30,cs),
(510,-30,o),
(568,-23,o),
(626,3,cs),
(683,30,o),
(742,78,o),
(801,149,c),
(762,0,l),
(946,0,l),
(1228,1040,l),
(1023,1040,l),
(862,440,ls),
(837,348,o),
(788,277,o),
(724,230,cs),
(660,182,o),
(585,158,o),
(512,158,cs),
(434,158,o),
(374,181,o),
(339,226,cs),
(305,270,o),
(296,337,o),
(319,422,cs),
(484,1040,l),
(280,1040,l),
(-108,-400,l)
);
}
);
width = 1225;
},
{
layerId = "07F2E3F0-ED06-4523-9B4E-21C099677EF3";
shapes = (
{
closed = 1;
nodes = (
(-17,-400,l),
(126,121,l),
(143,64,o),
(184,26,o),
(236,2,cs),
(287,-22,o),
(352,-30,o),
(423,-30,cs),
(491,-30,o),
(556,-23,o),
(620,4,cs),
(683,32,o),
(748,81,o),
(816,152,c),
(778,0,l),
(867,0,l),
(1147,1040,l),
(1068,1040,l),
(901,413,ls),
(869,291,o),
(800,198,o),
(715,137,cs),
(631,77,o),
(532,47,o),
(445,47,cs),
(348,47,o),
(269,74,o),
(223,132,c),
(176,189,o),
(163,277,o),
(192,392,c),
(365,1040,l),
(286,1040,l),
(-100,-400,l)
);
}
);
width = 1152;
}
);
unicode = (181,956);
},
{
glyphname = paragraph;
layers = (
{
layerId = "47B14137-3610-4366-97F9-C15552AB4A93";
shapes = (
{
closed = 1;
nodes = (
(571,-403,l),
(1003,1197,l),
(1137,1197,l),
(706,-403,l),
(964,-403,l),
(1396,1197,l),
(1601,1197,l),
(1660,1410,l),
(829,1410,ls),
(643,1410,o),
(474,1360,o),
(350,1269,c),
(227,1175,o),
(149,1044,o),
(149,873,cs),
(149,752,o),
(197,647,o),
(281,578,cs),
(365,508,o),
(481,470,o),
(626,472,c),
(562,519,l),
(313,-403,l)
);
}
);
width = 1438;
},
{
layerId = "DCE18E71-776F-477B-AB8E-147A8D0BE437";
shapes = (
{
closed = 1;
nodes = (
(427,-403,l),
(879,1275,l),
(1063,1275,l),
(611,-403,l),
(763,-403,l),
(1215,1275,l),
(1434,1275,l),
(1472,1410,l),
(770,1410,ls),
(620,1410,o),
(481,1369,o),
(379,1291,cs),
(277,1212,o),
(211,1105,o),
(211,965,cs),
(211,866,o),
(251,779,o),
(320,720,cs),
(390,660,o),
(485,626,o),
(609,628,c),
(565,669,l),
(275,-403,l)
);
}
);
width = 1270;
},
{
layerId = "07F2E3F0-ED06-4523-9B4E-21C099677EF3";
shapes = (
{
closed = 1;
nodes = (
(330,-403,l),
(796,1326,l),
(1015,1326,l),
(549,-403,l),
(630,-403,l),
(1096,1326,l),
(1322,1326,l),
(1346,1410,l),
(731,1410,ls),
(605,1410,o),
(485,1375,o),
(398,1306,cs),
(311,1236,o),
(254,1145,o),
(254,1025,cs),
(254,941,o),
(286,867,o),
(345,815,cs),
(406,761,o),
(488,731,o),
(597,731,c),
(567,768,l),
(250,-403,l)
);
}
);
width = 1159;
}
);
unicode = 182;
},
{
glyphname = periodcentered;
layers = (
{
layerId = "47B14137-3610-4366-97F9-C15552AB4A93";
shapes = (
{
closed = 1;
nodes = (
(394,493,o),
(458,516,o),
(507,560,cs),
(554,602,o),
(587,666,o),
(587,745,cs),
(587,804,o),
(566,853,o),
(527,884,c),
(489,916,o),
(439,934,o),
(379,934,cs),
(312,934,o),
(249,912,o),
(199,869,cs),
(148,825,o),
(118,763,o),
(118,680,c),
(115,624,o),
(138,576,o),
(177,545,c),
(215,513,o),
(268,493,o),
(327,493,cs)
);
}
);
width = 598;
},
{
layerId = "DCE18E71-776F-477B-AB8E-147A8D0BE437";
shapes = (
{
closed = 1;
nodes = (
(340,533,o),
(382,549,o),
(413,577,cs),
(443,603,o),
(464,644,o),
(464,692,cs),
(464,728,o),
(451,759,o),
(427,780,cs),
(404,800,o),
(372,812,o),
(334,812,cs),
(291,812,o),
(248,798,o),
(216,770,cs),
(184,742,o),
(165,702,o),
(165,652,c),
(163,617,o),
(177,587,o),
(202,567,cs),
(227,547,o),
(258,533,o),
(296,533,cs)
);
}
);
width = 530;
},
{
layerId = "07F2E3F0-ED06-4523-9B4E-21C099677EF3";
shapes = (
{
closed = 1;
nodes = (
(302,558,o),
(331,570,o),
(350,587,cs),
(370,604,o),
(382,629,o),
(382,657,cs),
(382,677,o),
(374,696,o),
(361,710,c),
(347,723,o),
(327,731,o),
(304,731,cs),
(276,731,o),
(247,722,o),
(228,704,c),
(207,686,o),
(196,661,o),
(196,633,c),
(195,613,o),
(202,594,o),
(218,582,c),
(234,568,o),
(252,558,o),
(275,558,cs)
);
}
);
width = 485;
}
);
leftKerningGroup = _hyphen2;
rightKerningGroup = _hyphen;
unicode = 183;
},
{
glyphname = onesuperior;
layers = (
{
layerId = "47B14137-3610-4366-97F9-C15552AB4A93";
shapes = (
{
closed = 1;
nodes = (
(621,722,l),
(863,1632,l),
(785,1632,l),
(279,1480,l),
(340,1284,l),
(555,1343,l),
(385,722,l)
);
}
);
width = 665;
},
{
layerId = "DCE18E71-776F-477B-AB8E-147A8D0BE437";
shapes = (
{
closed = 1;
nodes = (
(547,722,l),
(790,1632,l),
(720,1632,l),
(305,1501,l),
(342,1387,l),
(607,1466,l),
(405,722,l)
);
}
);
width = 631;
},
{
layerId = "07F2E3F0-ED06-4523-9B4E-21C099677EF3";
shapes = (
{
closed = 1;
nodes = (
(496,722,l),
(742,1632,l),
(676,1632,l),
(321,1514,l),
(343,1456,l),
(642,1548,l),
(417,722,l)
);
}
);
width = 609;
}
);
leftKerningGroup = _degree2;
rightKerningGroup = _degree;
unicode = 185;
},
{
glyphname = ordmasculine;
layers = (
{
layerId = "47B14137-3610-4366-97F9-C15552AB4A93";
shapes = (
{
closed = 1;
nodes = (
(813,702,o),
(1047,884,o),
(1047,1120,cs),
(1047,1334,o),
(853,1440,o),
(661,1440,cs),
(415,1440,o),
(179,1260,o),
(179,1023,cs),
(179,811,o),
(372,702,o),
(564,702,cs)
);
},
{
closed = 1;
nodes = (
(523,955,o),
(472,992,o),
(472,1049,cs),
(472,1123,o),
(538,1187,o),
(632,1187,cs),
(704,1187,o),
(754,1154,o),
(754,1094,cs),
(754,1020,o),
(689,955,o),
(593,955,cs)
);
}
);
width = 916;
},
{
layerId = "DCE18E71-776F-477B-AB8E-147A8D0BE437";
shapes = (
{
closed = 1;
nodes = (
(785,702,o),
(996,895,o),
(996,1123,cs),
(996,1323,o),
(834,1440,o),
(644,1440,cs),
(409,1440,o),
(196,1250,o),
(196,1020,cs),
(196,825,o),
(354,702,o),
(547,702,cs)
);
},
{
closed = 1;
nodes = (
(442,840,o),
(354,909,o),
(354,1028,cs),
(354,1174,o),
(463,1301,o),
(626,1301,cs),
(751,1301,o),
(837,1237,o),
(837,1116,cs),
(837,969,o),
(729,840,o),
(566,840,cs)
);
}
);
width = 883;
},
{
layerId = "07F2E3F0-ED06-4523-9B4E-21C099677EF3";
shapes = (
{
closed = 1;
nodes = (
(766,702,o),
(961,901,o),
(961,1125,cs),
(961,1316,o),
(821,1440,o),
(634,1440,cs),
(405,1440,o),
(206,1243,o),
(206,1018,cs),
(206,834,o),
(342,702,o),
(535,702,cs)
);
},
{
closed = 1;
nodes = (
(388,764,o),
(276,854,o),
(276,1013,cs),
(276,1209,o),
(413,1376,o),
(622,1376,cs),
(783,1376,o),
(892,1293,o),
(892,1129,cs),
(892,933,o),
(754,764,o),
(547,764,cs)
);
}
);
width = 861;
}
);
leftKerningGroup = _degree2;
rightKerningGroup = _degree;
unicode = 186;
},
{
glyphname = guillemotright;
layers = (
{
layerId = "47B14137-3610-4366-97F9-C15552AB4A93";
shapes = (
{
closed = 1;
nodes = (
(1186,529,l),
(1009,997,l),
(705,881,l),
(827,555,l),
(576,248,l),
(800,61,l)
);
},
{
closed = 1;
nodes = (
(669,529,l),
(492,997,l),
(188,881,l),
(310,555,l),
(59,248,l),
(283,61,l)
);
}
);
width = 1223;
},
{
layerId = "DCE18E71-776F-477B-AB8E-147A8D0BE437";
shapes = (
{
closed = 1;
nodes = (
(987,508,l),
(762,921,l),
(617,851,l),
(794,522,l),
(460,196,l),
(567,95,l)
);
},
{
closed = 1;
nodes = (
(565,508,l),
(340,921,l),
(195,851,l),
(372,522,l),
(38,196,l),
(145,95,l)
);
}
);
width = 1038;
},
{
layerId = "07F2E3F0-ED06-4523-9B4E-21C099677EF3";
shapes = (
{
closed = 1;
nodes = (
(855,493,l),
(598,870,l),
(557,830,l),
(772,500,l),
(382,161,l),
(411,117,l)
);
},
{
closed = 1;
nodes = (
(496,493,l),
(239,870,l),
(198,830,l),
(413,500,l),
(23,161,l),
(52,117,l)
);
}
);
width = 915;
}
);
unicode = 187;
},
{
glyphname = onequarter;
layers = (
{
layerId = "47B14137-3610-4366-97F9-C15552AB4A93";
shapes = (
{
closed = 1;
nodes = (
(1581,1300,l),
(1417,1440,l),
(286,99,l),
(450,-40,l)
);
},
{
closed = 1;
nodes = (
(554,490,l),
(798,1400,l),
(720,1400,l),
(214,1248,l),
(273,1052,l),
(488,1111,l),
(319,490,l)
);
},
{
closed = 1;
nodes = (
(1612,0,l),
(1655,161,l),
(1774,161,l),
(1826,364,l),
(1708,364,l),
(1750,527,l),
(1543,527,l),
(1496,364,l),
(1338,364,l),
(1737,910,l),
(1471,910,l),
(1056,339,l),
(1009,161,l),
(1444,161,l),
(1401,0,l)
);
}
);
width = 1888;
},
{
layerId = "DCE18E71-776F-477B-AB8E-147A8D0BE437";
shapes = (
{
closed = 1;
nodes = (
(1520,1355,l),
(1431,1433,l),
(274,45,l),
(369,-33,l)
);
},
{
closed = 1;
nodes = (
(483,490,l),
(727,1400,l),
(659,1400,l),
(243,1269,l),
(280,1155,l),
(543,1234,l),
(341,490,l)
);
},
{
closed = 1;
nodes = (
(1501,0,l),
(1551,185,l),
(1694,185,l),
(1727,311,l),
(1583,311,l),
(1635,511,l),
(1506,511,l),
(1451,311,l),
(1153,311,l),
(1638,910,l),
(1475,910,l),
(982,299,l),
(953,185,l),
(1419,185,l),
(1369,0,l)
);
}
);
width = 1823;
},
{
layerId = "07F2E3F0-ED06-4523-9B4E-21C099677EF3";
shapes = (
{
closed = 1;
nodes = (
(1479,1393,l),
(1439,1429,l),
(266,9,l),
(314,-29,l)
);
},
{
closed = 1;
nodes = (
(435,490,l),
(680,1400,l),
(617,1400,l),
(262,1282,l),
(283,1224,l),
(581,1316,l),
(356,490,l)
);
},
{
closed = 1;
nodes = (
(1426,0,l),
(1481,201,l),
(1640,201,l),
(1661,276,l),
(1500,276,l),
(1559,501,l),
(1481,501,l),
(1421,276,l),
(1029,276,l),
(1572,910,l),
(1478,910,l),
(931,272,l),
(915,201,l),
(1403,201,l),
(1348,0,l)
);
}
);
width = 1779;
}
);
leftKerningGroup = _onehalf;
unicode = 188;
},
{
glyphname = onehalf;
layers = (
{
layerId = "47B14137-3610-4366-97F9-C15552AB4A93";
shapes = (
{
closed = 1;
nodes = (
(1572,1300,l),
(1407,1440,l),
(275,99,l),
(439,-40,l)
);
},
{
closed = 1;
nodes = (
(546,490,l),
(789,1400,l),
(709,1400,l),
(203,1248,l),
(262,1052,l),
(479,1111,l),
(308,490,l)
);
},
{
alignment = -1;
pos = (879,-723);
ref = twosuperior;
}
);
width = 1904;
},
{
layerId = "DCE18E71-776F-477B-AB8E-147A8D0BE437";
shapes = (
{
closed = 1;
nodes = (
(1518,1355,l),
(1426,1433,l),
(269,45,l),
(364,-33,l)
);
},
{
closed = 1;
nodes = (
(480,490,l),
(725,1400,l),
(654,1400,l),
(238,1269,l),
(275,1155,l),
(541,1234,l),
(336,490,l)
);
},
{
alignment = -1;
pos = (835,-723);
ref = twosuperior;
}
);
width = 1856;
},
{
layerId = "07F2E3F0-ED06-4523-9B4E-21C099677EF3";
shapes = (
{
closed = 1;
nodes = (
(1480,1393,l),
(1438,1429,l),
(266,9,l),
(313,-29,l)
);
},
{
closed = 1;
nodes = (
(436,490,l),
(681,1400,l),
(616,1400,l),
(261,1282,l),
(283,1224,l),
(582,1316,l),
(355,490,l)
);
},
{
alignment = -1;
pos = (806,-722);
ref = twosuperior;
}
);
width = 1823;
}
);
leftKerningGroup = _onehalf;
unicode = 189;
},
{
glyphname = threequarters;
layers = (
{
layerId = "47B14137-3610-4366-97F9-C15552AB4A93";
shapes = (
{
closed = 1;
nodes = (
(1720,1300,l),
(1557,1440,l),
(425,99,l),
(589,-40,l)
);
},
{
closed = 1;
nodes = (
(517,470,o),
(614,502,o),
(687,559,cs),
(759,615,o),
(805,697,o),
(805,797,cs),
(805,858,o),
(783,905,o),
(752,944,c),
(719,983,o),
(677,1006,o),
(629,1018,c),
(884,1215,l),
(931,1400,l),
(308,1400,l),
(255,1193,l),
(582,1193,l),
(326,1023,l),
(348,874,l),
(379,882,o),
(410,882,o),
(433,882,cs),
(516,882,o),
(568,850,o),
(568,793,cs),
(568,760,o),
(553,733,o),
(526,714,cs),
(498,693,o),
(464,683,o),
(420,683,cs),
(377,683,o),
(334,692,o),
(295,711,cs),
(256,730,o),
(224,755,o),
(207,784,c),
(89,597,l),
(112,563,o),
(157,531,o),
(217,508,cs),
(277,484,o),
(341,470,o),
(413,470,cs)
);
},
{
closed = 1;
nodes = (
(1752,0,l),
(1796,161,l),
(1914,161,l),
(1967,364,l),
(1848,364,l),
(1890,527,l),
(1683,527,l),
(1637,364,l),
(1479,364,l),
(1877,910,l),
(1611,910,l),
(1197,339,l),
(1149,161,l),
(1584,161,l),
(1541,0,l)
);
}
);
width = 2049;
},
{
layerId = "DCE18E71-776F-477B-AB8E-147A8D0BE437";
shapes = (
{
closed = 1;
nodes = (
(1694,1355,l),
(1605,1433,l),
(449,45,l),
(543,-33,l)
);
},
{
closed = 1;
nodes = (
(518,470,o),
(610,503,o),
(680,560,cs),
(749,616,o),
(791,698,o),
(791,793,cs),
(791,862,o),
(761,913,o),
(716,952,cs),
(671,991,o),
(609,1014,o),
(538,1021,c),
(888,1286,l),
(916,1400,l),
(325,1400,l),
(292,1273,l),
(694,1273,l),
(340,1010,l),
(356,922,l),
(379,928,o),
(408,928,o),
(431,928,cs),
(563,928,o),
(643,875,o),
(643,788,cs),
(643,731,o),
(619,686,o),
(580,653,cs),
(540,620,o),
(487,603,o),
(424,603,cs),
(375,603,o),
(327,612,o),
(285,630,c),
(243,646,o),
(208,670,o),
(184,697,c),
(107,583,l),
(133,553,o),
(178,524,o),
(236,503,cs),
(293,482,o),
(353,470,o),
(417,470,cs)
);
},
{
closed = 1;
nodes = (
(1675,0,l),
(1725,185,l),
(1868,185,l),
(1901,311,l),
(1757,311,l),
(1809,511,l),
(1680,511,l),
(1625,311,l),
(1327,311,l),
(1812,910,l),
(1649,910,l),
(1156,299,l),
(1127,185,l),
(1593,185,l),
(1543,0,l)
);
}
);
width = 2011;
},
{
layerId = "07F2E3F0-ED06-4523-9B4E-21C099677EF3";
shapes = (
{
closed = 1;
nodes = (
(1678,1393,l),
(1637,1429,l),
(464,9,l),
(511,-29,l)
);
},
{
closed = 1;
nodes = (
(518,470,o),
(607,504,o),
(674,561,c),
(742,617,o),
(781,699,o),
(781,790,cs),
(781,865,o),
(746,919,o),
(692,958,cs),
(638,997,o),
(562,1018,o),
(478,1023,c),
(890,1333,l),
(906,1400,l),
(337,1400,l),
(316,1326,l),
(769,1326,l),
(350,1002,l),
(360,955,l),
(378,959,o),
(406,959,o),
(429,959,cs),
(594,959,o),
(693,891,o),
(693,785,cs),
(693,712,o),
(663,654,o),
(616,612,cs),
(568,570,o),
(502,549,o),
(426,549,cs),
(373,549,o),
(323,558,o),
(279,575,c),
(234,590,o),
(196,613,o),
(168,640,c),
(119,573,l),
(148,546,o),
(193,518,o),
(248,500,c),
(303,480,o),
(360,470,o),
(419,470,cs)
);
},
{
closed = 1;
nodes = (
(1622,0,l),
(1677,201,l),
(1836,201,l),
(1857,276,l),
(1696,276,l),
(1755,501,l),
(1677,501,l),
(1617,276,l),
(1225,276,l),
(1768,910,l),
(1674,910,l),
(1128,272,l),
(1112,201,l),
(1599,201,l),
(1544,0,l)
);
}
);
width = 1986;
}
);
unicode = 190;
},
{
glyphname = questiondown;
leftMetricsKey = "=116";
widthMetricsKey = "=950";
layers = (
{
layerId = "47B14137-3610-4366-97F9-C15552AB4A93";
shapes = (
{
closed = 1;
nodes = (
(429,530,l),
(455,504,o),
(495,462,o),
(495,421,cs),
(495,373,o),
(453,341,o),
(390,316,cs),
(245,258,ls),
(95,199,o),
(-26,91,o),
(-26,-83,cs),
(-26,-337,o),
(288,-450,o),
(493,-450,cs),
(584,-450,o),
(749,-441,o),
(824,-389,c),
(836,-69,l),
(767,-92,o),
(696,-113,o),
(625,-113,cs),
(533,-113,o),
(472,-76,o),
(472,-14,cs),
(472,50,o),
(511,100,o),
(583,131,cs),
(685,175,ls),
(766,211,o),
(837,266,o),
(837,372,cs),
(837,449,o),
(757,511,o),
(702,552,c)
);
},
{
closed = 1;
nodes = (
(613,1068,o),
(492,962,o),
(492,822,cs),
(492,699,o),
(599,636,o),
(709,636,cs),
(847,636,o),
(965,740,o),
(965,882,cs),
(965,1001,o),
(862,1068,o),
(750,1068,cs)
);
}
);
width = 950;
},
{
layerId = "DCE18E71-776F-477B-AB8E-147A8D0BE437";
shapes = (
{
closed = 1;
nodes = (
(484,565,l),
(521,527,o),
(564,478,o),
(564,420,cs),
(564,365,o),
(519,337,o),
(446,306,cs),
(277,236,ls),
(119,171,o),
(-42,54,o),
(-42,-137,cs),
(-42,-366,o),
(239,-450,o),
(426,-450,cs),
(522,-450,o),
(636,-431,o),
(719,-382,c),
(705,-217,l),
(636,-256,o),
(557,-275,o),
(478,-275,cs),
(373,-275,o),
(196,-245,o),
(196,-108,cs),
(196,-10,o),
(287,58,o),
(380,97,cs),
(528,159,ls),
(645,208,o),
(751,276,o),
(751,399,cs),
(751,477,o),
(690,539,o),
(636,586,c)
);
},
{
closed = 1;
nodes = (
(621,1019,o),
(546,953,o),
(546,868,cs),
(546,793,o),
(611,754,o),
(680,754,cs),
(763,754,o),
(838,815,o),
(838,902,cs),
(838,976,o),
(772,1019,o),
(703,1019,cs)
);
}
);
width = 950;
},
{
layerId = "07F2E3F0-ED06-4523-9B4E-21C099677EF3";
shapes = (
{
closed = 1;
nodes = (
(530,592,l),
(574,545,o),
(614,490,o),
(614,419,cs),
(614,359,o),
(573,319,o),
(492,284,cs),
(304,202,l),
(139,132,o),
(-46,55,o),
(-46,-149,cs),
(-46,-366,o),
(216,-450,o),
(393,-450,cs),
(492,-450,o),
(578,-425,o),
(665,-379,c),
(637,-309,l),
(568,-357,o),
(484,-373,o),
(402,-373,cs),
(263,-373,o),
(28,-320,o),
(28,-143,cs),
(28,-12,o),
(104,42,o),
(220,88,cs),
(406,163,ls),
(551,223,o),
(686,283,o),
(686,420,cs),
(686,499,o),
(639,560,o),
(585,613,c)
);
},
{
closed = 1;
nodes = (
(629,991,o),
(580,949,o),
(580,893,cs),
(580,846,o),
(622,819,o),
(669,819,cs),
(720,819,o),
(771,857,o),
(771,912,cs),
(771,961,o),
(727,991,o),
(681,991,cs)
);
}
);
width = 950;
}
);
unicode = 191;
},
{
glyphname = AE;
layers = (
{
layerId = "47B14137-3610-4366-97F9-C15552AB4A93";
shapes = (
{
closed = 1;
nodes = (
(204,0,l),
(379,255,l),
(723,255,l),
(658,0,l),
(1622,0,l),
(1714,348,l),
(1148,348,l),
(1204,557,l),
(1680,557,l),
(1764,874,l),
(1289,874,l),
(1341,1065,l),
(1899,1065,l),
(1990,1410,l),
(766,1410,l),
(-249,0,l)
);
},
{
closed = 1;
nodes = (
(948,1076,l),
(809,568,l),
(596,568,l)
);
}
);
width = 1844;
},
{
layerId = "DCE18E71-776F-477B-AB8E-147A8D0BE437";
shapes = (
{
closed = 1;
nodes = (
(62,0,l),
(311,343,l),
(740,343,l),
(650,0,l),
(1518,0,l),
(1565,182,l),
(900,182,l),
(1027,651,l),
(1611,651,l),
(1656,824,l),
(1072,824,l),
(1183,1228,l),
(1840,1228,l),
(1887,1410,l),
(896,1410,l),
(-172,0,l)
);
},
{
closed = 1;
nodes = (
(984,1236,l),
(786,513,l),
(431,513,l)
);
}
);
width = 1773;
},
{
layerId = "07F2E3F0-ED06-4523-9B4E-21C099677EF3";
shapes = (
{
closed = 1;
nodes = (
(-33,0,l),
(267,403,l),
(752,403,l),
(644,0,l),
(1449,0,l),
(1466,72,l),
(735,72,l),
(909,714,l),
(1566,714,l),
(1586,789,l),
(929,789,l),
(1077,1337,l),
(1799,1337,l),
(1817,1410,l),
(982,1410,l),
(-121,0,l)
);
},
{
closed = 1;
nodes = (
(1006,1344,l),
(771,474,l),
(320,474,l)
);
}
);
width = 1726;
}
);
leftKerningGroup = _AE;
rightKerningGroup = _E;
unicode = 198;
},
{
glyphname = Eth;
layers = (
{
layerId = "47B14137-3610-4366-97F9-C15552AB4A93";
shapes = (
{
closed = 1;
nodes = (
(879,565,l),
(961,870,l),
(70,870,l),
(-12,565,l)
);
},
{
closed = 1;
nodes = (
(640,0,ls),
(883,0,o),
(1087,90,o),
(1238,236,cs),
(1387,382,o),
(1472,585,o),
(1472,818,cs),
(1472,1015,o),
(1398,1160,o),
(1269,1261,cs),
(1139,1361,o),
(964,1410,o),
(754,1410,cs),
(392,1410,l),
(14,0,l)
);
},
{
closed = 1;
nodes = (
(691,1037,l),
(733,1037,ls),
(828,1037,o),
(907,1017,o),
(964,973,cs),
(1020,928,o),
(1049,865,o),
(1049,775,cs),
(1049,661,o),
(1017,562,o),
(950,489,cs),
(885,416,o),
(791,373,o),
(672,373,cs),
(516,373,l)
);
}
);
width = 1518;
},
{
layerId = "DCE18E71-776F-477B-AB8E-147A8D0BE437";
shapes = (
{
closed = 1;
nodes = (
(927,661,l),
(969,816,l),
(120,816,l),
(79,661,l)
);
},
{
closed = 1;
nodes = (
(541,0,ls),
(795,0,o),
(1006,83,o),
(1157,229,cs),
(1309,374,o),
(1395,577,o),
(1395,825,cs),
(1395,1022,o),
(1320,1167,o),
(1191,1265,cs),
(1061,1362,o),
(888,1410,o),
(682,1410,cs),
(428,1410,l),
(50,0,l)
);
},
{
closed = 1;
nodes = (
(581,1220,l),
(699,1220,ls),
(848,1220,o),
(969,1181,o),
(1052,1106,cs),
(1137,1031,o),
(1179,927,o),
(1179,796,cs),
(1179,627,o),
(1123,477,o),
(1018,368,cs),
(913,259,o),
(767,189,o),
(590,189,cs),
(305,189,l)
);
}
);
width = 1461;
},
{
layerId = "07F2E3F0-ED06-4523-9B4E-21C099677EF3";
shapes = (
{
closed = 1;
nodes = (
(960,724,l),
(973,779,l),
(153,779,l),
(139,724,l)
);
},
{
closed = 1;
nodes = (
(474,0,ls),
(738,0,o),
(951,79,o),
(1104,223,cs),
(1258,368,o),
(1341,571,o),
(1341,828,cs),
(1341,1025,o),
(1267,1170,o),
(1138,1267,cs),
(1010,1362,o),
(837,1410,o),
(633,1410,cs),
(451,1410,l),
(74,0,l)
);
},
{
closed = 1;
nodes = (
(507,1341,l),
(676,1341,ls),
(860,1341,o),
(1009,1290,o),
(1112,1194,cs),
(1213,1099,o),
(1266,970,o),
(1266,810,cs),
(1266,605,o),
(1192,421,o),
(1062,288,cs),
(931,153,o),
(751,68,o),
(536,68,cs),
(165,68,l)
);
}
);
width = 1423;
}
);
leftKerningGroup = _Eth;
rightKerningGroup = _D;
unicode = 208;
},
